<?xml version="1.0" standalone="no"?>
<!DOCTYPE svg PUBLIC "-//W3C//DTD SVG 1.1//EN" "http://www.w3.org/Graphics/SVG/1.1/DTD/svg11.dtd" >
<svg>
<metadata>
Created by FontForge 20090914 at Mon May 16 09:21:10 2016
 By www-data
Copyright 1990-2003 Bitstream Inc. Partial Copyright ParaType Inc. 2008. All rights reserved.
</metadata>
<defs>
<font id="NewsGothicBT-Reg" horiz-adv-x="602" >
  <font-face 
    font-family="News Gothic BT"
    font-weight="400"
    font-stretch="normal"
    units-per-em="1000"
    panose-1="2 11 5 3 3 5 3 2 2 4"
    ascent="800"
    descent="-200"
    x-height="523"
    cap-height="723"
    bbox="-367 -348.002 1220 1009"
    underline-thickness="52"
    underline-position="-43"
    unicode-range="U+0020-U+FB02"
  />
<missing-glyph horiz-adv-x="500" 
d="M442 8v496h-384v-496h384zM50 512h400v-512h-400v512z" />
    <glyph glyph-name="IJ" unicode="IJ" horiz-adv-x="704" 
d="M102 723h81v-723h-81v723zM326 126c15.333 -24.667 30.833 -42.502 46.5 -53.502s35.167 -16.5 58.5 -16.5c38 0 63.333 11.833 76 35.5s19 59.834 19 108.501v523h78v-531c0 -67.333 -14.667 -118.166 -44 -152.499s-72.333 -51.5 -129 -51.5
c-37.333 0 -69.333 7.33301 -96 22s-50.667 38.667 -72 72z" />
    <glyph glyph-name="ij" unicode="ij" horiz-adv-x="478" 
d="M87 523h74v-523h-74v523zM81 723h86v-88h-86v88zM226 -121c11.333 -2.66699 24.332 -3.99805 38.999 -3.99805c20 0 33.5 5.16699 40.5 15.5s10.5 27.166 10.5 50.499v582h74v-565c0 -24.667 -1.33301 -46.334 -4 -65.001s-8.33398 -34.167 -17.001 -46.5
s-20.667 -21.5 -36 -27.5s-35.666 -9 -60.999 -9c-17.333 0 -32.666 2.33301 -45.999 7v62v0zM309.999 723.002h87v-88h-87v88z" />
    <glyph glyph-name="uniF460" unicode="&#x410;`" 
d="M240 723h122l222 -723h-84l-65 225h-269l-64 -225h-85zM413 292l-108 377h-11l-109 -377h228zM336 960h87l-137 -170h-52z" />
    <glyph glyph-name="uniF461" unicode="&#x415;`" horiz-adv-x="571" 
d="M97 723h427v-68h-347v-241h246v-68h-246v-277h364v-69h-444v723zM340 960h87l-137 -170h-52z" />
    <glyph glyph-name="uniF462" unicode="&#x418;`" horiz-adv-x="722" 
d="M177 723v-491c0 -3.33301 -0.166992 -8 -0.5 -14l-1 -18.5l-1 -18.5c-0.333008 -6 -0.5 -11 -0.5 -15c5.33301 10.667 9.83301 18.667 13.5 24l13.5 19l344 461v53h80v-723h-80v489c0 10 0.333008 22.333 1 37s1.33398 27.667 2.00098 39
c-4 -8 -8.83301 -16.167 -14.5 -24.5s-9.83398 -14.833 -12.501 -19.5l-344 -458v-63h-80v723h80zM396 960h87l-137 -170h-52z" />
    <glyph glyph-name="uniF463" unicode="&#x41e;`" horiz-adv-x="664" 
d="M46 362c0 58 6.83301 110.001 20.5 156.001s33 85 58 117s55.167 56.667 90.5 74s74.333 26 117 26s81.667 -8.5 117 -25.5s65.5 -41.667 90.5 -74s44.333 -71.5 58 -117.5s20.5 -98 20.5 -156s-6.83301 -110.167 -20.5 -156.5s-33 -85.5 -58 -117.5
s-55.167 -56.667 -90.5 -74s-74.333 -26 -117 -26s-81.667 8.66699 -117 26s-65.5 42.166 -90.5 74.499s-44.333 71.5 -58 117.5s-20.5 98 -20.5 156zM127 362.001c0 -98 18.333 -173.167 55 -225.5s86.667 -78.5 150 -78.5s113.333 26.167 150 78.5s55 127.5 55 225.5
s-18.333 173.167 -55 225.5s-86.667 78.5 -150 78.5s-113.333 -26.167 -150 -78.5s-55 -127.5 -55 -225.5zM367 960.001h87l-137 -170h-52z" />
    <glyph glyph-name="uniF464" unicode="&#x423;`" horiz-adv-x="536" 
d="M96 723l199.002 -440.001h1l161 440h77l-202 -538c-10 -27.333 -21.5 -54 -34.5 -80s-30.167 -49 -51.5 -69c-16 -15.333 -33.833 -26.5 -53.5 -33.5s-38.834 -10.5 -57.501 -10.5c-10 0 -18.833 0.833008 -26.5 2.5s-14.167 3.5 -19.5 5.5v77
c6.66699 -3.33301 13.667 -5.5 21 -6.5s14.333 -1.5 21 -1.5c17.333 0 32.666 3 45.999 9s24 13 32 21c11.333 11.333 21 25.833 29 43.5s13.667 32.834 17 45.501l-245 535h86zM323.002 959.999h87l-137 -170h-52z" />
    <glyph glyph-name="uniF465" unicode="&#x42b;`" horiz-adv-x="828" 
d="M650 723h81v-723h-81v723zM177 723l0.000976562 -309.001h151c32 0 63 -2.83301 93 -8.5s56.5 -16.167 79.5 -31.5s41.5 -36.666 55.5 -63.999s21 -62.666 21 -105.999c0 -39.333 -6.16699 -72 -18.5 -98s-28.833 -46.833 -49.5 -62.5s-44.334 -26.834 -71.001 -33.501
s-54 -10 -82 -10h-259v723h80zM177.001 69.999l166.999 -0.000976562c20.667 0 40.334 1.83301 59.001 5.5s34.667 10.334 48 20.001s24 23 32 40s12 39.167 12 66.5c0 48 -13.5 83.667 -40.5 107s-66.167 35 -117.5 35h-160v-274zM449 959.998h87l-137 -170h-52z" />
    <glyph glyph-name="uniF466" unicode="&#x42d;`" horiz-adv-x="610" 
d="M35 520c22.667 72.667 54.6699 126.499 96.0029 161.499s97 52.5 167 52.5c45.333 0 84.666 -9.16699 117.999 -27.5s61 -43.666 83 -75.999s38.333 -70.333 49 -114s16 -90.834 16 -141.501c0 -28.667 -1.66699 -58.167 -5 -88.5s-9 -60 -17 -89
s-18.667 -56.167 -32 -81.5s-30.333 -47.666 -51 -66.999s-45.167 -34.5 -73.5 -45.5s-61.5 -16.5 -99.5 -16.5c-64.667 0 -117.834 17.667 -159.501 53s-72.5 86.333 -92.5 153l78 18c5.33301 -20 13 -39.333 23 -58s22.333 -35.167 37 -49.5
s31.834 -25.666 51.501 -33.999s42.167 -12.5 67.5 -12.5c40 0 72.333 9.33301 97 28s44 42 58 70s23.5 58.5 28.5 91.5s7.5 64.167 7.5 93.5h-263v70h261c0 28.667 -3.33301 58.167 -10 88.5s-17.334 57.666 -32.001 81.999s-33.834 44.333 -57.501 60
s-52.167 23.5 -85.5 23.5c-46 0 -85 -12.5 -117 -37.5s-54.667 -65.833 -68 -122.5zM340.003 959.999h87l-137 -170h-52z" />
    <glyph glyph-name="uniF467" unicode="&#x42e;`" horiz-adv-x="910" 
d="M97 723l79 -0.00195312v-309h126c4 50 13.5 94.833 28.5 134.5s34.5 73.334 58.5 101.001s52.333 48.834 85 63.501s68.667 22 108 22c42.667 0 81.334 -8.5 116.001 -25.5s64.334 -41.667 89.001 -74s43.667 -71.5 57 -117.5s20 -98 20 -156
s-6.66699 -110.167 -20 -156.5s-32.333 -85.5 -57 -117.5s-54.334 -56.667 -89.001 -74s-73.334 -26 -116.001 -26c-42 0 -80 8.16699 -114 24.5s-63.167 39.833 -87.5 70.5s-43.5 68 -57.5 112s-21.667 93.667 -23 149h-124v-344h-79v723zM381 361.998
c0 -98 17.667 -173.167 53 -225.5s84.666 -78.5 147.999 -78.5s112.666 26.167 147.999 78.5s53 127.5 53 225.5s-17.667 173.167 -53 225.5s-84.666 78.5 -147.999 78.5s-112.666 -26.167 -147.999 -78.5s-53 -127.5 -53 -225.5zM620 959.998h87l-137 -170h-52z" />
    <glyph glyph-name="uniF468" unicode="&#x42f;`" horiz-adv-x="646" 
d="M549 0l-80 0.000976562v316h-165l-173 -316h-96l186 321c-21.333 3.33301 -42 9.5 -62 18.5s-37.667 21.333 -53 37s-27.666 34.667 -36.999 57s-14 48.166 -14 77.499c0 39.333 7 72.5 21 99.5s32 48.833 54 65.5s46.667 28.667 74 36s54.666 11 81.999 11h263v-723z
M299 653.001c-23.333 0 -44.999 -2.00098 -64.999 -6.00098s-37.167 -11.167 -51.5 -21.5s-25.5 -24.666 -33.5 -42.999s-12 -41.5 -12 -69.5c0 -24 4.5 -44 13.5 -60s21 -29 36 -39s31.667 -17.167 50 -21.5s37.166 -6.5 56.499 -6.5h176v267h-170zM373.001 960h87
l-137 -170h-52z" />
    <glyph glyph-name="uniF46A" unicode="&#x430;`" horiz-adv-x="505" 
d="M352 71c-48.667 -52.667 -103.999 -79.001 -165.999 -79.001c-42.667 0 -77.334 13.333 -104.001 40s-40 61.334 -40 104.001c0 28.667 6.33301 54 19 76s31.834 41.5 57.501 58.5s58.167 31.833 97.5 44.5s85.666 24 138.999 34v38c0 23.333 -9.5 42.833 -28.5 58.5
s-44.5 23.5 -76.5 23.5c-28 0 -53 -6.83301 -75 -20.5s-39.667 -34.167 -53 -61.5l-63 34c38.667 74 103.667 111 195 111c55.333 0 98.333 -13.333 129 -40s46 -65 46 -115v-292c0 -27.333 3.66699 -53 11 -77v-8h-80l-8 71v0zM355.001 280.999
c-82 -16.667 -142.666 -35.834 -181.999 -57.501s-59 -51.167 -59 -88.5c0 -23.333 7.5 -42.166 22.5 -56.499s35.833 -21.5 62.5 -21.5c23.333 0 47.666 6.66699 72.999 20s53 33.333 83 60v144zM297.002 756.999h87l-137 -170h-52z" />
    <glyph glyph-name="uniF46B" unicode="&#x435;`" horiz-adv-x="481" 
d="M457 114c-20.667 -42 -48.1689 -73.001 -82.502 -93.001s-76.5 -30 -126.5 -30c-68 0 -120 22.833 -156 68.5s-54 113.167 -54 202.5c0 86.667 18.333 153.334 55 200.001s86.334 70 149.001 70c64 0 114 -22.5 150 -67.5s54 -110.167 54 -195.5v-22h-333v-17
c0 -56 13.167 -99.5 39.5 -130.5s60.5 -46.5 102.5 -46.5c32.667 0 61.834 8 87.501 24s46.167 39.333 61.5 70zM368.998 308.999c-1.33301 52 -13.332 91.833 -35.999 119.5s-52.667 41.5 -90 41.5c-38.667 0 -69.334 -13.833 -92.001 -41.5s-35 -67.5 -37 -119.5h255z
M284.999 756.999h87l-137 -170h-52z" />
    <glyph glyph-name="uniF46C" unicode="&#x438;`" horiz-adv-x="545" 
d="M152 523l-0.000976562 -315.002v-20.5c0 -5 -0.166992 -9.66699 -0.5 -14s-0.666016 -9.16602 -0.999023 -14.499s-0.833008 -12.666 -1.5 -21.999c8 18 15.833 33 23.5 45s15.5 23.667 23.5 35l197 261v45h72v-523h-72v310c0 9.33301 0.333008 21 1 35s1.66699 27 3 39
c-2.66699 -4.66699 -6.5 -12 -11.5 -22s-16.167 -26.667 -33.5 -50l-200 -262v-50h-72v523h72zM326.999 756.998h87l-137 -170h-52z" />
    <glyph glyph-name="uniF46D" unicode="&#x43e;`" horiz-adv-x="503" 
d="M34 262c0 87.333 19.167 154.166 57.5 200.499s91.833 69.5 160.5 69.5s122.167 -23.167 160.5 -69.5s57.5 -113.166 57.5 -200.499s-19.167 -154.333 -57.5 -201s-91.833 -70 -160.5 -70s-122.167 23.333 -160.5 70s-57.5 113.667 -57.5 201zM108 262
c0 -69.333 12.5 -121.667 37.5 -157s60.5 -53 106.5 -53s81.333 17.667 106 53s37 87.333 37 156c0 69.333 -12.333 121.5 -37 156.5s-60 52.5 -106 52.5s-81.5 -17.5 -106.5 -52.5s-37.5 -86.833 -37.5 -155.5zM286 756.999h87l-137 -170h-52z" />
    <glyph glyph-name="uniF46E" unicode="&#x443;`" horiz-adv-x="458" 
d="M10 523l73.9971 0.000976562l152 -418l136 418h74l-179 -532c-10 -30 -20.5 -56.5 -31.5 -79.5s-23.667 -42 -38 -57s-31.166 -26.333 -50.499 -34s-42.666 -11.5 -69.999 -11.5c-16.667 0 -32 2 -46 6v67c9.33301 -2 17.333 -3.33301 24 -4s12.334 -1 17.001 -1
c36.667 0 64.167 10.167 82.5 30.5s32.833 54.166 43.5 101.499zM284.997 757.001h87l-137 -170h-52z" />
    <glyph glyph-name="uniF46F" unicode="&#x44b;`" horiz-adv-x="685" 
d="M605 523v-523h-72v523h72zM152 523l-0.000976562 -215h148c20.667 0 40.834 -2.33301 60.501 -7s37 -12.5 52 -23.5s27 -25.833 36 -44.5s13.5 -42 13.5 -70c0 -53.333 -13.833 -93.833 -41.5 -121.5s-63.5 -41.5 -107.5 -41.5h-233v523h72zM151.999 62
l136.002 -0.00195312c13.333 0 26.166 1.66699 38.499 5s23 8.83301 32 16.5s16.167 17.834 21.5 30.501s8 28.667 8 48c0 16.667 -2.83301 30.334 -8.5 41.001s-13.334 19.167 -23.001 25.5s-20.5 10.833 -32.5 13.5s-24 4 -36 4h-136v-184zM397.001 756.998h87l-137 -170
h-52z" />
    <glyph glyph-name="uniF470" unicode="&#x44d;`" horiz-adv-x="470" 
d="M33 391c19.333 51.333 46.832 87.832 82.499 109.499s76.834 32.5 123.501 32.5c34 0 63.333 -7.16699 88 -21.5s45 -33.666 61 -57.999s27.667 -52.333 35 -84s11 -64.5 11 -98.5c0 -44 -3.33301 -83.333 -10 -118s-17.834 -64 -33.501 -88s-36.667 -42.5 -63 -55.5
s-59.166 -19.5 -98.499 -19.5c-47.333 0 -88.333 11.333 -123 34s-60.667 58.334 -78 107.001l75 23c7.33301 -34 22 -59.5 44 -76.5s49 -25.5 81 -25.5c42 0 74.5 15.167 97.5 45.5s34.5 78.166 34.5 143.499h-184v62h184c0 18 -2.16699 36.833 -6.5 56.5
s-11.333 37.667 -21 54s-22.667 30 -39 41s-36.5 16.5 -60.5 16.5c-32 0 -59 -9.16699 -81 -27.5s-37.667 -43.5 -47 -75.5zM270.999 756.999h87l-137 -170h-52z" />
    <glyph glyph-name="uniF471" unicode="&#x44e;`" horiz-adv-x="690" 
d="M443 -9c-66 0 -117.001 21.667 -153.001 65s-55.667 105.666 -59 186.999h-79v-243h-72v523h72v-218h81c6 74 26.833 130.333 62.5 169s84.834 58 147.501 58c68.667 0 121.334 -23.167 158.001 -69.5s55 -113.166 55 -200.499s-18.333 -154.333 -55 -201
s-89.334 -70 -158.001 -70zM302.999 262c0 -69.333 11.833 -121.667 35.5 -157s58.5 -53 104.5 -53s80.667 17.667 104 53s35 87.333 35 156c0 139.333 -46.333 209 -139 209c-93.333 0 -140 -69.333 -140 -208zM479.999 756.999h87l-137 -170h-52z" />
    <glyph glyph-name="uniF472" unicode="&#x44f;`" horiz-adv-x="500" 
d="M424 0l-72 -0.000976562v214h-120l-116 -214h-83l126 219c-12.667 2.66699 -25.667 7.66699 -39 15s-25.333 17 -36 29s-19.334 26.5 -26.001 43.5s-10 36.5 -10 58.5c0 28.667 4 53 12 73s18.833 36.333 32.5 49s29.834 21.834 48.501 27.501s39 8.5 61 8.5h222v-523z
M241 460.999c-17.333 0 -33.333 -1.33301 -48 -4s-27.167 -7.5 -37.5 -14.5s-18.5 -16.667 -24.5 -29s-9 -28.5 -9 -48.5c0 -34.667 10.167 -58.167 30.5 -70.5s48.5 -18.5 84.5 -18.5h115v185h-111zM298 756.999h87l-137 -170h-52z" />
    <glyph glyph-name="uniF473" unicode="&#x451;`" horiz-adv-x="481" 
d="M457 114c-20.667 -42 -48.1689 -73.001 -82.502 -93.001s-76.5 -30 -126.5 -30c-68 0 -120 22.833 -156 68.5s-54 113.167 -54 202.5c0 86.667 18.333 153.334 55 200.001s86.334 70 149.001 70c64 0 114 -22.5 150 -67.5s54 -110.167 54 -195.5v-22h-333v-17
c0 -56 13.167 -99.5 39.5 -130.5s60.5 -46.5 102.5 -46.5c32.667 0 61.834 8 87.501 24s46.167 39.333 61.5 70zM368.998 308.999c-1.33301 52 -13.332 91.833 -35.999 119.5s-52.667 41.5 -90 41.5c-38.667 0 -69.334 -13.833 -92.001 -41.5s-35 -67.5 -37 -119.5h255z
M82.999 722.999h78v-88h-78v88zM338.999 722.999h78v-88h-78v88zM256.999 756.999h87l-137 -170h-52z" />
    <glyph glyph-name="fi" unicode="fi" horiz-adv-x="506" 
d="M91 461h-87.999v62h88v74c0 90.667 40.667 136 122 136c17.333 0 38.666 -3 63.999 -9v-60c-20.667 4.66699 -38.667 7 -54 7c-40 0 -60 -22.667 -60 -68v-80h110v-62h-110v-461h-72v461zM348.001 523h74v-523h-74v523zM342.001 723h86v-88h-86v88z" />
    <glyph glyph-name="fl" unicode="fl" horiz-adv-x="506" 
d="M91 461h-87.999v62h88v74c0 90.667 40.667 136 122 136c17.333 0 38.666 -3 63.999 -9v-60c-20.667 4.66699 -38.667 7 -54 7c-40 0 -60 -22.667 -60 -68v-80h110v-62h-110v-461h-72v461zM352.001 723h73v-723h-73v723z" />
    <glyph glyph-name=".notdef" horiz-adv-x="500" 
d="M442 8v496h-384v-496h384zM50 512h400v-512h-400v512z" />
    <glyph glyph-name="space" unicode=" " horiz-adv-x="301" 
 />
    <glyph glyph-name="exclam" unicode="!" horiz-adv-x="309" 
d="M105 113h98v-113h-98v113zM107 723h94l-22 -491h-50z" />
    <glyph glyph-name="quotedbl" unicode="&#x22;" horiz-adv-x="288" 
d="M103 430h-57v270h57v-270zM242 430h-58v270h58v-270z" />
    <glyph glyph-name="numbersign" unicode="#" horiz-adv-x="769" 
d="M369 481h127l82 230h70l-80 -230h150l-21 -60h-152l-46 -133h161l-21 -60h-162l-81 -229h-71l82 229h-129l-82 -229h-70l81 229h-156l21 60h156l47 133h-167l21 60h168l82 230h71zM346 421l-46 -133h128l47 133h-129z" />
    <glyph glyph-name="dollar" unicode="$" 
d="M278 -2c-96 7.33301 -169.668 51 -221.001 131l57 43c38.667 -68.667 93.334 -107 164.001 -115v284c-68.667 21.333 -119.167 46.833 -151.5 76.5s-48.5 68.5 -48.5 116.5c0 54 17.167 97.5 51.5 130.5s83.833 51.833 148.5 56.5v66h55v-67
c43.333 -3.33301 80.833 -14.5 112.5 -33.5s59.5 -47.5 83.5 -85.5l-56 -41c-34 63.333 -80.667 97 -140 101v-263c72.667 -18 126.667 -43.5 162 -76.5s53 -76.5 53 -130.5c0 -56 -18.667 -100.833 -56 -134.5s-90.333 -53.167 -159 -58.5v-95h-55v95zM332.999 58
c44.667 2 80 14.666 106 37.999s39 53 39 89c0 34.667 -12 63.334 -36 86.001s-60.333 40.667 -109 54v-267v0zM277.999 661.999c-42 -2.66699 -74.333 -14.333 -97 -35s-34 -48 -34 -82c0 -31.333 10.667 -57 32 -77s54.333 -37.667 99 -53v247z" />
    <glyph glyph-name="percent" unicode="%" horiz-adv-x="850" 
d="M52 568c0 23.333 4.33398 45 13.001 65s20.5 37.5 35.5 52.5s32.5 26.833 52.5 35.5s41.667 13 65 13s45 -4.33301 65 -13s37.5 -20.5 52.5 -35.5s26.667 -32.5 35 -52.5s12.5 -41.667 12.5 -65s-4.33301 -45 -13 -65s-20.334 -37.5 -35.001 -52.5
s-32.167 -26.667 -52.5 -35s-41.833 -12.5 -64.5 -12.5c-23.333 0 -45 4.16699 -65 12.5s-37.5 20 -52.5 35s-26.833 32.5 -35.5 52.5s-13 41.667 -13 65zM603.001 734h55l-412 -746h-56zM115.001 568c0 -14 2.66602 -27.334 7.99902 -40.001s12.666 -23.667 21.999 -33
s20.333 -16.666 33 -21.999s26 -8 40 -8c28.667 0 52.834 9.83301 72.501 29.5s29.5 44.167 29.5 73.5s-9.66699 53.833 -29 73.5s-43.666 29.5 -72.999 29.5s-53.833 -9.83301 -73.5 -29.5s-29.5 -44.167 -29.5 -73.5zM465 153.999c0 23.333 4.16797 45 12.501 65
s20 37.5 35 52.5s32.5 26.667 52.5 35s41.667 12.5 65 12.5s45 -4.16699 65 -12.5s37.5 -20 52.5 -35s26.833 -32.5 35.5 -52.5s13 -41.667 13 -65s-4.33301 -45 -13 -65s-20.5 -37.5 -35.5 -52.5s-32.667 -26.833 -53 -35.5s-41.833 -13 -64.5 -13
c-23.333 0 -45 4.33301 -65 13s-37.333 20.5 -52 35.5s-26.334 32.5 -35.001 52.5s-13 41.667 -13 65zM528.001 153.999c0 -14 2.66699 -27.332 8 -39.999s12.5 -23.667 21.5 -33s19.833 -16.666 32.5 -21.999s26 -8 40 -8s27.333 2.66699 40 8s23.667 12.666 33 21.999
s16.666 20.166 21.999 32.499s8 25.833 8 40.5c0 29.333 -9.83301 53.666 -29.5 72.999s-44.167 29 -73.5 29s-53.666 -9.66699 -72.999 -29s-29 -43.666 -29 -72.999z" />
    <glyph glyph-name="ampersand" unicode="&#x26;" horiz-adv-x="639" 
d="M453 71c-64 -55.333 -131.665 -82.998 -202.998 -82.998c-32.667 0 -62.167 5 -88.5 15s-48.833 24.167 -67.5 42.5s-33 40.166 -43 65.499s-15 53.333 -15 84c0 46 12.833 86.833 38.5 122.5s65.5 68.5 119.5 98.5c-18 29.333 -31.667 57.666 -41 84.999s-14 55 -14 83
c0 46 13.667 82.667 41 110s63.666 41 108.999 41c46 0 81.833 -12.333 107.5 -37s38.5 -58 38.5 -100c0 -40 -12 -76.333 -36 -109s-60 -64 -108 -94c28 -46 55.333 -86.833 82 -122.5s52.667 -66.167 78 -91.5c18.667 30 33 60.167 43 90.5s17.333 60.5 22 90.5l68 -11
c-11.333 -83.333 -39 -155.333 -83 -216c33.333 -34 71.666 -53.667 114.999 -59v-78c-32 2 -61 8.83301 -87 20.5s-51.333 29.167 -76 52.5zM257.002 444.002c36 24 62.999 47.667 80.999 71s27 50 27 80c0 26 -6.66699 46.333 -20 61s-32 22 -56 22
c-23.333 0 -42.166 -8.33301 -56.499 -25s-21.5 -39 -21.5 -67c0 -38 15.333 -85.333 46 -142zM406.001 120.002c-34 32.667 -66.168 68.834 -96.501 108.501s-58.5 83.5 -84.5 131.5c-76 -49.333 -114 -103.333 -114 -162c0 -20 3.5 -38.833 10.5 -56.5
s16.833 -32.834 29.5 -45.501s27.834 -22.667 45.501 -30s37.167 -11 58.5 -11c27.333 0 53.833 5.5 79.5 16.5s49.5 27.167 71.5 48.5z" />
    <glyph glyph-name="quotesingle" unicode="'" horiz-adv-x="149" 
d="M103 430h-57v270h57v-270z" />
    <glyph glyph-name="parenleft" unicode="(" horiz-adv-x="328" 
d="M200 -81c-46.667 66.667 -81.5 133.002 -104.5 199.002s-34.5 135.667 -34.5 209s11.5 143 34.5 209s57.833 132.333 104.5 199h77c-48.667 -66.667 -84.667 -132.834 -108 -198.501s-35 -135.5 -35 -209.5s11.667 -143.833 35 -209.5s59.333 -131.834 108 -198.501h-77
v0z" />
    <glyph glyph-name="parenright" unicode=")" horiz-adv-x="328" 
d="M51 -81c48.667 66.667 84.667 132.832 108 198.499s35 135.5 35 209.5s-11.667 143.833 -35 209.5s-59.333 131.834 -108 198.501h77c46.667 -66.667 81.5 -133 104.5 -199s34.5 -135.667 34.5 -209s-11.5 -143 -34.5 -209s-57.833 -132.333 -104.5 -199h-77v0z" />
    <glyph glyph-name="asterisk" unicode="*" horiz-adv-x="500" 
d="M166 344l-63 47l111 123l-161 37l23 73l152 -68l-12 167h68l-12 -167l152 68l23 -73l-161 -37l111 -123l-63 -47l-84 144z" />
    <glyph glyph-name="plus" unicode="+" horiz-adv-x="833" 
d="M446 327h263v-57h-263v-270h-58v270h-264v57h264v269h58v-269z" />
    <glyph glyph-name="comma" unicode="," horiz-adv-x="301" 
d="M150 7h-42v104h97v-117l-61 -145l-49 2z" />
    <glyph glyph-name="hyphen" unicode="-" horiz-adv-x="330" 
d="M41 295h244v-67h-244v67z" />
    <glyph glyph-name="period" unicode="." horiz-adv-x="301" 
d="M102 110h97v-110h-97v110z" />
    <glyph glyph-name="slash" unicode="/" horiz-adv-x="272" 
d="M17 -93h-58l268 828h59z" />
    <glyph glyph-name="zero" unicode="0" 
d="M50 361c0 123.333 21.5 216.333 64.5 279s105.167 94 186.5 94s143.5 -31.333 186.5 -94s64.5 -155.667 64.5 -279s-21.5 -216.333 -64.5 -279s-105.167 -94 -186.5 -94s-143.5 31.333 -186.5 94s-64.5 155.667 -64.5 279zM126 361c0 -205.333 58.333 -308 175 -308
c116 0 174 102.667 174 308s-58 308 -174 308c-56.667 0 -100 -25.667 -130 -77s-45 -128.333 -45 -231z" />
    <glyph glyph-name="one" unicode="1" 
d="M340 65h119.001v-65h-312v65h122v584l-134 -15v50c30 8 57.167 16.167 81.5 24.5s46.166 16.833 65.499 25.5h58v-669z" />
    <glyph glyph-name="two" unicode="2" 
d="M50 68c16.667 38 38.167 73.499 64.5 106.499s57.833 65.5 94.5 97.5c29.333 25.333 58.5 47.833 87.5 67.5s53.833 40.167 74.5 61.5c22 23.333 38.667 45.833 50 67.5s17 44.167 17 67.5c0 42 -12.333 75 -37 99s-58.334 36 -101.001 36
c-44 0 -80.667 -13.333 -110 -40s-49.333 -65 -60 -115l-70 15c14.667 66.667 42.334 117.167 83.001 151.5s93.667 51.5 159 51.5c66.667 0 118.834 -17.5 156.501 -52.5s56.5 -82.5 56.5 -142.5c0 -49.333 -12.667 -91.666 -38 -126.999
c-22.667 -32 -50.834 -60.667 -84.501 -86l-108.5 -82c-82 -62 -135.333 -121 -160 -177h392v-67h-466v68z" />
    <glyph glyph-name="three" unicode="3" 
d="M96 175c45.333 -81.333 108.996 -122 190.996 -122c50.667 0 90.167 12.667 118.5 38s42.5 61 42.5 107c0 103.333 -69.667 155 -209 155h-20.5c-9 0 -20.5 -0.666992 -34.5 -2v69c11.333 -0.666992 21.333 -1.16699 30 -1.5s16.667 -0.5 24 -0.5
c62.667 0 109.834 11.833 141.501 35.5s47.5 57.834 47.5 102.501c0 35.333 -11.833 63.166 -35.5 83.499s-56.5 30.5 -98.5 30.5c-34.667 0 -65.334 -8.16699 -92.001 -24.5s-51.667 -41.5 -75 -75.5l-57 43c58.667 80.667 134.334 121 227.001 121
c32 0 60.833 -4.16699 86.5 -12.5s47.334 -20.166 65.001 -35.499s31.334 -33.833 41.001 -55.5s14.5 -45.5 14.5 -71.5c0 -81.333 -37 -137.666 -111 -168.999c89.333 -34.667 134 -96.334 134 -185.001c0 -32.667 -5.5 -62.334 -16.5 -89.001s-26.667 -49.5 -47 -68.5
s-45 -33.667 -74 -44s-61.833 -15.5 -98.5 -15.5c-115.333 0 -200.666 48 -255.999 144z" />
    <glyph glyph-name="four" unicode="4" 
d="M366 656l-246 -423h246v423zM437 233h119v-62h-119v-183h-71v183h-325v51l293 500h103v-489z" />
    <glyph glyph-name="five" unicode="5" 
d="M134 167c40.667 -77.333 95.998 -115.999 165.998 -115.999c52 0 93.333 17.5 124 52.5s46 83.833 46 146.5c0 26.667 -3.83301 51 -11.5 73s-18.5 40.833 -32.5 56.5s-30.833 27.667 -50.5 36s-41.167 12.5 -64.5 12.5c-36 0 -66.833 -9.66699 -92.5 -29
s-44.5 -47 -56.5 -83l-65 16l31 390h370v-67h-308l-19 -227c22 22.667 44.667 38.834 68 48.501s51 14.5 83 14.5c32.667 0 62.834 -5.66699 90.501 -17s51.5 -27.5 71.5 -48.5s35.5 -46.667 46.5 -77s16.5 -64.166 16.5 -101.499c0 -38.667 -6 -73.834 -18 -105.501
s-28.667 -58.834 -50 -81.501s-47.166 -40.334 -77.499 -53.001s-63.5 -19 -99.5 -19c-110.667 0 -188.667 47 -234 141z" />
    <glyph glyph-name="six" unicode="6" 
d="M140 364c52.667 62 114.668 93.001 186.001 93.001c32.667 0 62.834 -5.5 90.501 -16.5s51.167 -26.833 70.5 -47.5s34.5 -45.667 45.5 -75s16.5 -62.333 16.5 -99c0 -34 -5.83301 -65 -17.5 -93s-28 -52.167 -49 -72.5s-46 -36.166 -75 -47.499s-61.167 -17 -96.5 -17
c-83.333 0 -146 28 -188 84s-63 140 -63 252c0 64 6.83301 121.167 20.5 171.5s33.167 93 58.5 128s55.666 61.833 90.999 80.5s74.666 28 117.999 28c30 0 58.167 -3.33301 84.5 -10s52.833 -17.334 79.5 -32.001l-32 -62c-17.333 12 -36.666 21.167 -57.999 27.5
s-45.333 9.5 -72 9.5c-31.333 0 -59.833 -6.83301 -85.5 -20.5s-47.834 -33.334 -66.501 -59.001s-33 -57.167 -43 -94.5s-15 -80 -15 -128zM139.001 256.001c2.66699 -64.667 19.667 -114.667 51 -150s72 -53 122 -53c22.667 0 43.667 4.16699 63 12.5s36.166 20 50.499 35
s25.5 32.833 33.5 53.5s12 43 12 67c0 53.333 -14 95.333 -42 126s-65.333 46 -112 46c-37.333 0 -71.166 -11.5 -101.499 -34.5s-55.833 -57.167 -76.5 -102.5z" />
    <glyph glyph-name="seven" unicode="7" 
d="M443 655h-370v67h453v-48l-306 -686h-83z" />
    <glyph glyph-name="eight" unicode="8" 
d="M207 383c-87.333 33.333 -130.999 89.667 -130.999 169c0 26.667 5.16699 51.167 15.5 73.5s25.166 41.5 44.499 57.5s42.833 28.5 70.5 37.5s58.834 13.5 93.501 13.5c36 0 68.333 -4.33301 97 -13s53 -20.834 73 -36.501s35.167 -34.5 45.5 -56.5
s15.5 -46.333 15.5 -73c0 -79.333 -43.667 -135.666 -131 -168.999c54 -21.333 93.667 -48.5 119 -81.5s38 -73.833 38 -122.5c0 -60.667 -22.333 -108.167 -67 -142.5s-108.334 -51.5 -191.001 -51.5c-78.667 0 -140 17.667 -184 53s-66 84 -66 146
c0 43.333 13.333 82 40 116s66 60.667 118 80zM309.001 417.001c50.667 16.667 87.666 35.333 110.999 56s35 48.667 35 84s-13.833 63.5 -41.5 84.5s-65.834 31.5 -114.501 31.5c-22.667 0 -43.167 -3 -61.5 -9s-34.166 -14 -47.499 -24s-23.666 -22 -30.999 -36
s-11 -29 -11 -45c0 -31.333 13.167 -58.5 39.5 -81.5s66.833 -43.167 121.5 -60.5zM289 352c-55.333 -21.333 -96.502 -45.168 -123.502 -71.501s-40.5 -57.833 -40.5 -94.5c0 -18.667 4.16699 -36 12.5 -52s20 -30 35 -42s33.167 -21.333 54.5 -28s45 -10 71 -10
c58.667 0 103.834 11.833 135.501 35.5s47.5 55.834 47.5 96.501c0 40 -15.667 72.167 -47 96.5s-79.666 47.5 -144.999 69.5z" />
    <glyph glyph-name="nine" unicode="9" 
d="M466 358c-53.333 -62 -115.335 -92.9971 -186.002 -92.9971c-33.333 0 -63.666 5.5 -90.999 16.5s-50.666 26.833 -69.999 47.5s-34.333 45.667 -45 75s-16 62.333 -16 99c0 33.333 5.83301 64.166 17.5 92.499s27.834 52.666 48.501 72.999s45.5 36.166 74.5 47.499
s61.167 17 96.5 17c83.333 0 146.166 -28 188.499 -84s63.5 -140 63.5 -252c0 -64 -7 -121.333 -21 -172s-33.833 -93.5 -59.5 -128.5s-56.5 -61.833 -92.5 -80.5s-76 -28 -120 -28c-66 0 -119.333 14.333 -160 43l32 62c17.333 -12 36.666 -21.333 57.999 -28
s45.333 -10 72 -10c31.333 0 59.833 6.83301 85.5 20.5s47.834 33.5 66.501 59.5s33 57.667 43 95s15 80 15 128zM466.998 466.003c-2.66699 64.667 -19.668 114.667 -51.001 150s-72 53 -122 53c-22.667 0 -43.667 -4.16699 -63 -12.5s-36.166 -20 -50.499 -35
s-25.5 -32.833 -33.5 -53.5s-12 -43 -12 -67c0 -53.333 14.167 -95.333 42.5 -126s65.833 -46 112.5 -46c37.333 0 71 11.5 101 34.5s55.333 57.167 76 102.5z" />
    <glyph glyph-name="colon" unicode=":" horiz-adv-x="309" 
d="M106 399h97v-110h-97v110zM106 110h97v-110h-97v110z" />
    <glyph glyph-name="semicolon" unicode=";" horiz-adv-x="309" 
d="M114 399h95v-110h-95v110zM154 7h-42v104h97v-117l-61 -145l-49 2z" />
    <glyph glyph-name="less" unicode="&#x3c;" horiz-adv-x="833" 
d="M216 298l488 -198v-63l-575 236v50l575 236v-62z" />
    <glyph glyph-name="equal" unicode="=" horiz-adv-x="833" 
d="M709 363h-585v57h585v-57zM709 176h-585v57h585v-57z" />
    <glyph glyph-name="greater" unicode="&#x3e;" horiz-adv-x="833" 
d="M704 273l-575 -236v63l488 198l-488 199v62l575 -236v-50z" />
    <glyph glyph-name="question" unicode="?" horiz-adv-x="439" 
d="M151 230c-0.666992 6 -1.00195 11.666 -1.00195 16.999v16c0 29.333 3.16699 54.5 9.5 75.5s18.166 42.5 35.499 64.5l38.5 49c12.333 15.333 23.333 30.166 33 44.499s17.334 28.833 23.001 43.5s8.5 30 8.5 46c0 25.333 -7.66699 45.833 -23 61.5s-35 23.5 -59 23.5
c-22.667 0 -41.5 -6.33301 -56.5 -19s-28.5 -33 -40.5 -61l-63 33c34.667 74 89.334 111 164.001 111c48 0 86.167 -13.833 114.5 -41.5s42.5 -65.5 42.5 -113.5c0 -23.333 -4.16699 -45.666 -12.5 -66.999s-21.166 -43 -38.499 -65
c-15.333 -19.333 -30.333 -36.666 -45 -51.999s-27 -30.333 -37 -45c-10.667 -15.333 -17.667 -30.333 -21 -45s-5 -31.667 -5 -51c0 -4 0.166992 -8 0.5 -12s0.5 -8.33301 0.5 -13h-68v0zM133.998 109.999h96v-110h-96v110z" />
    <glyph glyph-name="at" unicode="@" horiz-adv-x="1000" 
d="M616 349c-5.33301 30 -17.001 53 -35.001 69s-40 24 -66 24c-24 0 -46.167 -5.83301 -66.5 -17.5s-38 -27.5 -53 -47.5s-26.667 -43.667 -35 -71s-12.5 -56.666 -12.5 -87.999c0 -36 8.33301 -63.667 25 -83s40.334 -29 71.001 -29c16 0 31.667 3 47 9
s29.333 14.333 42 25s23.667 23.667 33 39s16.333 32.666 21 51.999zM658.999 471l54.001 0.000976562l-69 -277c-4 -16 -6 -29 -6 -39c0 -29.333 18 -44 54 -44c13.333 0 28.833 3.5 46.5 10.5s35.167 17.833 52.5 32.5c28 24 50.5 55.333 67.5 94s25.5 80.667 25.5 126
c0 42.667 -8.16699 81.667 -24.5 117s-39.666 65.666 -69.999 90.999s-67 45 -110 59s-91.167 21 -144.5 21c-110 0 -203 -33.333 -279 -100c-46 -40 -80.5 -86.167 -103.5 -138.5s-34.5 -109.833 -34.5 -172.5c0 -56.667 9.66699 -106.167 29 -148.5s50 -79.833 92 -112.5
c32 -25.333 70.5 -45.333 115.5 -60s93.5 -22 145.5 -22c56 0 110.333 7.83301 163 23.5s101 38.5 145 68.5l22 -32c-96 -72 -203.333 -108 -322 -108c-125.333 0 -227 30 -305 90c-98.667 76 -148 177.667 -148 305c0 54 8.33301 104.5 25 151.5s41 90.5 73 130.5
c47.333 57.333 103.833 100.833 169.5 130.5s139.834 44.5 222.501 44.5c55.333 0 106.5 -7.33301 153.5 -22s86.833 -34.667 119.5 -60c42 -32.667 73.833 -70.167 95.5 -112.5s32.5 -88.166 32.5 -137.499c0 -56.667 -10.333 -107.334 -31 -152.001
s-50.334 -82.667 -89.001 -114c-46 -36.667 -96.667 -55 -152 -55c-64.667 0 -97 25.333 -97 76c0 1.33301 0.166992 3 0.5 5s0.5 4 0.5 6c-16.667 -28.667 -37.334 -50.334 -62.001 -65.001s-52.334 -22 -83.001 -22c-50 0 -88 13.833 -114 41.5s-39 67.834 -39 120.501
c0 38 6 73.333 18 106s28.5 61 49.5 85s45.333 42.833 73 56.5s57.167 20.5 88.5 20.5c59.333 0 100 -25.667 122 -77z" />
    <glyph glyph-name="A" unicode="A" 
d="M240 723h122l222 -723h-84l-65 225h-269l-64 -225h-85zM413 292l-108 377h-11l-109 -377h228z" />
    <glyph glyph-name="B" unicode="B" horiz-adv-x="641" 
d="M97 723l196 -0.000976562c94.667 0 165 -13.833 211 -41.5s69 -74.5 69 -140.5c0 -77.333 -39.333 -130.666 -118 -159.999c43.333 -16.667 77.333 -40.5 102 -71.5s37 -69.167 37 -114.5c0 -130 -92.333 -195 -277 -195h-220v723zM176 657.999l-0.000976562 -245.001
h154c52.667 0 92.834 11 120.501 33s41.5 53.667 41.5 95c0 40.667 -15 70.334 -45 89.001s-76.333 28 -139 28h-132zM175.999 345.998v-277h149c64.667 0 112 10.667 142 32s45 56 45 104c0 46 -15.667 81 -47 105s-78 36 -140 36h-149z" />
    <glyph glyph-name="C" unicode="C" horiz-adv-x="604" 
d="M579 217c-34.667 -152.667 -119.664 -229 -254.997 -229c-88.667 0 -157.167 32 -205.5 96s-72.5 156.667 -72.5 278c0 59.333 6.5 112.166 19.5 158.499s31.333 85.333 55 117s52.167 55.834 85.5 72.501s70.666 25 111.999 25c134.667 0 217.667 -72 249 -216l-75 -19
c-11.333 54.667 -31.333 96.167 -60 124.5s-64.334 42.5 -107.001 42.5c-62.667 0 -111.334 -26 -146.001 -78s-52 -128.667 -52 -230c0 -98.667 17.667 -173.667 53 -225s84.333 -77 147 -77c47.333 0 86.5 15 117.5 45s51.5 73.667 61.5 131l73 -16v0z" />
    <glyph glyph-name="D" unicode="D" horiz-adv-x="678" 
d="M97 723l171.999 0.000976562c48.667 0 91.334 -3.83301 128.001 -11.5s70 -22.834 100 -45.501c40 -30 70.833 -70.833 92.5 -122.5s32.5 -112.167 32.5 -181.5c0 -241.333 -123.667 -362 -371 -362h-154v723zM175.999 656.001l0.000976562 -585h64
c46 0 86.167 3.16699 120.5 9.5s64.166 19.833 89.499 40.5c30 23.333 53.167 55.333 69.5 96s24.5 88.667 24.5 144c0 116 -31.667 198.667 -95 248c-27.333 20.667 -57 33.667 -89 39s-68.333 8 -109 8h-75z" />
    <glyph glyph-name="E" unicode="E" horiz-adv-x="571" 
d="M97 723h427v-68h-347v-241h246v-68h-246v-277h364v-69h-444v723z" />
    <glyph glyph-name="F" unicode="F" horiz-adv-x="537" 
d="M97 723h424v-68h-344v-241h255v-68h-255v-346h-80v723z" />
    <glyph glyph-name="G" unicode="G" horiz-adv-x="660" 
d="M519 79c-44 -60.667 -107.666 -90.999 -190.999 -90.999c-43.333 0 -82.333 8.33301 -117 25s-64.334 41 -89.001 73s-43.667 70.833 -57 116.5s-20 97.5 -20 155.5c0 121.333 25.167 214.5 75.5 279.5s120.5 97.5 210.5 97.5c127.333 0 211 -70.667 251 -212l-82 -16
c-28 106 -85.333 159 -172 159c-64 0 -113.5 -25.667 -148.5 -77s-52.5 -126.333 -52.5 -225c0 -99.333 18.333 -175.333 55 -228s87 -79 151 -79c52.667 0 95 15.167 127 45.5s48 73.166 48 128.499v51h-167v69h250v-351h-69z" />
    <glyph glyph-name="H" unicode="H" horiz-adv-x="715" 
d="M97 723h79v-309h363v309h79v-723h-79v344h-363v-344h-79v723z" />
    <glyph glyph-name="I" unicode="I" horiz-adv-x="285" 
d="M102 723h81v-723h-81v723z" />
    <glyph glyph-name="J" unicode="J" horiz-adv-x="439" 
d="M66 126c15.333 -24.667 30.833 -42.502 46.5 -53.502s35.167 -16.5 58.5 -16.5c38 0 63.333 11.833 76 35.5s19 59.834 19 108.501v523h78v-531c0 -67.333 -14.667 -118.166 -44 -152.499s-72.333 -51.5 -129 -51.5c-37.333 0 -69.333 7.33301 -96 22
s-50.667 38.667 -72 72z" />
    <glyph glyph-name="K" unicode="K" horiz-adv-x="623" 
d="M102 723h79v-381l305 381h88l-226 -278l258 -445h-93l-217 383l-115 -140v-243h-79v723z" />
    <glyph glyph-name="L" unicode="L" horiz-adv-x="521" 
d="M102 723h82v-654h323v-69h-405v723z" />
    <glyph glyph-name="M" unicode="M" horiz-adv-x="838" 
d="M97 723h123l202 -611l203 611h116v-723h-77v637l-218 -637h-54l-218 637v-637h-77v723z" />
    <glyph glyph-name="N" unicode="N" horiz-adv-x="715" 
d="M97 723h114l332 -564v564h75v-723h-62l-384 640v-640h-75v723z" />
    <glyph glyph-name="O" unicode="O" horiz-adv-x="664" 
d="M46 362c0 58 6.83301 110.001 20.5 156.001s33 85 58 117s55.167 56.667 90.5 74s74.333 26 117 26s81.667 -8.5 117 -25.5s65.5 -41.667 90.5 -74s44.333 -71.5 58 -117.5s20.5 -98 20.5 -156s-6.83301 -110.167 -20.5 -156.5s-33 -85.5 -58 -117.5
s-55.167 -56.667 -90.5 -74s-74.333 -26 -117 -26s-81.667 8.66699 -117 26s-65.5 42.166 -90.5 74.499s-44.333 71.5 -58 117.5s-20.5 98 -20.5 156zM127 362.001c0 -98 18.333 -173.167 55 -225.5s86.667 -78.5 150 -78.5s113.333 26.167 150 78.5s55 127.5 55 225.5
s-18.333 173.167 -55 225.5s-86.667 78.5 -150 78.5s-113.333 -26.167 -150 -78.5s-55 -127.5 -55 -225.5z" />
    <glyph glyph-name="P" unicode="P" 
d="M97 723h210c86 0 149.667 -15.667 191 -47s62 -81.333 62 -150c0 -64.667 -20 -114.667 -60 -150s-96.667 -53 -170 -53h-155v-323h-78v723zM298 391c31.333 0 58.332 2.33203 80.999 6.99902s41.334 12.334 56.001 23.001s25.5 24.667 32.5 42s10.5 38.666 10.5 63.999
c0 48.667 -15 82.334 -45 101.001s-77 28 -141 28h-117v-265h123z" />
    <glyph glyph-name="Q" unicode="Q" horiz-adv-x="664" 
d="M482 33c-23.333 -15.333 -47.167 -26.667 -71.5 -34s-50.5 -11 -78.5 -11c-42.667 0 -81.667 8.66699 -117 26s-65.5 42 -90.5 74s-44.333 71.167 -58 117.5s-20.5 98.5 -20.5 156.5s6.83301 110 20.5 156s33 85.167 58 117.5s55.167 57 90.5 74s74.333 25.5 117 25.5
s81.667 -8.5 117 -25.5s65.5 -41.667 90.5 -74s44.333 -71.5 58 -117.5s20.5 -98 20.5 -156c0 -113.333 -27.333 -205.333 -82 -276c25.333 -41.333 59 -63 101 -65v-80h-3c-32 0 -60.333 7.5 -85 22.5s-47 38.167 -67 69.5zM442.999 92.999
c-24.667 40 -53.668 61 -87.001 63v77c26.667 0 50.834 -6.5 72.501 -19.5s42.5 -33.167 62.5 -60.5c30.667 52 46 119.333 46 202c0 101.333 -18 178.5 -54 231.5s-86.333 79.5 -151 79.5c-63.333 0 -113.333 -26.167 -150 -78.5s-55 -127.5 -55 -225.5
s18.333 -173.167 55 -225.5s86.667 -78.5 150 -78.5c21.333 0 41 2.66699 59 8s35.333 14.333 52 27z" />
    <glyph glyph-name="R" unicode="R" horiz-adv-x="654" 
d="M97 723l203 0.000976562c98 0 170.667 -14.5 218 -43.5s71 -78.167 71 -147.5c0 -94.667 -50 -156.334 -150 -185.001l170 -347h-88l-159 328h-186v-328h-79v723zM176 656.001v-261.001h121c72.667 0 126 9.83301 160 29.5s51 53.167 51 100.5c0 26.667 -4 48.5 -12 65.5
s-20.5 30.333 -37.5 40s-38.667 16.334 -65 20.001s-57.5 5.5 -93.5 5.5h-124z" />
    <glyph glyph-name="S" unicode="S" horiz-adv-x="560" 
d="M110 206c13.333 -46.667 35.6729 -83.166 67.0059 -109.499s67.666 -39.5 108.999 -39.5c46.667 0 83.5 11.5 110.5 34.5s40.5 53.5 40.5 91.5c0 44.667 -16.333 78 -49 100c-23.333 16 -49.333 29 -78 39l-90 33c-28 10.667 -52.333 22.167 -73 34.5
s-38 25.833 -52 40.5s-24.333 31.167 -31 49.5s-10 39.166 -10 62.499c0 28.667 5 55 15 79s24.167 44.333 42.5 61s40.666 29.667 66.999 39s55.5 14 87.5 14c56.667 0 104.167 -15 142.5 -45s66.166 -74 83.499 -132l-72 -21c-12 43.333 -31.833 76 -59.5 98
s-61.834 33 -102.501 33c-39.333 0 -70.333 -10.667 -93 -32s-34 -50 -34 -86c0 -33.333 15.667 -62.666 47 -87.999c15.333 -12 36.166 -22.667 62.499 -32l91.5 -34c30.667 -12 57.5 -24.333 80.5 -37s42 -27 57 -43s26.167 -34.333 33.5 -55s11 -45 11 -73
c0 -30 -5.16699 -57.167 -15.5 -81.5s-25.333 -45.333 -45 -63s-43.334 -31.334 -71.001 -41.001s-58.5 -14.5 -92.5 -14.5c-130.667 0 -216 64.333 -256 193z" />
    <glyph glyph-name="T" unicode="T" horiz-adv-x="549" 
d="M233 654h-211v69h504v-69h-211v-654h-82v654z" />
    <glyph glyph-name="U" unicode="U" horiz-adv-x="711" 
d="M174 723l-0.000976562 -465.999c0 -22.667 0.833008 -43.667 2.5 -63s7.16699 -37.666 16.5 -54.999c13.333 -25.333 33.833 -45.333 61.5 -60s61.167 -22 100.5 -22c40 0 73.833 7.33301 101.5 22s48.167 34.667 61.5 60c9.33301 19.333 14.833 39.666 16.5 60.999
s2.5 44.666 2.5 69.999v453h79v-479c0 -84.667 -22.167 -148.5 -66.5 -191.5s-109.166 -64.5 -194.499 -64.5c-86 0 -150.833 21.333 -194.5 64s-65.5 106.667 -65.5 192v479h79z" />
    <glyph glyph-name="V" unicode="V" horiz-adv-x="590" 
d="M15 723h82l195 -586h6l196 586h81l-246 -723h-70z" />
    <glyph glyph-name="W" unicode="W" horiz-adv-x="911" 
d="M22 723h81l154 -542h5l157 542h73l157 -542h5l154 542h80l-210 -723h-52l-171 587l-170 -587h-52z" />
    <glyph glyph-name="X" unicode="X" horiz-adv-x="548" 
d="M230 385l-200 338h92l153 -269l148 269h92l-195 -338l220 -385h-93l-172 314l-176 -314h-91z" />
    <glyph glyph-name="Y" unicode="Y" horiz-adv-x="549" 
d="M235 305l-220 418h87l172 -334l173 334h87l-220 -418v-305h-79v305z" />
    <glyph glyph-name="Z" unicode="Z" horiz-adv-x="546" 
d="M39 53l366 603h-331v67h426v-51l-366 -603h363v-69h-458v53z" />
    <glyph glyph-name="bracketleft" unicode="[" horiz-adv-x="326" 
d="M75 723h200v-44h-128v-706h128v-44h-200v794z" />
    <glyph glyph-name="backslash" unicode="\" horiz-adv-x="272" 
d="M-14 735h58l269 -828h-58z" />
    <glyph glyph-name="bracketright" unicode="]" horiz-adv-x="326" 
d="M50 -27h129v706h-129v44h201v-794h-201v44z" />
    <glyph glyph-name="asciicircum" unicode="^" horiz-adv-x="1000" 
d="M793 440h-77l-216 214l-216 -214h-78l254 272h79z" />
    <glyph glyph-name="underscore" unicode="_" horiz-adv-x="500" 
d="M500 -236h-500v58h500v-58z" />
    <glyph glyph-name="grave" unicode="`" horiz-adv-x="500" 
d="M265 587l-137 170h87l102 -170h-52z" />
    <glyph glyph-name="a" unicode="a" horiz-adv-x="505" 
d="M352 71c-48.667 -52.667 -103.999 -79.001 -165.999 -79.001c-42.667 0 -77.334 13.333 -104.001 40s-40 61.334 -40 104.001c0 28.667 6.33301 54 19 76s31.834 41.5 57.501 58.5s58.167 31.833 97.5 44.5s85.666 24 138.999 34v38c0 23.333 -9.5 42.833 -28.5 58.5
s-44.5 23.5 -76.5 23.5c-28 0 -53 -6.83301 -75 -20.5s-39.667 -34.167 -53 -61.5l-63 34c38.667 74 103.667 111 195 111c55.333 0 98.333 -13.333 129 -40s46 -65 46 -115v-292c0 -27.333 3.66699 -53 11 -77v-8h-80l-8 71v0zM355.001 280.999
c-82 -16.667 -142.666 -35.834 -181.999 -57.501s-59 -51.167 -59 -88.5c0 -23.333 7.5 -42.166 22.5 -56.499s35.833 -21.5 62.5 -21.5c23.333 0 47.666 6.66699 72.999 20s53 33.333 83 60v144z" />
    <glyph glyph-name="b" unicode="b" horiz-adv-x="538" 
d="M76 0c2.66699 28.667 4.50098 56.833 5.50098 84.5s1.5 54.834 1.5 81.501v557h72v-262c32 47.333 76.333 71 133 71c67.333 0 119.666 -23.333 156.999 -70s56 -114.334 56 -203.001c0 -87.333 -18.5 -153.833 -55.5 -199.5s-89.833 -68.5 -158.5 -68.5
c-60 0 -106 24 -138 72l-17 -63h-56v0zM155.001 130.999c18.667 -27.333 39 -47.501 61 -60.501s47 -19.5 75 -19.5c42 0 75 17.333 99 52s36 85.334 36 152.001c0 143.333 -47.667 215 -143 215c-53.333 0 -96 -26 -128 -78v-261v0z" />
    <glyph glyph-name="c" unicode="c" horiz-adv-x="469" 
d="M446 126c-42.667 -90 -108.996 -135.002 -198.996 -135.002c-68.667 0 -120.834 22.833 -156.501 68.5s-53.5 113.167 -53.5 202.5c0 86.667 18.667 153.5 56 200.5s88.666 70.5 153.999 70.5c45.333 0 84.333 -12.167 117 -36.5s56.667 -59.166 72 -104.499l-72 -23
c-10.667 33.333 -26.334 58.5 -47.001 75.5s-44.667 25.5 -72 25.5c-42.667 0 -75.667 -17.5 -99 -52.5s-35 -86.833 -35 -155.5c0 -70 11.667 -122.333 35 -157s57.666 -52 102.999 -52c27.333 0 52.833 8.83301 76.5 26.5s43.5 43.834 59.5 78.501l61 -32v0z" />
    <glyph glyph-name="d" unicode="d" horiz-adv-x="538" 
d="M456 163c0 -27.333 0.333008 -54.333 1 -81s2.66699 -54 6 -82h-56l-17 66c-19.333 -26 -40.5 -44.833 -63.5 -56.5s-50.5 -17.5 -82.5 -17.5c-64.667 0 -115.167 23.5 -151.5 70.5s-54.5 114.167 -54.5 201.5s18.333 153.833 55 199.5s88.334 68.5 155.001 68.5
c61.333 0 106.666 -23 135.999 -69v260h72v-560zM384 392c-18.667 27.333 -39 47.5 -61 60.5s-47 19.5 -75 19.5c-42 0 -75 -17.167 -99 -51.5s-36 -84.833 -36 -151.5c0 -144 47.667 -216 143 -216c53.333 0 96 26 128 78v261v0z" />
    <glyph glyph-name="e" unicode="e" horiz-adv-x="481" 
d="M457 114c-20.667 -42 -48.1689 -73.001 -82.502 -93.001s-76.5 -30 -126.5 -30c-68 0 -120 22.833 -156 68.5s-54 113.167 -54 202.5c0 86.667 18.333 153.334 55 200.001s86.334 70 149.001 70c64 0 114 -22.5 150 -67.5s54 -110.167 54 -195.5v-22h-333v-17
c0 -56 13.167 -99.5 39.5 -130.5s60.5 -46.5 102.5 -46.5c32.667 0 61.834 8 87.501 24s46.167 39.333 61.5 70zM368.998 308.999c-1.33301 52 -13.332 91.833 -35.999 119.5s-52.667 41.5 -90 41.5c-38.667 0 -69.334 -13.833 -92.001 -41.5s-35 -67.5 -37 -119.5h255z" />
    <glyph glyph-name="f" unicode="f" horiz-adv-x="278" 
d="M91 461h-87.999v62h88v74c0 90.667 40.667 136 122 136c17.333 0 38.666 -3 63.999 -9v-60c-20.667 4.66699 -38.667 7 -54 7c-40 0 -60 -22.667 -60 -68v-80h110v-62h-110v-461h-72v461z" />
    <glyph glyph-name="g" unicode="g" horiz-adv-x="486" 
d="M110 42c-42 14.667 -63.001 40.998 -63.001 78.998c0 18.667 5.83301 34.5 17.5 47.5s29.167 26.167 52.5 39.5c-44 32 -66 79.333 -66 142c0 56.667 17 101.334 51 134.001s81.333 49 142 49c48.667 0 89.667 -13 123 -39c17.333 15.333 33.5 26.833 48.5 34.5
s30.833 11.5 47.5 11.5h13v-68h-15c-15.333 0 -28 -1 -38 -3s-17.667 -6.33301 -23 -13c10.667 -15.333 18.167 -31.333 22.5 -48s6.5 -35 6.5 -55c0 -56 -16.833 -100.167 -50.5 -132.5s-79.834 -48.5 -138.501 -48.5c-24.667 0 -50.667 3.66699 -78 11
c-14.667 -5.33301 -25.667 -12.166 -33 -20.499s-11 -17.166 -11 -26.499c0 -10 3.16699 -17.5 9.5 -22.5s15.833 -8.83301 28.5 -11.5s28.334 -4.5 47.001 -5.5s40.334 -2.5 65.001 -4.5c34.667 -3.33301 65 -7.83301 91 -13.5s47.5 -13.667 64.5 -24
s29.667 -23.833 38 -40.5s12.5 -37.667 12.5 -63c0 -46 -19.667 -81 -59 -105s-98.333 -36 -177 -36c-143.333 0 -215 42.333 -215 127c0 25.333 7 46.166 21 62.499s36 30.5 66 42.5zM118.999 356.998c0 -40 10.5 -70.999 31.5 -92.999s51.167 -33 90.5 -33
c38 0 67.5 10.667 88.5 32s31.5 50.666 31.5 87.999c0 38 -11 68.167 -33 90.5s-52.333 33.5 -91 33.5c-36 0 -64.667 -10.667 -86 -32s-32 -50 -32 -86zM92.999 -52.001c0 -52.667 48 -79 144 -79c110.667 0 166 26.333 166 79c0 51.333 -55.667 77 -167 77
c-46.667 0 -82.167 -6.83301 -106.5 -20.5s-36.5 -32.5 -36.5 -56.5z" />
    <glyph glyph-name="h" unicode="h" horiz-adv-x="550" 
d="M82 723h72v-277c28.667 30 56.834 51.833 84.501 65.5s58.5 20.5 92.5 20.5c45.333 0 80.166 -12.5 104.499 -37.5s36.5 -60.833 36.5 -107.5v-387h-71v360c0 38 -6.5 65.667 -19.5 83s-36.167 26 -69.5 26c-55.333 0 -108 -26.333 -158 -79v-390h-72v723z" />
    <glyph glyph-name="i" unicode="i" horiz-adv-x="248" 
d="M87 523h74v-523h-74v523zM81 723h86v-88h-86v88z" />
    <glyph glyph-name="j" unicode="j" horiz-adv-x="251" 
d="M0 -121c11.333 -2.66699 24.332 -3.99805 38.999 -3.99805c20 0 33.5 5.16699 40.5 15.5s10.5 27.166 10.5 50.499v582h74v-565c0 -24.667 -1.33301 -46.334 -4 -65.001s-8.33398 -34.167 -17.001 -46.5s-20.667 -21.5 -36 -27.5s-35.666 -9 -60.999 -9
c-17.333 0 -32.666 2.33301 -45.999 7v62v0zM83.999 723.002h87v-88h-87v88z" />
    <glyph glyph-name="k" unicode="k" horiz-adv-x="491" 
d="M82 723h73v-467l232 267h80l-168 -190l186 -333h-80l-155 277l-95 -105v-172h-73v723z" />
    <glyph glyph-name="l" unicode="l" horiz-adv-x="248" 
d="M87 723h73v-723h-73v723z" />
    <glyph glyph-name="m" unicode="m" horiz-adv-x="829" 
d="M80 523h66.999v-79c28 30 55.333 52.167 82 66.5s56.334 21.5 89.001 21.5c35.333 0 63 -8.16699 83 -24.5s34.333 -37.5 43 -63.5c28 30 55.667 52.167 83 66.5s57.333 21.5 90 21.5c42.667 0 75.667 -12.5 99 -37.5s35 -60.833 35 -107.5v-387h-72v364
c0 36 -6.16699 62.5 -18.5 79.5s-33.5 25.5 -63.5 25.5c-51.333 0 -100.333 -26.333 -147 -79v-390h-69v362c0 36.667 -6.33301 63.667 -19 81s-34 26 -64 26c-27.333 0 -52.5 -6.5 -75.5 -19.5s-46.5 -32.833 -70.5 -59.5v-390h-72v523z" />
    <glyph glyph-name="n" unicode="n" horiz-adv-x="536" 
d="M82 523h66.999v-79c28 30 55.833 52.167 83.5 66.5s57.5 21.5 89.5 21.5c43.333 0 76.833 -12.5 100.5 -37.5s35.5 -60.833 35.5 -107.5v-387h-71v360c0 38 -6.16699 65.667 -18.5 83s-34.166 26 -65.499 26c-51.333 0 -101 -26.333 -149 -79v-390h-72v523z" />
    <glyph glyph-name="o" unicode="o" horiz-adv-x="503" 
d="M34 262c0 87.333 19.167 154.166 57.5 200.499s91.833 69.5 160.5 69.5s122.167 -23.167 160.5 -69.5s57.5 -113.166 57.5 -200.499s-19.167 -154.333 -57.5 -201s-91.833 -70 -160.5 -70s-122.167 23.333 -160.5 70s-57.5 113.667 -57.5 201zM108 262
c0 -69.333 12.5 -121.667 37.5 -157s60.5 -53 106.5 -53s81.333 17.667 106 53s37 87.333 37 156c0 69.333 -12.333 121.5 -37 156.5s-60 52.5 -106 52.5s-81.5 -17.5 -106.5 -52.5s-37.5 -86.833 -37.5 -155.5z" />
    <glyph glyph-name="p" unicode="p" horiz-adv-x="541" 
d="M82 523l56 0.000976562l12 -64c18.667 23.333 38.667 41.333 60 54s48 19 80 19c68.667 0 122 -23.333 160 -70s57 -114.334 57 -203.001c0 -87.333 -18.667 -153.833 -56 -199.5s-91.333 -68.5 -162 -68.5c-57.333 0 -102.333 21.667 -135 65v-246h-72v713zM154 131.001
c19.333 -28 40.168 -48.333 62.501 -61s48.166 -19 77.499 -19c44 0 78 17.5 102 52.5s36 86.5 36 154.5c0 141.333 -48.667 212 -146 212c-26.667 0 -51.167 -6.5 -73.5 -19.5s-41.833 -32.5 -58.5 -58.5v-261v0z" />
    <glyph glyph-name="q" unicode="q" horiz-adv-x="538" 
d="M461 523c-2.66699 -28.667 -4.49902 -56.833 -5.49902 -84.5s-1.5 -54.834 -1.5 -81.501v-547h-72v252c-32 -47.333 -76.333 -71 -133 -71c-67.333 0 -119.666 23.333 -156.999 70s-56 114.334 -56 203.001c0 86.667 18.167 153 54.5 199s87.166 69 152.499 69
s113.666 -24 144.999 -72l17 63h56v0zM382.001 392.001c-18.667 27.333 -39 47.5 -61 60.5s-47 19.5 -75 19.5c-42 0 -75 -17.167 -99 -51.5s-36 -84.833 -36 -151.5c0 -144 47.667 -216 143 -216c53.333 0 96 26 128 78v261v0z" />
    <glyph glyph-name="r" unicode="r" horiz-adv-x="324" 
d="M82 523h74.002v-119c17.333 42 38.166 73.333 62.499 94s53.833 31 88.5 31h8.5c2.33301 0 5.16602 -0.333008 8.49902 -1v-72h-9c-36 0 -67.5 -14 -94.5 -42s-48.5 -69 -64.5 -123v-291h-74v523z" />
    <glyph glyph-name="s" unicode="s" horiz-adv-x="435" 
d="M77 136c40.667 -56 90.333 -84.002 149 -84.002c32 0 57.5 8 76.5 24s28.5 37.333 28.5 64c0 17.333 -3.66699 31.166 -11 41.499s-17.833 19 -31.5 26s-30.5 13.167 -50.5 18.5s-42.667 12 -68 20c-88 26.667 -132 74.334 -132 143.001
c0 21.333 3.83301 40.833 11.5 58.5s18.5 32.667 32.5 45s30.667 22 50 29s40.666 10.5 63.999 10.5c76 0 138.667 -29 188 -87l-48 -48c-39.333 50 -84.666 75 -135.999 75c-27.333 0 -48.833 -6.83301 -64.5 -20.5s-23.5 -32.167 -23.5 -55.5
c0 -11.333 2.16699 -21.666 6.5 -30.999s10.833 -17 19.5 -23c17.333 -12.667 37.833 -21.667 61.5 -27s49.5 -12.666 77.5 -21.999c44 -14 76.167 -32.5 96.5 -55.5s30.5 -52.833 30.5 -89.5c0 -46.667 -16.5 -84.5 -49.5 -113.5s-78.833 -43.5 -137.5 -43.5
c-41.333 0 -79.333 8.5 -114 25.5s-62.667 41.5 -84 73.5z" />
    <glyph glyph-name="t" unicode="t" horiz-adv-x="306" 
d="M289 2c-21.333 -7.33301 -47 -11 -77 -11c-79.333 0 -119 34 -119 102v368h-78v62h78v169h76v-169h119v-62h-119v-335c0 -13.333 0.666992 -24.5 2 -33.5s4.5 -16.333 9.5 -22s12 -9.66699 21 -12s21.167 -3.5 36.5 -3.5c10 0 19 0.833008 27 2.5s16 3.5 24 5.5v-61z" />
    <glyph glyph-name="u" unicode="u" horiz-adv-x="536" 
d="M453 0h-65.999v79c-28 -30 -56 -52.167 -84 -66.5s-58 -21.5 -90 -21.5c-43.333 0 -76.833 12.5 -100.5 37.5s-35.5 60.833 -35.5 107.5v387h72v-360c0 -38 6.16699 -65.667 18.5 -83s34.166 -26 65.499 -26c50.667 0 100 26.333 148 79v390h72v-523z" />
    <glyph glyph-name="v" unicode="v" horiz-adv-x="458" 
d="M10 523h74l144 -448l144 448h74l-171 -523h-94z" />
    <glyph glyph-name="w" unicode="w" horiz-adv-x="730" 
d="M22 523h71l119 -438l121 438h63l121 -438l119 438h70l-144 -523h-89l-109 392l-109 -392h-88z" />
    <glyph glyph-name="x" unicode="x" horiz-adv-x="436" 
d="M174 275l-153 248h81l113 -190l109 190h81l-148 -246l171 -277h-84l-129 222l-126 -222h-81z" />
    <glyph glyph-name="y" unicode="y" horiz-adv-x="458" 
d="M10 523l73.9971 0.000976562l152 -418l136 418h74l-179 -532c-10 -30 -20.5 -56.5 -31.5 -79.5s-23.667 -42 -38 -57s-31.166 -26.333 -50.499 -34s-42.666 -11.5 -69.999 -11.5c-16.667 0 -32 2 -46 6v67c9.33301 -2 17.333 -3.33301 24 -4s12.334 -1 17.001 -1
c36.667 0 64.167 10.167 82.5 30.5s32.833 54.166 43.5 101.499z" />
    <glyph glyph-name="z" unicode="z" horiz-adv-x="435" 
d="M24 53l295 408h-266v62h354v-52l-296 -407h294v-64h-381v53z" />
    <glyph glyph-name="braceleft" unicode="{" horiz-adv-x="500" 
d="M419 659c-4 0 -7.83496 0.163086 -11.502 0.496094s-7.16699 0.5 -10.5 0.5c-21.333 0 -38.666 -2 -51.999 -6s-23.666 -10.667 -30.999 -20s-12.166 -21.666 -14.499 -36.999s-3.5 -34 -3.5 -56v-118c0 -24 -1.33301 -45 -4 -63s-7.5 -33.5 -14.5 -46.5
s-16.833 -24 -29.5 -33s-29 -16.167 -49 -21.5c20 -5.33301 36.333 -12.5 49 -21.5s22.5 -20 29.5 -33s11.833 -28.5 14.5 -46.5s4 -39 4 -63v-118c0 -22.667 1.33301 -41.5 4 -56.5s7.66699 -27 15 -36s17.833 -15.5 31.5 -19.5s31.5 -6 53.5 -6h19v-61h-17
c-28 0 -52.5 1.66699 -73.5 5s-39.167 10 -54.5 20c-22 14.667 -35.667 34.334 -41 59.001s-8 56 -8 94v119c0 48.667 -8.66699 83.167 -26 103.5s-48.333 30.5 -93 30.5c-3.33301 0 -6.83301 -0.166992 -10.5 -0.5s-7.5 -0.5 -11.5 -0.5v62
c4 0 7.83301 -0.166992 11.5 -0.5s7.16699 -0.5 10.5 -0.5c44.667 0 75.667 10.167 93 30.5s26 55.166 26 104.499v119c0 18.667 0.5 35.834 1.5 51.501s3.16699 29.834 6.5 42.501s8.16602 23.834 14.499 33.501s15.166 18.167 26.499 25.5c15.333 10 33.333 16.667 54 20
s45.334 5 74.001 5h17v-62v0z" />
    <glyph glyph-name="bar" unicode="|" horiz-adv-x="500" 
d="M281 -236h-62v1000h62v-1000z" />
    <glyph glyph-name="braceright" unicode="}" horiz-adv-x="500" 
d="M275 424c0 -49.333 8.83594 -84.167 26.5029 -104.5s48.834 -30.5 93.501 -30.5c3.33301 0 6.83301 0.166992 10.5 0.5s7.5 0.5 11.5 0.5v-62c-4 0 -7.83301 0.166992 -11.5 0.5s-7.16699 0.5 -10.5 0.5c-44.667 0 -75.834 -10.167 -93.501 -30.5
s-26.5 -55.166 -26.5 -104.499v-118c0 -38 -2.5 -69.5 -7.5 -94.5s-18.5 -44.833 -40.5 -59.5c-15.333 -10 -33.166 -16.5 -53.499 -19.5s-44.5 -4.5 -72.5 -4.5h-20v61c4 0 7.83301 -0.166992 11.5 -0.5s7.16699 -0.5 10.5 -0.5c21.333 0 38.666 2 51.999 6
s23.666 10.833 30.999 20.5s12.166 22.167 14.499 37.5s3.5 34 3.5 56v117c0 24 1.33301 45 4 63s7.5 33.5 14.5 46.5s16.833 24 29.5 33s29 16.167 49 21.5c-20 5.33301 -36.333 12.5 -49 21.5s-22.5 20 -29.5 33s-11.833 28.5 -14.5 46.5s-4 39 -4 63v118
c0 22.667 -1.33301 41.5 -4 56.5s-7.66699 27.167 -15 36.5s-17.833 16 -31.5 20s-31.5 6 -53.5 6h-19v61h17c28 0 52.667 -1.66699 74 -5s39.666 -10 54.999 -20c22 -14.667 35.5 -34.334 40.5 -59.001s7.5 -56 7.5 -94v-119z" />
    <glyph glyph-name="asciitilde" unicode="~" horiz-adv-x="833" 
d="M747 306c-65.333 -46.667 -128.333 -70.001 -189 -70.001c-28 0 -59 5.66699 -93 17c-34.667 11.333 -67.167 22.5 -97.5 33.5s-61.166 16.5 -92.499 16.5c-30 0 -59.833 -6.66699 -89.5 -20s-62.5 -32.666 -98.5 -57.999v65c68.667 47.333 131.667 71 189 71
c26 0 50.5 -3.33301 73.5 -10s45.833 -14 68.5 -22l69.5 -24.5c22.333 -7.66699 46.166 -11.5 71.499 -11.5c30 0 60 6.66699 90 20s62.667 32.333 98 57v-64v0z" />
    <glyph glyph-name="uni00A0" unicode="&#xa0;" horiz-adv-x="301" 
 />
    <glyph glyph-name="exclamdown" unicode="&#xa1;" horiz-adv-x="309" 
d="M203 610h-98v113h98v-113zM202 0h-95l23 491h49z" />
    <glyph glyph-name="cent" unicode="&#xa2;" 
d="M190 43c-30 20 -53.1641 49.667 -69.4971 89s-24.5 87 -24.5 143c0 40.667 5.16699 77.5 15.5 110.5s25 61 44 84s41.333 40.833 67 53.5s54.167 19 85.5 19c21.333 0 41.666 -2.33301 60.999 -7l38 104h59l-46 -126c32 -21.333 59.667 -59 83 -113l-69 -25
c-5.33301 14.667 -11 27.5 -17 38.5s-13.667 20.167 -23 27.5l-134 -367c16 -6.66699 33.667 -10 53 -10c31.333 0 58.666 8.33301 81.999 25s41.666 41.667 54.999 75l63 -29c-38.667 -90 -105.667 -135 -201 -135c-14 -0 -27 0.833008 -39 2.5s-23.667 5.16699 -35 10.5
l-42 -117h-59zM347.003 471c-16 6 -31 9 -45 9c-37.333 0 -68.333 -17.833 -93 -53.5s-37 -86.834 -37 -153.501c0 -75.333 14 -128.666 42 -159.999z" />
    <glyph glyph-name="sterling" unicode="&#xa3;" 
d="M30 70c38 13.333 65.334 37.832 82.001 73.499s25 83.834 25 144.501v21.5c0 7 -0.333008 14.167 -1 21.5h-105v59h100c-3.33301 27.333 -6 51.333 -8 72s-3 38.334 -3 53.001c0 34 4.83301 64.5 14.5 91.5s23.5 50 41.5 69s39.833 33.5 65.5 43.5s54.167 15 85.5 15
c60 0 109.333 -15.667 148 -47s65.667 -77.333 81 -138l-72 -15c-8.66699 42 -27 75.167 -55 99.5s-62 36.5 -102 36.5c-40.667 0 -72.834 -13.167 -96.501 -39.5s-35.5 -63.833 -35.5 -112.5c0 -8 0.666992 -22.667 2 -44s4.33301 -49.333 9 -84h146v-59h-138
c0 -4.66699 0.166992 -9.33398 0.5 -14.001s0.5 -9.33398 0.5 -14.001c0 -68.667 -11 -126 -33 -172c68.667 -48 129.334 -72 182.001 -72c40 0 71.167 10.167 93.5 30.5s37.5 51.5 45.5 93.5l70 -12c-22 -122.667 -86.333 -184 -193 -184
c-37.333 0 -74.833 6.83301 -112.5 20.5s-76.834 33.834 -117.501 60.501c-34.667 -44.667 -74.667 -71 -120 -79v81z" />
    <glyph glyph-name="currency" unicode="&#xa4;" horiz-adv-x="606" 
d="M178 592c19.333 14.667 39.1689 25.668 59.502 33.001s42.166 11 65.499 11c46 0 88.333 -14.667 127 -44l100 101l35 -36l-100 -100c28 -37.333 42 -79 42 -125c0 -46.667 -14 -88.334 -42 -125.001l100 -100l-35 -36l-100 101c-36.667 -28.667 -79 -43 -127 -43
c-46.667 0 -88.334 14.333 -125.001 43l-101 -101l-35 36l101 100c-28.667 38 -43 79.667 -43 125s14.333 87 43 125l-101 100l35 36l101 -101v0zM457.003 433.001c0 20.667 -4 40.334 -12 59.001s-18.833 35 -32.5 49s-29.834 25 -48.501 33s-38.667 12 -60 12
s-41.333 -4 -60 -12s-34.834 -19 -48.501 -33s-24.5 -30.333 -32.5 -49s-12 -38.334 -12 -59.001c0 -21.333 4 -41.333 12 -60s18.833 -35 32.5 -49s29.834 -25 48.501 -33s38.667 -12 60 -12s41.333 4 60 12s34.834 19 48.501 33s24.5 30.333 32.5 49s12 38.667 12 60z" />
    <glyph glyph-name="yen" unicode="&#xa5;" 
d="M300 372l180 350h76l-117 -223h123v-48h-149l-50 -96h199v-48h-226v-307h-70v307h-227v48h199l-49 96h-150v48h124l-118 223h78z" />
    <glyph glyph-name="brokenbar" unicode="&#xa6;" horiz-adv-x="500" 
d="M281 329h-62v370h62v-370zM281 -171h-62v370h62v-370z" />
    <glyph glyph-name="section" unicode="&#xa7;" horiz-adv-x="500" 
d="M150 34c15.333 -21.333 31.668 -37.498 49.001 -48.498s33.666 -16.5 48.999 -16.5c20.667 0 37.334 6 50.001 18s19 26.667 19 44c0 10.667 -2.16699 21.167 -6.5 31.5s-10.166 20.666 -17.499 30.999s-16.333 21.333 -27 33l-35 37.5l-64.5 67
c-19.667 20 -36.5 39 -50.5 57s-25 35.5 -33 52.5s-12 34.5 -12 52.5c0 34 9.66699 60.333 29 79s47 28 83 28c-19.333 21.333 -34 41.833 -44 61.5s-15 39.167 -15 58.5c0 33.333 11.5 60.833 34.5 82.5s53.5 32.5 91.5 32.5c28 0 54.333 -7.16699 79 -21.5
s44.667 -35.166 60 -62.499l-49 -35c-13.333 21.333 -27.833 37.166 -43.5 47.499s-30.167 15.5 -43.5 15.5c-19.333 0 -35 -5.33301 -47 -16s-18 -24.334 -18 -41.001c0 -17.333 8.16699 -35.833 24.5 -55.5s39.166 -44.167 68.499 -73.5l63 -63.5
c18.667 -19 34.667 -37.5 48 -55.5s23.666 -35.833 30.999 -53.5s11 -36.5 11 -56.5c0 -28.667 -9.83301 -52.167 -29.5 -70.5s-47.167 -28.166 -82.5 -29.499c39.333 -44 59 -87.667 59 -131c0 -18.667 -3.33301 -35.667 -10 -51s-15.667 -28.333 -27 -39
s-24.833 -18.834 -40.5 -24.501s-32.5 -8.5 -50.5 -8.5c-30 0 -58.5 7.66699 -85.5 23s-49.167 37 -66.5 65zM134.002 402.002c0 -14.667 5 -29.999 15 -45.999s24.333 -34.667 43 -56c52 -59.333 92.667 -89 122 -89c15.333 0 28.333 5.16699 39 15.5s16 23.166 16 38.499
c0 16 -6 32.833 -18 50.5s-29 38.5 -51 62.5c-23.333 26 -43.666 45.667 -60.999 59s-33.333 20 -48 20s-27.834 -5.33301 -39.501 -16s-17.5 -23.667 -17.5 -39z" />
    <glyph glyph-name="dieresis" unicode="&#xa8;" horiz-adv-x="500" 
d="M133 723h78v-88h-78v88zM289 723h78v-88h-78v88z" />
    <glyph glyph-name="copyright" unicode="&#xa9;" horiz-adv-x="833" 
d="M416 713c48.667 0 94.832 -8.83105 138.499 -26.498s82.834 -43.834 117.501 -78.501c34 -34 59.667 -72.667 77 -116s26 -89.333 26 -138c0 -49.333 -8.66699 -95.333 -26 -138s-43 -80.667 -77 -114c-36 -34.667 -75.833 -61.167 -119.5 -79.5
s-89.167 -27.5 -136.5 -27.5c-48 0 -93.333 9 -136 27s-81.334 44.333 -116.001 79s-61 73.5 -79 116.5s-27 88.5 -27 136.5s9.16699 93.667 27.5 137s44.833 82.666 79.5 117.999c33.333 34 71.333 59.833 114 77.5s88.334 26.5 137.001 26.5zM732.998 354.002
c0 42.667 -7.83594 83.1689 -23.5029 121.502s-38.5 72.5 -68.5 102.5s-64.167 52.833 -102.5 68.5s-79.166 23.5 -122.499 23.5s-83.666 -7.66699 -120.999 -23s-70.666 -38 -99.999 -68c-30.667 -31.333 -54 -66.166 -70 -104.499s-24 -78.5 -24 -120.5
s8 -81.833 24 -119.5s39 -71.834 69 -102.501c30 -30 64 -53 102 -69s78 -24 120 -24s82.333 8 121 24s73.667 39.333 105 70c30 29.333 52.667 62.666 68 99.999s23 77.666 23 120.999zM519.995 445.004c-5.33301 25.333 -17.0029 45.001 -35.0029 59.001
s-40.333 21 -67 21c-38 0 -67.667 -14.667 -89 -44s-32 -72 -32 -128c0 -54 11 -95.5 33 -124.5s51.333 -43.5 88 -43.5c28 0 51.5 7.83301 70.5 23.5s31.167 37.5 36.5 65.5h63c-2 -20.667 -7.5 -39.667 -16.5 -57s-21.167 -32.166 -36.5 -44.499
s-33.166 -21.833 -53.499 -28.5s-42.5 -10 -66.5 -10c-28 0 -53.667 5 -77 15s-43.166 24.5 -59.499 43.5s-29 41.833 -38 68.5s-13.5 57 -13.5 91c0 34.667 4.66699 65.667 14 93s22.5 50.666 39.5 69.999s37.333 34.166 61 44.499s49.834 15.5 78.501 15.5
c22.667 0 43.5 -3.16699 62.5 -9.5s35.667 -15.333 50 -27s25.833 -25.5 34.5 -41.5s14 -33.333 16 -52h-63v0z" />
    <glyph glyph-name="ordfeminine" unicode="&#xaa;" horiz-adv-x="379" 
d="M264 407c-36 -37.333 -77.335 -56.001 -124.002 -56.001c-32 0 -58 9.33301 -78 28s-30 43 -30 73c0 40.667 19 72.167 57 94.5s97 40.5 177 54.5v27c0 16.667 -7.16699 30.334 -21.5 41.001s-33.166 16 -56.499 16c-21.333 0 -40.166 -4.66699 -56.499 -14
s-29.5 -23.666 -39.5 -42.999l-48 24c30 51.333 79 77 147 77c41.333 0 73.5 -9.33301 96.5 -28s34.5 -45.334 34.5 -80.001v-205c0 -18 2.66699 -35.667 8 -53v-6h-60l-6 50v0zM265.998 553.999c-61.333 -11.333 -106.666 -24.833 -135.999 -40.5s-44 -36.5 -44 -62.5
c0 -16 5.66699 -29 17 -39s26.666 -15 45.999 -15c17.333 0 35.5 4.66699 54.5 14s39.833 23.333 62.5 42v101z" />
    <glyph glyph-name="guillemotleft" unicode="&#xab;" horiz-adv-x="498" 
d="M134 262l124 -156h-80l-121 156l127 154h76zM289 262l123 -156h-79l-122 156l128 154h76z" />
    <glyph glyph-name="logicalnot" unicode="&#xac;" horiz-adv-x="833" 
d="M709 174h-56v188h-529v57h585v-245z" />
    <glyph glyph-name="uni00AD" unicode="&#xad;" horiz-adv-x="330" 
d="M41 295h244v-67h-244v67z" />
    <glyph glyph-name="registered" unicode="&#xae;" horiz-adv-x="833" 
d="M416 713c49.333 0 95.668 -9 139.001 -27s82.333 -44.333 117 -79c34 -34 59.667 -72.667 77 -116s26 -89 26 -137c0 -49.333 -8.83301 -95.333 -26.5 -138s-43.5 -80.667 -77.5 -114c-36 -34.667 -75.667 -61.167 -119 -79.5s-88.666 -27.5 -135.999 -27.5
c-48 0 -93.5 9.16699 -136.5 27.5s-81.833 44.833 -116.5 79.5c-34 34 -60 72.5 -78 115.5s-27 88.5 -27 136.5s9.16699 93.833 27.5 137.5s45.166 83.167 80.499 118.5c33.333 34 71.166 59.667 113.499 77s87.833 26 136.5 26zM733.002 352
c0 43.333 -7.66699 84.1689 -23 122.502s-38 72.5 -68 102.5c-62 62 -137.333 93 -226 93c-42.667 0 -82.667 -7.5 -120 -22.5s-70.666 -37.5 -99.999 -67.5c-31.333 -31.333 -55 -66.333 -71 -105s-24 -79 -24 -121s8 -81.833 24 -119.5s39 -71.834 69 -102.501
s64 -53.834 102 -69.501s77.667 -23.5 119 -23.5c42.667 0 83.167 7.83301 121.5 23.5s73.166 38.834 104.499 69.501c30 29.333 52.833 62.666 68.5 99.999s23.5 77.333 23.5 120zM426.002 565.003c114 0 171 -37.668 171 -113.001c0 -28.667 -8.5 -52.667 -25.5 -72
s-40.5 -31.666 -70.5 -36.999l92 -188h-77l-86 178h-87v-178h-69v410h152v0zM343.002 520.002v-142h72c38 0 66 5 84 15s27 28 27 54c0 26.667 -9.16699 45.5 -27.5 56.5s-46.833 16.5 -85.5 16.5h-70z" />
    <glyph glyph-name="macron" unicode="&#xaf;" horiz-adv-x="500" 
d="M124 707h252v-61h-252v61z" />
    <glyph glyph-name="degree" unicode="&#xb0;" horiz-adv-x="329" 
d="M165 710c18.667 0 36.501 -3.66699 53.501 -11s31.667 -17.166 44 -29.499s22.166 -27 29.499 -44s11 -34.833 11 -53.5s-3.66699 -36.334 -11 -53.001s-17.166 -31.334 -29.499 -44.001s-27 -22.667 -44 -30s-35.167 -11 -54.5 -11s-37.333 3.5 -54 10.5
s-31.167 16.833 -43.5 29.5s-22 27.334 -29 44.001s-10.5 34.667 -10.5 54s3.66699 37.5 11 54.5s17.166 31.667 29.499 44s26.833 22 43.5 29s34.667 10.5 54 10.5zM263.001 572c0 27.333 -9.33398 50.5 -28.001 69.5s-42 28.5 -70 28.5
c-27.333 0 -50.666 -9.33301 -69.999 -28s-29 -42 -29 -70c0 -14 2.66699 -27 8 -39s12.5 -22.5 21.5 -31.5s19.5 -16 31.5 -21s24.667 -7.5 38 -7.5c14 0 27 2.66699 39 8s22.333 12.5 31 21.5s15.5 19.5 20.5 31.5s7.5 24.667 7.5 38z" />
    <glyph glyph-name="plusminus" unicode="&#xb1;" horiz-adv-x="833" 
d="M446 408h263v-57h-263v-168h-58v168h-264v57h264v168h58v-168zM709 20h-585v57h585v-57z" />
    <glyph glyph-name="twosuperior" unicode="&#xb2;" horiz-adv-x="397" 
d="M33 330c11.333 22.667 25.668 43.832 43.001 63.499s38 39.167 62 58.5c19.333 15.333 38.666 28.833 57.999 40.5s35.666 24.167 48.999 37.5c14.667 13.333 25.667 26.5 33 39.5s11 26.833 11 41.5c0 25.333 -8.16699 45.166 -24.5 59.499s-38.5 21.5 -66.5 21.5
c-29.333 0 -53.5 -8 -72.5 -24s-32.167 -39 -39.5 -69l-46 9c19.333 80.667 72.333 121 159 121c44 0 78.5 -10.5 103.5 -31.5s37.5 -49.5 37.5 -85.5c0 -29.333 -8.33301 -54.666 -25 -75.999c-15.333 -19.333 -34.166 -36.666 -56.499 -51.999l-71.5 -49
c-54 -36.667 -89 -72 -105 -106h259v-40h-308v41z" />
    <glyph glyph-name="threesuperior" unicode="&#xb3;" horiz-adv-x="397" 
d="M63 394c30 -48.667 72 -73 126 -73c34 0 60.333 7.5 79 22.5s28 36.5 28 64.5c0 62 -46 93 -138 93h-14c-6 0 -13.667 -0.333008 -23 -1v41c7.33301 -0.666992 14 -1 20 -1h16c83.333 0 125 27.667 125 83c0 21.333 -7.83301 38 -23.5 50s-37.5 18 -65.5 18
c-43.333 0 -80 -20 -110 -60l-37 26c38 48 87.667 72 149 72c42.667 0 76.167 -9.5 100.5 -28.5s36.5 -44.5 36.5 -76.5c0 -48 -24.333 -81.667 -73 -101c29.333 -10 51.333 -24.5 66 -43.5s22 -41.5 22 -67.5c0 -40 -13.833 -71.667 -41.5 -95s-65.834 -35 -114.501 -35
c-75.333 0 -131.666 28.667 -168.999 86z" />
    <glyph glyph-name="acute" unicode="&#xb4;" horiz-adv-x="500" 
d="M285 757h87l-137 -170h-52z" />
    <glyph glyph-name="mu" unicode="&#xb5;" horiz-adv-x="551" 
d="M115 231c-4.66699 -20.667 -7.00098 -42.999 -7.00098 -66.999c0 -35.333 9.16699 -62.666 27.5 -81.999s44.5 -29 78.5 -29c80.667 0 135.334 66.667 164.001 200l59 269h76l-79 -368c-7.33301 -32.667 -11 -54.667 -11 -66c0 -21.333 11.667 -32 35 -32h6
c2.66699 0 6.33398 0.333008 11.001 1l-13 -61c-8.66699 -2 -16.834 -3.33301 -24.501 -4s-14.5 -1 -20.5 -1c-23.333 0 -40.5 5.66699 -51.5 17s-17.5 29.666 -19.5 54.999c-13.333 -22.667 -32.166 -40.334 -56.499 -53.001s-52.5 -19 -84.5 -19
c-56.667 0 -99.334 22.333 -128.001 67l-55 -266h-76l154 730h77z" />
    <glyph glyph-name="paragraph" unicode="&#xb6;" horiz-adv-x="500" 
d="M402 684l-0.00195312 -684h-46v684h-90v-684h-46v382c-57.333 2.66699 -102.166 19.5 -134.499 50.5s-48.5 70.833 -48.5 119.5c0 24.667 4.5 47.5 13.5 68.5s21.833 39 38.5 54s36.834 26.667 60.501 35s50.167 12.5 79.5 12.5h234v-38h-61z" />
    <glyph glyph-name="periodcentered" unicode="&#xb7;" horiz-adv-x="301" 
d="M90 356c0 17.333 5.66895 31.666 17.002 42.999s25.666 17 42.999 17s31.833 -5.66699 43.5 -17s17.5 -25.666 17.5 -42.999s-6 -31.833 -18 -43.5s-26.333 -17.5 -43 -17.5s-30.834 5.83301 -42.501 17.5s-17.5 26.167 -17.5 43.5z" />
    <glyph glyph-name="cedilla" unicode="&#xb8;" horiz-adv-x="500" 
d="M146 -164c26 -6 49 -10.333 69 -13s37 -4 51 -4c39.333 0 59 13.333 59 40c0 17.333 -5.5 29.666 -16.5 36.999s-28.167 11 -51.5 11h-12c-4 0 -8.33301 -0.333008 -13 -1v94h36v-52h11c73.333 0 110 -28.667 110 -86c0 -59.333 -40.333 -89 -121 -89
c-16 0 -34 1.83301 -54 5.5s-42.667 8.83398 -68 15.501v42z" />
    <glyph glyph-name="onesuperior" unicode="&#xb9;" horiz-adv-x="397" 
d="M225 328h78v-39h-206v39h81v350l-88 -9v30c38 10 70.333 20 97 30h38v-401z" />
    <glyph glyph-name="ordmasculine" unicode="&#xba;" horiz-adv-x="377" 
d="M26 540c0 61.333 14.333 108.166 43 140.499s68.667 48.5 120 48.5s91.5 -16.167 120.5 -48.5s43.5 -79.166 43.5 -140.499c0 -60.667 -14.5 -107.334 -43.5 -140.001s-69.167 -49 -120.5 -49s-91.333 16.333 -120 49s-43 79.334 -43 140.001zM81 540
c0 -48 9.33301 -84.5 28 -109.5s45.334 -37.5 80.001 -37.5c34 0 60.333 12.5 79 37.5s28 61.5 28 109.5s-9.16699 84.333 -27.5 109s-44.833 37 -79.5 37s-61.334 -12.333 -80.001 -37s-28 -61 -28 -109z" />
    <glyph glyph-name="guillemotright" unicode="&#xbb;" horiz-adv-x="498" 
d="M203 260l-123 156h79l122 -156l-127 -154h-76zM360 260l-123 156h79l122 -156l-128 -154h-76z" />
    <glyph glyph-name="onequarter" unicode="&#xbc;" horiz-adv-x="925" 
d="M214 354l75 -0.00195312v-36h-197v36h77v327l-84 -8v28c18.667 4.66699 35.667 9.33398 51 14.001s29 9.33398 41 14.001h37v-375zM657 733.998h55l-447 -746h-53zM777 366.998l-155 -237h155v237zM821 129.998h75v-34h-75v-103h-44v103h-205v28l184 280h65v-274z" />
    <glyph glyph-name="onehalf" unicode="&#xbd;" horiz-adv-x="925" 
d="M214 354l75 -0.00195312v-36h-197v36h77v327l-84 -8v28c18.667 4.66699 35.667 9.33398 51 14.001s29 9.33398 41 14.001h37v-375zM657 733.998h55l-447 -746h-53zM577 37.998c10.667 21.333 24.334 41.165 41.001 59.498s36.667 36.5 60 54.5
c18 14.667 36.167 27.334 54.5 38.001s34.166 22.334 47.499 35.001s23.666 25 30.999 37s11 24.667 11 38c0 23.333 -7.66699 41.833 -23 55.5s-36.666 20.5 -63.999 20.5c-28 0 -51.167 -7.5 -69.5 -22.5s-30.833 -36.5 -37.5 -64.5l-44 8c18 76 68.667 114 152 114
c42 0 74.833 -9.83301 98.5 -29.5s35.5 -46.167 35.5 -79.5c0 -28 -7.66699 -51.667 -23 -71c-14.667 -18 -32.667 -34.167 -54 -48.5l-68 -45.5c-51.333 -35.333 -85 -68.333 -101 -99h247v-38h-294v38z" />
    <glyph glyph-name="threequarters" unicode="&#xbe;" horiz-adv-x="926" 
d="M60 416c29.333 -45.333 69.667 -68 121 -68c32 0 56.833 7.16699 74.5 21.5s26.5 34.166 26.5 59.499c0 58 -43.667 87 -131 87h-13c-5.33301 0 -12.666 -0.333008 -21.999 -1v38c7.33301 0 13.666 -0.166992 18.999 -0.5s10.333 -0.5 15 -0.5c39.333 0 69 6.66699 89 20
s30 32.333 30 57c0 20 -7.5 35.667 -22.5 47s-35.5 17 -61.5 17c-22 0 -41.333 -4.5 -58 -13.5s-32.667 -23.167 -48 -42.5l-36 24c37.333 45.333 85 68 143 68c40.667 0 72.667 -8.83301 96 -26.5s35 -41.5 35 -71.5c0 -45.333 -23.333 -77 -70 -95
c56 -19.333 84 -53.666 84 -102.999c0 -37.333 -13.167 -67 -39.5 -89s-62.5 -33 -108.5 -33c-72.667 0 -126.667 27 -162 81zM657.001 734h55l-447 -746h-53zM777.001 367l-155 -237h155v237zM821.001 130h75v-34h-75v-103h-44v103h-205v28l184 280h65v-274z" />
    <glyph glyph-name="questiondown" unicode="&#xbf;" horiz-adv-x="439" 
d="M281 493c0.666992 -6 1 -11.665 1 -16.998v-16c0 -29.333 -3.16699 -54.5 -9.5 -75.5s-18.166 -42.5 -35.499 -64.5l-39 -49c-12.667 -15.333 -23.667 -30.166 -33 -44.499s-16.833 -28.833 -22.5 -43.5s-8.5 -30 -8.5 -46c0 -25.333 7.66699 -45.833 23 -61.5
s35 -23.5 59 -23.5c22.667 0 41.5 6.5 56.5 19.5s28.5 33.5 40.5 61.5l63 -34c-17.333 -37.333 -39.5 -65.166 -66.5 -83.499s-59.5 -27.5 -97.5 -27.5c-48 0 -86.167 13.833 -114.5 41.5s-42.5 65.5 -42.5 113.5c0 23.333 4.16699 45.666 12.5 66.999s21.166 43 38.499 65
c15.333 19.333 30.166 36.666 44.499 51.999s26.5 30.333 36.5 45c10.667 15.333 17.834 30.666 21.501 45.999s5.5 32.666 5.5 51.999c0 3.33301 -0.166992 7 -0.5 11s-0.5 8 -0.5 12h68v0zM298 613.002h-96v110h96v-110z" />
    <glyph glyph-name="Agrave" unicode="&#xc0;" 
d="M240 723h122l222 -723h-84l-65 225h-269l-64 -225h-85zM413 292l-108 377h-11l-109 -377h228zM316 790l-137 170h87l102 -170h-52z" />
    <glyph glyph-name="Aacute" unicode="&#xc1;" 
d="M240 723h122l222 -723h-84l-65 225h-269l-64 -225h-85zM413 292l-108 377h-11l-109 -377h228zM336 960h87l-137 -170h-52z" />
    <glyph glyph-name="Acircumflex" unicode="&#xc2;" 
d="M240 723h122l222 -723h-84l-65 225h-269l-64 -225h-85zM413 292l-108 377h-11l-109 -377h228zM257 960h87l96 -170h-52l-87 118l-88 -118h-52z" />
    <glyph glyph-name="Atilde" unicode="&#xc3;" 
d="M240 723h122l222 -723h-84l-65 225h-269l-64 -225h-85zM413 292l-108 377h-11l-109 -377h228zM443 920c-8 -31.333 -20.333 -54.667 -37 -70s-36.667 -23 -60 -23c-6 0 -11.5 0.5 -16.5 1.5s-10.167 2.16699 -15.5 3.5l-39 13c-8 2.66699 -16.667 4 -26 4
c-22 0 -37.667 -10.333 -47 -31h-43c14 60.667 46.333 91 97 91c9.33301 0 19 -1.66699 29 -5l38 -13c11.333 -3.33301 21.333 -5 30 -5c23.333 0 39 11.333 47 34h43v0z" />
    <glyph glyph-name="Adieresis" unicode="&#xc4;" 
d="M240 723h122l222 -723h-84l-65 225h-269l-64 -225h-85zM413 292l-108 377h-11l-109 -377h228zM245 800h-82v90h82v-90zM439 800h-82v90h82v-90z" />
    <glyph glyph-name="Aring" unicode="&#xc5;" 
d="M435 225h-269.001l-64 -225h-85l223 723c-40.667 24.667 -61 59.667 -61 105c0 16.667 3.16699 32.5 9.5 47.5s14.833 27.833 25.5 38.5s23.334 19.167 38.001 25.5s30.667 9.5 48 9.5c16.667 0 32.5 -3.16699 47.5 -9.5s28 -14.833 39 -25.5s19.667 -23.5 26 -38.5
s9.5 -30.833 9.5 -47.5c0 -43.333 -20 -78.333 -60 -105l222 -723h-84zM230.999 828c0 -19.333 6.83301 -35.833 20.5 -49.5s30.167 -20.5 49.5 -20.5s35.666 6.83301 48.999 20.5s20 30.167 20 49.5s-6.66699 35.833 -20 49.5s-29.666 20.5 -48.999 20.5
c-20 0 -36.667 -6.83301 -50 -20.5s-20 -30.167 -20 -49.5zM412.999 292l-108 377h-11l-109 -377h228z" />
    <glyph glyph-name="AE" unicode="&#xc6;" horiz-adv-x="876" 
d="M410 292v363h-55l-165 -363h220zM314 723h497v-68h-324v-242h227v-67h-227v-277h341v-69h-418v225h-250l-104 -225h-78z" />
    <glyph glyph-name="Ccedilla" unicode="&#xc7;" horiz-adv-x="604" 
d="M211 -164c26 -6 49.0029 -10.332 69.0029 -12.999s37 -4 51 -4c39.333 0 59 13.333 59 40c0 17.333 -5.5 29.666 -16.5 36.999s-28.167 11 -51.5 11h-12c-4 0 -8.33301 -0.333008 -13 -1v83c-80.667 6.66699 -142.667 41.667 -186 105s-65 152.666 -65 267.999
c0 59.333 6.5 112.166 19.5 158.499s31.333 85.333 55 117s52.167 55.834 85.5 72.501s70.666 25 111.999 25c134.667 0 217.667 -72 249 -216l-75 -19c-11.333 54.667 -31.333 96.167 -60 124.5s-64.334 42.5 -107.001 42.5c-62.667 0 -111.334 -26 -146.001 -78
s-52 -128.667 -52 -230c0 -98.667 17.667 -173.667 53 -225s84.333 -77 147 -77c47.333 0 86.5 15 117.5 45s51.5 73.667 61.5 131l73 -16c-34 -148.667 -116 -225 -246 -229v-40h11c73.333 0 110 -28.667 110 -86c0 -59.333 -40.333 -89 -121 -89
c-16 0 -34 1.83301 -54 5.5s-42.667 8.83398 -68 15.501v42z" />
    <glyph glyph-name="Egrave" unicode="&#xc8;" horiz-adv-x="571" 
d="M97 723h427v-68h-347v-241h246v-68h-246v-277h364v-69h-444v723zM334 790l-137 170h87l102 -170h-52z" />
    <glyph glyph-name="Eacute" unicode="&#xc9;" horiz-adv-x="571" 
d="M97 723h427v-68h-347v-241h246v-68h-246v-277h364v-69h-444v723zM354 960h87l-137 -170h-52z" />
    <glyph glyph-name="Ecircumflex" unicode="&#xca;" horiz-adv-x="571" 
d="M97 723h427v-68h-347v-241h246v-68h-246v-277h364v-69h-444v723zM275 960h87l96 -170h-52l-87 118l-88 -118h-52z" />
    <glyph glyph-name="Edieresis" unicode="&#xcb;" horiz-adv-x="571" 
d="M97 723h427v-68h-347v-241h246v-68h-246v-277h364v-69h-444v723zM263 800h-82v90h82v-90zM457 800h-82v90h82v-90z" />
    <glyph glyph-name="Igrave" unicode="&#xcc;" horiz-adv-x="285" 
d="M102 723h81v-723h-81v723zM159 790l-137 170h87l102 -170h-52z" />
    <glyph glyph-name="Iacute" unicode="&#xcd;" horiz-adv-x="285" 
d="M102 723h81v-723h-81v723zM179 960h87l-137 -170h-52z" />
    <glyph glyph-name="Icircumflex" unicode="&#xce;" horiz-adv-x="285" 
d="M102 723h81v-723h-81v723zM100 960h87l96 -170h-52l-87 118l-88 -118h-52z" />
    <glyph glyph-name="Idieresis" unicode="&#xcf;" horiz-adv-x="285" 
d="M102 723h81v-723h-81v723zM88 800h-82v90h82v-90zM282 800h-82v90h82v-90z" />
    <glyph glyph-name="Eth" unicode="&#xd0;" horiz-adv-x="682" 
d="M101 350l-101 0.000976562v58h101v315h171c48.667 0 91.5 -3.83301 128.5 -11.5s70.5 -22.834 100.5 -45.501c40 -30 70.833 -70.833 92.5 -122.5s32.5 -112.167 32.5 -181.5c0 -241.333 -123.667 -362 -371 -362h-154v350zM179 656.001v-248.001h162v-58h-162v-279h65
c46 0 86 3.16699 120 9.5s63.667 19.833 89 40.5c30 23.333 53.167 55.333 69.5 96s24.5 88.667 24.5 144c0 116.667 -31.333 199.334 -94 248.001c-27.333 20.667 -57 33.667 -89 39s-68.333 8 -109 8h-76z" />
    <glyph glyph-name="Ntilde" unicode="&#xd1;" horiz-adv-x="715" 
d="M97 723h114l332 -564v564h75v-723h-62l-384 640v-640h-75v723zM500 920c-8 -31.333 -20.333 -54.667 -37 -70s-36.667 -23 -60 -23c-6 0 -11.5 0.5 -16.5 1.5s-10.167 2.16699 -15.5 3.5l-39 13c-8 2.66699 -16.667 4 -26 4c-22 0 -37.667 -10.333 -47 -31h-43
c14 60.667 46.333 91 97 91c9.33301 0 19 -1.66699 29 -5l38 -13c11.333 -3.33301 21.333 -5 30 -5c23.333 0 39 11.333 47 34h43v0z" />
    <glyph glyph-name="Ograve" unicode="&#xd2;" horiz-adv-x="664" 
d="M46 362c0 58 6.83301 110.001 20.5 156.001s33 85 58 117s55.167 56.667 90.5 74s74.333 26 117 26s81.667 -8.5 117 -25.5s65.5 -41.667 90.5 -74s44.333 -71.5 58 -117.5s20.5 -98 20.5 -156s-6.83301 -110.167 -20.5 -156.5s-33 -85.5 -58 -117.5
s-55.167 -56.667 -90.5 -74s-74.333 -26 -117 -26s-81.667 8.66699 -117 26s-65.5 42.166 -90.5 74.499s-44.333 71.5 -58 117.5s-20.5 98 -20.5 156zM127 362.001c0 -98 18.333 -173.167 55 -225.5s86.667 -78.5 150 -78.5s113.333 26.167 150 78.5s55 127.5 55 225.5
s-18.333 173.167 -55 225.5s-86.667 78.5 -150 78.5s-113.333 -26.167 -150 -78.5s-55 -127.5 -55 -225.5zM347 790.001l-137 170h87l102 -170h-52z" />
    <glyph glyph-name="Oacute" unicode="&#xd3;" horiz-adv-x="664" 
d="M46 362c0 58 6.83301 110.001 20.5 156.001s33 85 58 117s55.167 56.667 90.5 74s74.333 26 117 26s81.667 -8.5 117 -25.5s65.5 -41.667 90.5 -74s44.333 -71.5 58 -117.5s20.5 -98 20.5 -156s-6.83301 -110.167 -20.5 -156.5s-33 -85.5 -58 -117.5
s-55.167 -56.667 -90.5 -74s-74.333 -26 -117 -26s-81.667 8.66699 -117 26s-65.5 42.166 -90.5 74.499s-44.333 71.5 -58 117.5s-20.5 98 -20.5 156zM127 362.001c0 -98 18.333 -173.167 55 -225.5s86.667 -78.5 150 -78.5s113.333 26.167 150 78.5s55 127.5 55 225.5
s-18.333 173.167 -55 225.5s-86.667 78.5 -150 78.5s-113.333 -26.167 -150 -78.5s-55 -127.5 -55 -225.5zM367 960.001h87l-137 -170h-52z" />
    <glyph glyph-name="Ocircumflex" unicode="&#xd4;" horiz-adv-x="664" 
d="M46 362c0 58 6.83301 110.001 20.5 156.001s33 85 58 117s55.167 56.667 90.5 74s74.333 26 117 26s81.667 -8.5 117 -25.5s65.5 -41.667 90.5 -74s44.333 -71.5 58 -117.5s20.5 -98 20.5 -156s-6.83301 -110.167 -20.5 -156.5s-33 -85.5 -58 -117.5
s-55.167 -56.667 -90.5 -74s-74.333 -26 -117 -26s-81.667 8.66699 -117 26s-65.5 42.166 -90.5 74.499s-44.333 71.5 -58 117.5s-20.5 98 -20.5 156zM127 362.001c0 -98 18.333 -173.167 55 -225.5s86.667 -78.5 150 -78.5s113.333 26.167 150 78.5s55 127.5 55 225.5
s-18.333 173.167 -55 225.5s-86.667 78.5 -150 78.5s-113.333 -26.167 -150 -78.5s-55 -127.5 -55 -225.5zM288 960.001h87l96 -170h-52l-87 118l-88 -118h-52z" />
    <glyph glyph-name="Otilde" unicode="&#xd5;" horiz-adv-x="664" 
d="M46 362c0 58 6.83301 110.001 20.5 156.001s33 85 58 117s55.167 56.667 90.5 74s74.333 26 117 26s81.667 -8.5 117 -25.5s65.5 -41.667 90.5 -74s44.333 -71.5 58 -117.5s20.5 -98 20.5 -156s-6.83301 -110.167 -20.5 -156.5s-33 -85.5 -58 -117.5
s-55.167 -56.667 -90.5 -74s-74.333 -26 -117 -26s-81.667 8.66699 -117 26s-65.5 42.166 -90.5 74.499s-44.333 71.5 -58 117.5s-20.5 98 -20.5 156zM127 362.001c0 -98 18.333 -173.167 55 -225.5s86.667 -78.5 150 -78.5s113.333 26.167 150 78.5s55 127.5 55 225.5
s-18.333 173.167 -55 225.5s-86.667 78.5 -150 78.5s-113.333 -26.167 -150 -78.5s-55 -127.5 -55 -225.5zM474 920.001c-8 -31.333 -20.333 -54.667 -37 -70s-36.667 -23 -60 -23c-6 0 -11.5 0.5 -16.5 1.5s-10.167 2.16699 -15.5 3.5l-39 13c-8 2.66699 -16.667 4 -26 4
c-22 0 -37.667 -10.333 -47 -31h-43c14 60.667 46.333 91 97 91c9.33301 0 19 -1.66699 29 -5l38 -13c11.333 -3.33301 21.333 -5 30 -5c23.333 0 39 11.333 47 34h43v0z" />
    <glyph glyph-name="Odieresis" unicode="&#xd6;" horiz-adv-x="664" 
d="M46 362c0 58 6.83301 110.001 20.5 156.001s33 85 58 117s55.167 56.667 90.5 74s74.333 26 117 26s81.667 -8.5 117 -25.5s65.5 -41.667 90.5 -74s44.333 -71.5 58 -117.5s20.5 -98 20.5 -156s-6.83301 -110.167 -20.5 -156.5s-33 -85.5 -58 -117.5
s-55.167 -56.667 -90.5 -74s-74.333 -26 -117 -26s-81.667 8.66699 -117 26s-65.5 42.166 -90.5 74.499s-44.333 71.5 -58 117.5s-20.5 98 -20.5 156zM127 362.001c0 -98 18.333 -173.167 55 -225.5s86.667 -78.5 150 -78.5s113.333 26.167 150 78.5s55 127.5 55 225.5
s-18.333 173.167 -55 225.5s-86.667 78.5 -150 78.5s-113.333 -26.167 -150 -78.5s-55 -127.5 -55 -225.5zM276 800.001h-82v90h82v-90zM470 800.001h-82v90h82v-90z" />
    <glyph glyph-name="multiply" unicode="&#xd7;" horiz-adv-x="833" 
d="M651 571l40 -40l-232 -233l232 -232l-40 -40l-232 232l-233 -232l-39 40l232 232l-232 233l39 40l233 -233z" />
    <glyph glyph-name="Oslash" unicode="&#xd8;" horiz-adv-x="664" 
d="M119 97c-25.333 37.333 -43.833 77.833 -55.5 121.5s-17.5 91.5 -17.5 143.5c0 58 7 110 21 156s33.5 85.167 58.5 117.5s55 57 90 74s73.833 25.5 116.5 25.5c64.667 0 117.667 -17.333 159 -52l54 84l55 -35l-61 -98c25.333 -32 44.833 -70.333 58.5 -115
s20.5 -97 20.5 -157c0 -58 -6.83301 -110.167 -20.5 -156.5s-33 -85.5 -58 -117.5s-55 -56.667 -90 -74s-73.833 -26 -116.5 -26c-70 0 -126.333 20 -169 60l-67 -106l-55 35l77 120v0zM455 618c-33.333 32 -74.332 48.001 -122.999 48.001
c-63.333 0 -113.333 -26.167 -150 -78.5s-55 -127.5 -55 -225.5c0 -36 3.16699 -70.333 9.5 -103s16.166 -64.334 29.499 -95.001zM201.001 114.001c31.333 -37.333 77 -55.998 137 -55.998c30 0 57.167 6.83301 81.5 20.5s45.166 33.667 62.499 60
s30.833 58.666 40.5 96.999s14.5 82.166 14.5 131.499c0 37.333 -3.66699 72.333 -11 105s-18.666 65 -33.999 97z" />
    <glyph glyph-name="Ugrave" unicode="&#xd9;" horiz-adv-x="711" 
d="M174 723l-0.000976562 -465.999c0 -22.667 0.833008 -43.667 2.5 -63s7.16699 -37.666 16.5 -54.999c13.333 -25.333 33.833 -45.333 61.5 -60s61.167 -22 100.5 -22c40 0 73.833 7.33301 101.5 22s48.167 34.667 61.5 60c9.33301 19.333 14.833 39.666 16.5 60.999
s2.5 44.666 2.5 69.999v453h79v-479c0 -84.667 -22.167 -148.5 -66.5 -191.5s-109.166 -64.5 -194.499 -64.5c-86 0 -150.833 21.333 -194.5 64s-65.5 106.667 -65.5 192v479h79zM376.999 790.001l-137 170h87l102 -170h-52z" />
    <glyph glyph-name="Uacute" unicode="&#xda;" horiz-adv-x="711" 
d="M174 723l-0.000976562 -465.999c0 -22.667 0.833008 -43.667 2.5 -63s7.16699 -37.666 16.5 -54.999c13.333 -25.333 33.833 -45.333 61.5 -60s61.167 -22 100.5 -22c40 0 73.833 7.33301 101.5 22s48.167 34.667 61.5 60c9.33301 19.333 14.833 39.666 16.5 60.999
s2.5 44.666 2.5 69.999v453h79v-479c0 -84.667 -22.167 -148.5 -66.5 -191.5s-109.166 -64.5 -194.499 -64.5c-86 0 -150.833 21.333 -194.5 64s-65.5 106.667 -65.5 192v479h79zM396.999 960.001h87l-137 -170h-52z" />
    <glyph glyph-name="Ucircumflex" unicode="&#xdb;" horiz-adv-x="711" 
d="M174 723l-0.000976562 -465.999c0 -22.667 0.833008 -43.667 2.5 -63s7.16699 -37.666 16.5 -54.999c13.333 -25.333 33.833 -45.333 61.5 -60s61.167 -22 100.5 -22c40 0 73.833 7.33301 101.5 22s48.167 34.667 61.5 60c9.33301 19.333 14.833 39.666 16.5 60.999
s2.5 44.666 2.5 69.999v453h79v-479c0 -84.667 -22.167 -148.5 -66.5 -191.5s-109.166 -64.5 -194.499 -64.5c-86 0 -150.833 21.333 -194.5 64s-65.5 106.667 -65.5 192v479h79zM317.999 960.001h87l96 -170h-52l-87 118l-88 -118h-52z" />
    <glyph glyph-name="Udieresis" unicode="&#xdc;" horiz-adv-x="711" 
d="M174 723l-0.000976562 -465.999c0 -22.667 0.833008 -43.667 2.5 -63s7.16699 -37.666 16.5 -54.999c13.333 -25.333 33.833 -45.333 61.5 -60s61.167 -22 100.5 -22c40 0 73.833 7.33301 101.5 22s48.167 34.667 61.5 60c9.33301 19.333 14.833 39.666 16.5 60.999
s2.5 44.666 2.5 69.999v453h79v-479c0 -84.667 -22.167 -148.5 -66.5 -191.5s-109.166 -64.5 -194.499 -64.5c-86 0 -150.833 21.333 -194.5 64s-65.5 106.667 -65.5 192v479h79zM305.999 800.001h-82v90h82v-90zM499.999 800.001h-82v90h82v-90z" />
    <glyph glyph-name="Yacute" unicode="&#xdd;" horiz-adv-x="549" 
d="M235 305l-220 418h87l172 -334l173 334h87l-220 -418v-305h-79v305zM310 960h87l-137 -170h-52z" />
    <glyph glyph-name="Thorn" unicode="&#xde;" 
d="M97 723h78v-148h132c86 0 149.667 -15.667 191 -47s62 -81.333 62 -150c0 -64.667 -20 -114.667 -60 -150s-96.667 -53 -170 -53h-155v-175h-78v723zM298 243c31.333 0 58.332 2.33203 80.999 6.99902s41.334 12.334 56.001 23.001s25.5 24.667 32.5 42
s10.5 38.666 10.5 63.999c0 48.667 -15 82.334 -45 101.001s-77 28 -141 28h-117v-265h123z" />
    <glyph glyph-name="germandbls" unicode="&#xdf;" horiz-adv-x="529" 
d="M82 533c0 60.667 16.5 107.502 49.5 140.502s78.5 49.5 136.5 49.5c57.333 0 101.833 -15.833 133.5 -47.5s47.5 -76.167 47.5 -133.5c0 -39.333 -8.16699 -71.5 -24.5 -96.5s-38.833 -40.833 -67.5 -47.5c40.667 -8 73.167 -29.833 97.5 -65.5
s36.5 -81.834 36.5 -138.501c0 -64 -15.833 -113.833 -47.5 -149.5s-74.5 -53.5 -128.5 -53.5c-36 0 -69.333 9.66699 -100 29l30 58c24.667 -16 48 -24 70 -24c32 0 56.667 12 74 36s26 58.667 26 104c0 56 -14.167 97.333 -42.5 124s-71.833 40.667 -130.5 42v59
c89.333 5.33301 134 46 134 122c0 37.333 -10 66.666 -30 87.999s-47.667 32 -83 32c-34 0 -60.333 -10.833 -79 -32.5s-28 -53.167 -28 -94.5v-534h-74v533z" />
    <glyph glyph-name="agrave" unicode="&#xe0;" horiz-adv-x="505" 
d="M352 71c-48.667 -52.667 -103.999 -79.001 -165.999 -79.001c-42.667 0 -77.334 13.333 -104.001 40s-40 61.334 -40 104.001c0 28.667 6.33301 54 19 76s31.834 41.5 57.501 58.5s58.167 31.833 97.5 44.5s85.666 24 138.999 34v38c0 23.333 -9.5 42.833 -28.5 58.5
s-44.5 23.5 -76.5 23.5c-28 0 -53 -6.83301 -75 -20.5s-39.667 -34.167 -53 -61.5l-63 34c38.667 74 103.667 111 195 111c55.333 0 98.333 -13.333 129 -40s46 -65 46 -115v-292c0 -27.333 3.66699 -53 11 -77v-8h-80l-8 71v0zM355.001 280.999
c-82 -16.667 -142.666 -35.834 -181.999 -57.501s-59 -51.167 -59 -88.5c0 -23.333 7.5 -42.166 22.5 -56.499s35.833 -21.5 62.5 -21.5c23.333 0 47.666 6.66699 72.999 20s53 33.333 83 60v144zM268.002 586.999l-137 170h87l102 -170h-52z" />
    <glyph glyph-name="aacute" unicode="&#xe1;" horiz-adv-x="505" 
d="M352 71c-48.667 -52.667 -103.999 -79.001 -165.999 -79.001c-42.667 0 -77.334 13.333 -104.001 40s-40 61.334 -40 104.001c0 28.667 6.33301 54 19 76s31.834 41.5 57.501 58.5s58.167 31.833 97.5 44.5s85.666 24 138.999 34v38c0 23.333 -9.5 42.833 -28.5 58.5
s-44.5 23.5 -76.5 23.5c-28 0 -53 -6.83301 -75 -20.5s-39.667 -34.167 -53 -61.5l-63 34c38.667 74 103.667 111 195 111c55.333 0 98.333 -13.333 129 -40s46 -65 46 -115v-292c0 -27.333 3.66699 -53 11 -77v-8h-80l-8 71v0zM355.001 280.999
c-82 -16.667 -142.666 -35.834 -181.999 -57.501s-59 -51.167 -59 -88.5c0 -23.333 7.5 -42.166 22.5 -56.499s35.833 -21.5 62.5 -21.5c23.333 0 47.666 6.66699 72.999 20s53 33.333 83 60v144zM288.002 756.999h87l-137 -170h-52z" />
    <glyph glyph-name="acircumflex" unicode="&#xe2;" horiz-adv-x="505" 
d="M352 71c-48.667 -52.667 -103.999 -79.001 -165.999 -79.001c-42.667 0 -77.334 13.333 -104.001 40s-40 61.334 -40 104.001c0 28.667 6.33301 54 19 76s31.834 41.5 57.501 58.5s58.167 31.833 97.5 44.5s85.666 24 138.999 34v38c0 23.333 -9.5 42.833 -28.5 58.5
s-44.5 23.5 -76.5 23.5c-28 0 -53 -6.83301 -75 -20.5s-39.667 -34.167 -53 -61.5l-63 34c38.667 74 103.667 111 195 111c55.333 0 98.333 -13.333 129 -40s46 -65 46 -115v-292c0 -27.333 3.66699 -53 11 -77v-8h-80l-8 71v0zM355.001 280.999
c-82 -16.667 -142.666 -35.834 -181.999 -57.501s-59 -51.167 -59 -88.5c0 -23.333 7.5 -42.166 22.5 -56.499s35.833 -21.5 62.5 -21.5c23.333 0 47.666 6.66699 72.999 20s53 33.333 83 60v144zM209.002 756.999h87l96 -170h-52l-87 118l-88 -118h-52z" />
    <glyph glyph-name="atilde" unicode="&#xe3;" horiz-adv-x="505" 
d="M352 71c-48.667 -52.667 -103.999 -79.001 -165.999 -79.001c-42.667 0 -77.334 13.333 -104.001 40s-40 61.334 -40 104.001c0 28.667 6.33301 54 19 76s31.834 41.5 57.501 58.5s58.167 31.833 97.5 44.5s85.666 24 138.999 34v38c0 23.333 -9.5 42.833 -28.5 58.5
s-44.5 23.5 -76.5 23.5c-28 0 -53 -6.83301 -75 -20.5s-39.667 -34.167 -53 -61.5l-63 34c38.667 74 103.667 111 195 111c55.333 0 98.333 -13.333 129 -40s46 -65 46 -115v-292c0 -27.333 3.66699 -53 11 -77v-8h-80l-8 71v0zM355.001 280.999
c-82 -16.667 -142.666 -35.834 -181.999 -57.501s-59 -51.167 -59 -88.5c0 -23.333 7.5 -42.166 22.5 -56.499s35.833 -21.5 62.5 -21.5c23.333 0 47.666 6.66699 72.999 20s53 33.333 83 60v144zM395.002 716.999c-8 -31.333 -20.333 -54.667 -37 -70s-36.667 -23 -60 -23
c-6 0 -11.5 0.5 -16.5 1.5s-10.167 2.16699 -15.5 3.5l-39 13c-8 2.66699 -16.667 4 -26 4c-22 0 -37.667 -10.333 -47 -31h-43c14 60.667 46.333 91 97 91c9.33301 0 19 -1.66699 29 -5l38 -13c11.333 -3.33301 21.333 -5 30 -5c23.333 0 39 11.333 47 34h43v0z" />
    <glyph glyph-name="adieresis" unicode="&#xe4;" horiz-adv-x="505" 
d="M352 71c-48.667 -52.667 -103.999 -79.001 -165.999 -79.001c-42.667 0 -77.334 13.333 -104.001 40s-40 61.334 -40 104.001c0 28.667 6.33301 54 19 76s31.834 41.5 57.501 58.5s58.167 31.833 97.5 44.5s85.666 24 138.999 34v38c0 23.333 -9.5 42.833 -28.5 58.5
s-44.5 23.5 -76.5 23.5c-28 0 -53 -6.83301 -75 -20.5s-39.667 -34.167 -53 -61.5l-63 34c38.667 74 103.667 111 195 111c55.333 0 98.333 -13.333 129 -40s46 -65 46 -115v-292c0 -27.333 3.66699 -53 11 -77v-8h-80l-8 71v0zM355.001 280.999
c-82 -16.667 -142.666 -35.834 -181.999 -57.501s-59 -51.167 -59 -88.5c0 -23.333 7.5 -42.166 22.5 -56.499s35.833 -21.5 62.5 -21.5c23.333 0 47.666 6.66699 72.999 20s53 33.333 83 60v144zM136.002 722.999h78v-88h-78v88zM292.002 722.999h78v-88h-78v88z" />
    <glyph glyph-name="aring" unicode="&#xe5;" horiz-adv-x="505" 
d="M352 71c-48.667 -52.667 -103.999 -79.001 -165.999 -79.001c-42.667 0 -77.334 13.333 -104.001 40s-40 61.334 -40 104.001c0 28.667 6.33301 54 19 76s31.834 41.5 57.501 58.5s58.167 31.833 97.5 44.5s85.666 24 138.999 34v38c0 23.333 -9.5 42.833 -28.5 58.5
s-44.5 23.5 -76.5 23.5c-28 0 -53 -6.83301 -75 -20.5s-39.667 -34.167 -53 -61.5l-63 34c38.667 74 103.667 111 195 111c55.333 0 98.333 -13.333 129 -40s46 -65 46 -115v-292c0 -27.333 3.66699 -53 11 -77v-8h-80l-8 71v0zM355.001 280.999
c-82 -16.667 -142.666 -35.834 -181.999 -57.501s-59 -51.167 -59 -88.5c0 -23.333 7.5 -42.166 22.5 -56.499s35.833 -21.5 62.5 -21.5c23.333 0 47.666 6.66699 72.999 20s53 33.333 83 60v144zM146.002 697.999c0 16.667 3.16699 32.5 9.5 47.5s14.833 27.833 25.5 38.5
s23.334 19.167 38.001 25.5s30.667 9.5 48 9.5c16.667 0 32.5 -3.16699 47.5 -9.5s27.833 -14.833 38.5 -25.5s19.167 -23.5 25.5 -38.5s9.5 -30.833 9.5 -47.5c0 -17.333 -3.16699 -33.333 -9.5 -48s-14.833 -27.334 -25.5 -38.001s-23.5 -19.167 -38.5 -25.5
s-30.833 -9.5 -47.5 -9.5c-17.333 0 -33.333 3.16699 -48 9.5s-27.334 14.833 -38.001 25.5s-19.167 23.334 -25.5 38.001s-9.5 30.667 -9.5 48zM198.002 697.999c0 -19.333 6.66797 -35.833 20.001 -49.5s29.666 -20.5 48.999 -20.5s35.833 6.83301 49.5 20.5
s20.5 30.167 20.5 49.5s-6.83301 35.833 -20.5 49.5s-30.167 20.5 -49.5 20.5c-20 0 -36.5 -6.83301 -49.5 -20.5s-19.5 -30.167 -19.5 -49.5z" />
    <glyph glyph-name="ae" unicode="&#xe6;" horiz-adv-x="785" 
d="M339 281c-82 -16.667 -142.666 -35.834 -181.999 -57.501s-59 -51.167 -59 -88.5c0 -23.333 7.5 -42.166 22.5 -56.499s35.833 -21.5 62.5 -21.5c23.333 0 47.666 6.66699 72.999 20s53 33.333 83 60v144zM668.001 309c-1.33301 52 -13.332 91.833 -35.999 119.5
s-52.667 41.5 -90 41.5c-38.667 0 -69.334 -13.833 -92.001 -41.5s-35 -67.5 -37 -119.5h255zM370.002 93c-30 -34 -61.167 -59.334 -93.5 -76.001s-68.166 -25 -107.499 -25c-42.667 0 -77.334 13.333 -104.001 40s-40 61.334 -40 104.001c0 56.667 25.667 101.5 77 134.5
s130 57.833 236 74.5v42c0 25.333 -9 45.166 -27 59.499s-44 21.5 -78 21.5c-57.333 0 -100 -27 -128 -81l-63 34c38.667 73.333 101.667 110 189 110c69.333 0 123 -23.333 161 -70c19.333 24.667 41 42.667 65 54s51.667 17 83 17c64.667 0 114.834 -22.833 150.501 -68.5
s53.5 -111.167 53.5 -196.5v-20h-333v-15c0 -57.333 13 -101.333 39 -132s61.333 -46 106 -46c32 0 60.5 8 85.5 24s45.167 39 60.5 69l53 -33c-21.333 -43.333 -48.833 -74.666 -82.5 -93.999s-75.834 -29 -126.501 -29c-42 0 -77.333 8 -106 24s-52 42 -70 78z" />
    <glyph glyph-name="ccedilla" unicode="&#xe7;" horiz-adv-x="469" 
d="M131 -164c26 -6 49.0029 -10.335 69.0029 -13.002s37 -4 51 -4c39.333 0 59 13.333 59 40c0 17.333 -5.5 29.666 -16.5 36.999s-28.167 11 -51.5 11h-12c-4 0 -8.33301 -0.333008 -13 -1v87c-58.667 6 -103.334 31.667 -134.001 77s-46 109.333 -46 192
c0 86.667 18.667 153.5 56 200.5s88.666 70.5 153.999 70.5c45.333 0 84.333 -12.167 117 -36.5s56.667 -59.166 72 -104.499l-72 -23c-10.667 33.333 -26.334 58.5 -47.001 75.5s-44.667 25.5 -72 25.5c-42.667 0 -75.667 -17.5 -99 -52.5s-35 -86.833 -35 -155.5
c0 -70 11.667 -122.333 35 -157s57.666 -52 102.999 -52c27.333 0 52.833 8.83301 76.5 26.5s43.5 43.834 59.5 78.501l61 -32c-41.333 -88 -105.666 -133 -192.999 -135v-43h11c73.333 0 110 -28.667 110 -86c0 -59.333 -40.333 -89 -121 -89c-16 0 -34 1.83301 -54 5.5
s-42.667 8.83398 -68 15.501v42z" />
    <glyph glyph-name="egrave" unicode="&#xe8;" horiz-adv-x="481" 
d="M457 114c-20.667 -42 -48.1689 -73.001 -82.502 -93.001s-76.5 -30 -126.5 -30c-68 0 -120 22.833 -156 68.5s-54 113.167 -54 202.5c0 86.667 18.333 153.334 55 200.001s86.334 70 149.001 70c64 0 114 -22.5 150 -67.5s54 -110.167 54 -195.5v-22h-333v-17
c0 -56 13.167 -99.5 39.5 -130.5s60.5 -46.5 102.5 -46.5c32.667 0 61.834 8 87.501 24s46.167 39.333 61.5 70zM368.998 308.999c-1.33301 52 -13.332 91.833 -35.999 119.5s-52.667 41.5 -90 41.5c-38.667 0 -69.334 -13.833 -92.001 -41.5s-35 -67.5 -37 -119.5h255z
M264.999 586.999l-137 170h87l102 -170h-52z" />
    <glyph glyph-name="eacute" unicode="&#xe9;" horiz-adv-x="481" 
d="M457 114c-20.667 -42 -48.1689 -73.001 -82.502 -93.001s-76.5 -30 -126.5 -30c-68 0 -120 22.833 -156 68.5s-54 113.167 -54 202.5c0 86.667 18.333 153.334 55 200.001s86.334 70 149.001 70c64 0 114 -22.5 150 -67.5s54 -110.167 54 -195.5v-22h-333v-17
c0 -56 13.167 -99.5 39.5 -130.5s60.5 -46.5 102.5 -46.5c32.667 0 61.834 8 87.501 24s46.167 39.333 61.5 70zM368.998 308.999c-1.33301 52 -13.332 91.833 -35.999 119.5s-52.667 41.5 -90 41.5c-38.667 0 -69.334 -13.833 -92.001 -41.5s-35 -67.5 -37 -119.5h255z
M284.999 756.999h87l-137 -170h-52z" />
    <glyph glyph-name="ecircumflex" unicode="&#xea;" horiz-adv-x="481" 
d="M457 114c-20.667 -42 -48.1689 -73.001 -82.502 -93.001s-76.5 -30 -126.5 -30c-68 0 -120 22.833 -156 68.5s-54 113.167 -54 202.5c0 86.667 18.333 153.334 55 200.001s86.334 70 149.001 70c64 0 114 -22.5 150 -67.5s54 -110.167 54 -195.5v-22h-333v-17
c0 -56 13.167 -99.5 39.5 -130.5s60.5 -46.5 102.5 -46.5c32.667 0 61.834 8 87.501 24s46.167 39.333 61.5 70zM368.998 308.999c-1.33301 52 -13.332 91.833 -35.999 119.5s-52.667 41.5 -90 41.5c-38.667 0 -69.334 -13.833 -92.001 -41.5s-35 -67.5 -37 -119.5h255z
M205.999 756.999h87l96 -170h-52l-87 118l-88 -118h-52z" />
    <glyph glyph-name="edieresis" unicode="&#xeb;" horiz-adv-x="481" 
d="M457 114c-20.667 -42 -48.1689 -73.001 -82.502 -93.001s-76.5 -30 -126.5 -30c-68 0 -120 22.833 -156 68.5s-54 113.167 -54 202.5c0 86.667 18.333 153.334 55 200.001s86.334 70 149.001 70c64 0 114 -22.5 150 -67.5s54 -110.167 54 -195.5v-22h-333v-17
c0 -56 13.167 -99.5 39.5 -130.5s60.5 -46.5 102.5 -46.5c32.667 0 61.834 8 87.501 24s46.167 39.333 61.5 70zM368.998 308.999c-1.33301 52 -13.332 91.833 -35.999 119.5s-52.667 41.5 -90 41.5c-38.667 0 -69.334 -13.833 -92.001 -41.5s-35 -67.5 -37 -119.5h255z
M132.999 722.999h78v-88h-78v88zM288.999 722.999h78v-88h-78v88z" />
    <glyph glyph-name="igrave" unicode="&#xec;" horiz-adv-x="248" 
d="M87 523h74v-523h-74v523zM140 587l-137 170h87l102 -170h-52z" />
    <glyph glyph-name="iacute" unicode="&#xed;" horiz-adv-x="248" 
d="M87 523h74v-523h-74v523zM160 757h87l-137 -170h-52z" />
    <glyph glyph-name="icircumflex" unicode="&#xee;" horiz-adv-x="248" 
d="M87 523h74v-523h-74v523zM81 757h87l96 -170h-52l-87 118l-88 -118h-52z" />
    <glyph glyph-name="idieresis" unicode="&#xef;" horiz-adv-x="248" 
d="M87 523h74v-523h-74v523zM8 723h78v-88h-78v88zM164 723h78v-88h-78v88z" />
    <glyph glyph-name="eth" unicode="&#xf0;" horiz-adv-x="503" 
d="M108 247c0 -65.333 12.5 -114.667 37.5 -148s60.5 -50 106.5 -50s81.333 16.5 106 49.5s37 82.5 37 148.5c0 65.333 -12.333 114.666 -37 147.999s-60 50 -106 50s-81.5 -16.667 -106.5 -50s-37.5 -82.666 -37.5 -147.999zM314 496.999
c-26 36 -54.999 65.999 -86.999 89.999l-118 -72l-25 37l107 64c-36 24.667 -74 45.334 -114 62.001l22 56c55.333 -19.333 106.666 -45.666 153.999 -78.999l113 68l23 -36l-99 -61c120 -104 180 -230.333 180 -379c0 -83.333 -19.167 -146.833 -57.5 -190.5
s-91.833 -65.5 -160.5 -65.5s-122.167 22 -160.5 66s-57.5 107.333 -57.5 190c0 83.333 19.167 147.166 57.5 191.499s91.833 66.5 160.5 66.5c21.333 0 42 -2.66699 62 -8z" />
    <glyph glyph-name="ntilde" unicode="&#xf1;" horiz-adv-x="536" 
d="M82 523h66.999v-79c28 30 55.833 52.167 83.5 66.5s57.5 21.5 89.5 21.5c43.333 0 76.833 -12.5 100.5 -37.5s35.5 -60.833 35.5 -107.5v-387h-71v360c0 38 -6.16699 65.667 -18.5 83s-34.166 26 -65.499 26c-51.333 0 -101 -26.333 -149 -79v-390h-72v523zM409.999 717
c-8 -31.333 -20.333 -54.667 -37 -70s-36.667 -23 -60 -23c-6 0 -11.5 0.5 -16.5 1.5s-10.167 2.16699 -15.5 3.5l-39 13c-8 2.66699 -16.667 4 -26 4c-22 0 -37.667 -10.333 -47 -31h-43c14 60.667 46.333 91 97 91c9.33301 0 19 -1.66699 29 -5l38 -13
c11.333 -3.33301 21.333 -5 30 -5c23.333 0 39 11.333 47 34h43v0z" />
    <glyph glyph-name="ograve" unicode="&#xf2;" horiz-adv-x="503" 
d="M34 262c0 87.333 19.167 154.166 57.5 200.499s91.833 69.5 160.5 69.5s122.167 -23.167 160.5 -69.5s57.5 -113.166 57.5 -200.499s-19.167 -154.333 -57.5 -201s-91.833 -70 -160.5 -70s-122.167 23.333 -160.5 70s-57.5 113.667 -57.5 201zM108 262
c0 -69.333 12.5 -121.667 37.5 -157s60.5 -53 106.5 -53s81.333 17.667 106 53s37 87.333 37 156c0 69.333 -12.333 121.5 -37 156.5s-60 52.5 -106 52.5s-81.5 -17.5 -106.5 -52.5s-37.5 -86.833 -37.5 -155.5zM267 586.999l-137 170h87l102 -170h-52z" />
    <glyph glyph-name="oacute" unicode="&#xf3;" horiz-adv-x="503" 
d="M34 262c0 87.333 19.167 154.166 57.5 200.499s91.833 69.5 160.5 69.5s122.167 -23.167 160.5 -69.5s57.5 -113.166 57.5 -200.499s-19.167 -154.333 -57.5 -201s-91.833 -70 -160.5 -70s-122.167 23.333 -160.5 70s-57.5 113.667 -57.5 201zM108 262
c0 -69.333 12.5 -121.667 37.5 -157s60.5 -53 106.5 -53s81.333 17.667 106 53s37 87.333 37 156c0 69.333 -12.333 121.5 -37 156.5s-60 52.5 -106 52.5s-81.5 -17.5 -106.5 -52.5s-37.5 -86.833 -37.5 -155.5zM287 756.999h87l-137 -170h-52z" />
    <glyph glyph-name="ocircumflex" unicode="&#xf4;" horiz-adv-x="503" 
d="M34 262c0 87.333 19.167 154.166 57.5 200.499s91.833 69.5 160.5 69.5s122.167 -23.167 160.5 -69.5s57.5 -113.166 57.5 -200.499s-19.167 -154.333 -57.5 -201s-91.833 -70 -160.5 -70s-122.167 23.333 -160.5 70s-57.5 113.667 -57.5 201zM108 262
c0 -69.333 12.5 -121.667 37.5 -157s60.5 -53 106.5 -53s81.333 17.667 106 53s37 87.333 37 156c0 69.333 -12.333 121.5 -37 156.5s-60 52.5 -106 52.5s-81.5 -17.5 -106.5 -52.5s-37.5 -86.833 -37.5 -155.5zM208 756.999h87l96 -170h-52l-87 118l-88 -118h-52z" />
    <glyph glyph-name="otilde" unicode="&#xf5;" horiz-adv-x="503" 
d="M34 262c0 87.333 19.167 154.166 57.5 200.499s91.833 69.5 160.5 69.5s122.167 -23.167 160.5 -69.5s57.5 -113.166 57.5 -200.499s-19.167 -154.333 -57.5 -201s-91.833 -70 -160.5 -70s-122.167 23.333 -160.5 70s-57.5 113.667 -57.5 201zM108 262
c0 -69.333 12.5 -121.667 37.5 -157s60.5 -53 106.5 -53s81.333 17.667 106 53s37 87.333 37 156c0 69.333 -12.333 121.5 -37 156.5s-60 52.5 -106 52.5s-81.5 -17.5 -106.5 -52.5s-37.5 -86.833 -37.5 -155.5zM394 716.999c-8 -31.333 -20.333 -54.667 -37 -70
s-36.667 -23 -60 -23c-6 0 -11.5 0.5 -16.5 1.5s-10.167 2.16699 -15.5 3.5l-39 13c-8 2.66699 -16.667 4 -26 4c-22 0 -37.667 -10.333 -47 -31h-43c14 60.667 46.333 91 97 91c9.33301 0 19 -1.66699 29 -5l38 -13c11.333 -3.33301 21.333 -5 30 -5
c23.333 0 39 11.333 47 34h43v0z" />
    <glyph glyph-name="odieresis" unicode="&#xf6;" horiz-adv-x="503" 
d="M34 262c0 87.333 19.167 154.166 57.5 200.499s91.833 69.5 160.5 69.5s122.167 -23.167 160.5 -69.5s57.5 -113.166 57.5 -200.499s-19.167 -154.333 -57.5 -201s-91.833 -70 -160.5 -70s-122.167 23.333 -160.5 70s-57.5 113.667 -57.5 201zM108 262
c0 -69.333 12.5 -121.667 37.5 -157s60.5 -53 106.5 -53s81.333 17.667 106 53s37 87.333 37 156c0 69.333 -12.333 121.5 -37 156.5s-60 52.5 -106 52.5s-81.5 -17.5 -106.5 -52.5s-37.5 -86.833 -37.5 -155.5zM135 722.999h78v-88h-78v88zM291 722.999h78v-88h-78v88z" />
    <glyph glyph-name="divide" unicode="&#xf7;" horiz-adv-x="833" 
d="M417 530c15.333 0 28.5 -5.5 39.5 -16.5s16.5 -24.167 16.5 -39.5s-5.33301 -28.5 -16 -39.5s-24 -16.5 -40 -16.5s-29.333 5.5 -40 16.5s-16 24.167 -16 39.5s5.5 28.5 16.5 39.5s24.167 16.5 39.5 16.5zM709 270h-585v57h585v-57zM417 178
c15.333 0 28.5 -5.5 39.5 -16.5s16.5 -24.167 16.5 -39.5s-5.33301 -28.5 -16 -39.5s-24 -16.5 -40 -16.5c-15.333 0 -28.5 5.5 -39.5 16.5s-16.5 24.167 -16.5 39.5c0 16 5.5 29.333 16.5 40s24.167 16 39.5 16z" />
    <glyph glyph-name="oslash" unicode="&#xf8;" horiz-adv-x="503" 
d="M91 63c-20 26 -34.667 54.999 -44 86.999s-14 68 -14 108c0 89.333 19.167 157.333 57.5 204s92.5 70 162.5 70c44.667 0 82.334 -9.66699 113.001 -29l42 68l51 -32l-48 -76c39.333 -43.333 59 -111.666 59 -204.999c0 -86 -19.333 -152 -58 -198s-93 -69 -163 -69
c-40.667 0 -78.334 10.333 -113.001 31l-49 -78l-51 32zM332 443.999c-20.667 16.667 -47 25.001 -79 25.001c-96.667 0 -145 -70.667 -145 -212c0 -24.667 1.83301 -47.834 5.5 -69.501s10.167 -42.5 19.5 -62.5zM169 79c24.667 -18 51.667 -27 81 -27
c96.667 0 145 72.667 145 218c0 26 -2 49.667 -6 71s-10.667 41 -20 59l-200 -321v0z" />
    <glyph glyph-name="ugrave" unicode="&#xf9;" horiz-adv-x="536" 
d="M453 0h-65.999v79c-28 -30 -56 -52.167 -84 -66.5s-58 -21.5 -90 -21.5c-43.333 0 -76.833 12.5 -100.5 37.5s-35.5 60.833 -35.5 107.5v387h72v-360c0 -38 6.16699 -65.667 18.5 -83s34.166 -26 65.499 -26c50.667 0 100 26.333 148 79v390h72v-523zM283.001 587
l-137 170h87l102 -170h-52z" />
    <glyph glyph-name="uacute" unicode="&#xfa;" horiz-adv-x="536" 
d="M453 0h-65.999v79c-28 -30 -56 -52.167 -84 -66.5s-58 -21.5 -90 -21.5c-43.333 0 -76.833 12.5 -100.5 37.5s-35.5 60.833 -35.5 107.5v387h72v-360c0 -38 6.16699 -65.667 18.5 -83s34.166 -26 65.499 -26c50.667 0 100 26.333 148 79v390h72v-523zM303.001 757h87
l-137 -170h-52z" />
    <glyph glyph-name="ucircumflex" unicode="&#xfb;" horiz-adv-x="536" 
d="M453 0h-65.999v79c-28 -30 -56 -52.167 -84 -66.5s-58 -21.5 -90 -21.5c-43.333 0 -76.833 12.5 -100.5 37.5s-35.5 60.833 -35.5 107.5v387h72v-360c0 -38 6.16699 -65.667 18.5 -83s34.166 -26 65.499 -26c50.667 0 100 26.333 148 79v390h72v-523zM224.001 757h87
l96 -170h-52l-87 118l-88 -118h-52z" />
    <glyph glyph-name="udieresis" unicode="&#xfc;" horiz-adv-x="536" 
d="M453 0h-65.999v79c-28 -30 -56 -52.167 -84 -66.5s-58 -21.5 -90 -21.5c-43.333 0 -76.833 12.5 -100.5 37.5s-35.5 60.833 -35.5 107.5v387h72v-360c0 -38 6.16699 -65.667 18.5 -83s34.166 -26 65.499 -26c50.667 0 100 26.333 148 79v390h72v-523zM151.001 723h78v-88
h-78v88zM307.001 723h78v-88h-78v88z" />
    <glyph glyph-name="yacute" unicode="&#xfd;" horiz-adv-x="458" 
d="M10 523l73.9971 0.000976562l152 -418l136 418h74l-179 -532c-10 -30 -20.5 -56.5 -31.5 -79.5s-23.667 -42 -38 -57s-31.166 -26.333 -50.499 -34s-42.666 -11.5 -69.999 -11.5c-16.667 0 -32 2 -46 6v67c9.33301 -2 17.333 -3.33301 24 -4s12.334 -1 17.001 -1
c36.667 0 64.167 10.167 82.5 30.5s32.833 54.166 43.5 101.499zM264.997 757.001h87l-137 -170h-52z" />
    <glyph glyph-name="thorn" unicode="&#xfe;" horiz-adv-x="541" 
d="M82 723l72.001 0.000976562v-259c33.333 45.333 78.666 68 135.999 68c68.667 0 122 -23.333 160 -70s57 -114.334 57 -203.001c0 -87.333 -18.667 -153.833 -56 -199.5s-91.333 -68.5 -162 -68.5c-57.333 0 -102.333 21.667 -135 65v-246h-72v913zM154.001 131.001
c19.333 -28 40.167 -48.335 62.5 -61.002s48.166 -19 77.499 -19c44 0 78 17.333 102 52s36 86.334 36 155.001c0 70 -12.167 122.833 -36.5 158.5s-59.166 53.5 -104.499 53.5c-30 0 -56 -6.16699 -78 -18.5s-41.667 -32.166 -59 -59.499v-261v0z" />
    <glyph glyph-name="ydieresis" unicode="&#xff;" horiz-adv-x="458" 
d="M10 523l73.9971 0.000976562l152 -418l136 418h74l-179 -532c-10 -30 -20.5 -56.5 -31.5 -79.5s-23.667 -42 -38 -57s-31.166 -26.333 -50.499 -34s-42.666 -11.5 -69.999 -11.5c-16.667 0 -32 2 -46 6v67c9.33301 -2 17.333 -3.33301 24 -4s12.334 -1 17.001 -1
c36.667 0 64.167 10.167 82.5 30.5s32.833 54.166 43.5 101.499zM112.997 723.001h78v-88h-78v88zM268.997 723.001h78v-88h-78v88z" />
    <glyph glyph-name="Amacron" unicode="&#x100;" 
d="M240 723h122l222 -723h-84l-65 225h-269l-64 -225h-85zM413 292l-108 377h-11l-109 -377h228zM175 875h252v-61h-252v61z" />
    <glyph glyph-name="amacron" unicode="&#x101;" horiz-adv-x="505" 
d="M352 71c-48.667 -52.667 -103.999 -79.001 -165.999 -79.001c-42.667 0 -77.334 13.333 -104.001 40s-40 61.334 -40 104.001c0 28.667 6.33301 54 19 76s31.834 41.5 57.501 58.5s58.167 31.833 97.5 44.5s85.666 24 138.999 34v38c0 23.333 -9.5 42.833 -28.5 58.5
s-44.5 23.5 -76.5 23.5c-28 0 -53 -6.83301 -75 -20.5s-39.667 -34.167 -53 -61.5l-63 34c38.667 74 103.667 111 195 111c55.333 0 98.333 -13.333 129 -40s46 -65 46 -115v-292c0 -27.333 3.66699 -53 11 -77v-8h-80l-8 71v0zM355.001 280.999
c-82 -16.667 -142.666 -35.834 -181.999 -57.501s-59 -51.167 -59 -88.5c0 -23.333 7.5 -42.166 22.5 -56.499s35.833 -21.5 62.5 -21.5c23.333 0 47.666 6.66699 72.999 20s53 33.333 83 60v144zM126.002 706.999h252v-61h-252v61z" />
    <glyph glyph-name="Abreve" unicode="&#x102;" 
d="M240 723h122l222 -723h-84l-65 225h-269l-64 -225h-85zM413 292l-108 377h-11l-109 -377h228zM207 934c2 -25.333 10.499 -43.5 25.499 -54.5s37.833 -16.5 68.5 -16.5s53.5 5.5 68.5 16.5s23.5 29.167 25.5 54.5h44c-3.33301 -46 -16 -79.667 -38 -101
s-55.333 -32 -100 -32c-44 0 -77.167 10.667 -99.5 32s-35.166 55 -38.499 101h44z" />
    <glyph glyph-name="abreve" unicode="&#x103;" horiz-adv-x="505" 
d="M352 71c-48.667 -52.667 -103.999 -79.001 -165.999 -79.001c-42.667 0 -77.334 13.333 -104.001 40s-40 61.334 -40 104.001c0 28.667 6.33301 54 19 76s31.834 41.5 57.501 58.5s58.167 31.833 97.5 44.5s85.666 24 138.999 34v38c0 23.333 -9.5 42.833 -28.5 58.5
s-44.5 23.5 -76.5 23.5c-28 0 -53 -6.83301 -75 -20.5s-39.667 -34.167 -53 -61.5l-63 34c38.667 74 103.667 111 195 111c55.333 0 98.333 -13.333 129 -40s46 -65 46 -115v-292c0 -27.333 3.66699 -53 11 -77v-8h-80l-8 71v0zM355.001 280.999
c-82 -16.667 -142.666 -35.834 -181.999 -57.501s-59 -51.167 -59 -88.5c0 -23.333 7.5 -42.166 22.5 -56.499s35.833 -21.5 62.5 -21.5c23.333 0 47.666 6.66699 72.999 20s53 33.333 83 60v144zM158.002 737.999c2 -25.333 10.499 -43.5 25.499 -54.5
s37.833 -16.5 68.5 -16.5s53.5 5.5 68.5 16.5s23.5 29.167 25.5 54.5h44c-3.33301 -46 -16 -79.667 -38 -101s-55.333 -32 -100 -32c-44 0 -77.167 10.667 -99.5 32s-35.166 55 -38.499 101h44z" />
    <glyph glyph-name="Aogonek" unicode="&#x104;" 
d="M240 723h122l222 -723c-22 -20 -38.667 -38.833 -50 -56.5s-17 -35.167 -17 -52.5c0 -14.667 3.5 -25 10.5 -31s19.167 -9 36.5 -9h40v-63h-39c-72 0 -108 26.667 -108 80c0 24 7.66699 46 23 66s38 42 68 66h-48l-65 225h-269l-64 -225h-85zM413 292l-108 377h-11
l-109 -377h228z" />
    <glyph glyph-name="aogonek" unicode="&#x105;" horiz-adv-x="505" 
d="M352 71c-48.667 -52.667 -103.999 -79.001 -165.999 -79.001c-42.667 0 -77.334 13.333 -104.001 40s-40 61.334 -40 104.001c0 28.667 6.33301 54 19 76s31.834 41.5 57.501 58.5s58.167 31.833 97.5 44.5s85.666 24 138.999 34v38c0 23.333 -9.5 42.833 -28.5 58.5
s-44.5 23.5 -76.5 23.5c-28 0 -53 -6.83301 -75 -20.5s-39.667 -34.167 -53 -61.5l-63 34c38.667 74 103.667 111 195 111c55.333 0 98.333 -13.333 129 -40s46 -65 46 -115v-292c0 -27.333 3.66699 -53 11 -77v-8c-22 -20 -38.667 -38.833 -50 -56.5s-17 -35.167 -17 -52.5
c0 -14.667 3.5 -25 10.5 -31s19.167 -9 36.5 -9h40v-63h-39c-72 0 -108 26.667 -108 80c0 24 7.66699 46 23 66s38 42 68 66h-44l-8 71v0zM355.001 280.999c-82 -16.667 -142.666 -35.834 -181.999 -57.501s-59 -51.167 -59 -88.5c0 -23.333 7.5 -42.166 22.5 -56.499
s35.833 -21.5 62.5 -21.5c23.333 0 47.666 6.66699 72.999 20s53 33.333 83 60v144z" />
    <glyph glyph-name="Cacute" unicode="&#x106;" horiz-adv-x="604" 
d="M579 217c-34.667 -152.667 -119.664 -229 -254.997 -229c-88.667 0 -157.167 32 -205.5 96s-72.5 156.667 -72.5 278c0 59.333 6.5 112.166 19.5 158.499s31.333 85.333 55 117s52.167 55.834 85.5 72.501s70.666 25 111.999 25c134.667 0 217.667 -72 249 -216l-75 -19
c-11.333 54.667 -31.333 96.167 -60 124.5s-64.334 42.5 -107.001 42.5c-62.667 0 -111.334 -26 -146.001 -78s-52 -128.667 -52 -230c0 -98.667 17.667 -173.667 53 -225s84.333 -77 147 -77c47.333 0 86.5 15 117.5 45s51.5 73.667 61.5 131l73 -16v0zM337.003 960h87
l-137 -170h-52z" />
    <glyph glyph-name="cacute" unicode="&#x107;" horiz-adv-x="469" 
d="M446 126c-42.667 -90 -108.996 -135.002 -198.996 -135.002c-68.667 0 -120.834 22.833 -156.501 68.5s-53.5 113.167 -53.5 202.5c0 86.667 18.667 153.5 56 200.5s88.666 70.5 153.999 70.5c45.333 0 84.333 -12.167 117 -36.5s56.667 -59.166 72 -104.499l-72 -23
c-10.667 33.333 -26.334 58.5 -47.001 75.5s-44.667 25.5 -72 25.5c-42.667 0 -75.667 -17.5 -99 -52.5s-35 -86.833 -35 -155.5c0 -70 11.667 -122.333 35 -157s57.666 -52 102.999 -52c27.333 0 52.833 8.83301 76.5 26.5s43.5 43.834 59.5 78.501l61 -32v0z
M270.004 756.998h87l-137 -170h-52z" />
    <glyph glyph-name="Ccircumflex" unicode="&#x108;" horiz-adv-x="604" 
d="M579 217c-34.667 -152.667 -119.664 -229 -254.997 -229c-88.667 0 -157.167 32 -205.5 96s-72.5 156.667 -72.5 278c0 59.333 6.5 112.166 19.5 158.499s31.333 85.333 55 117s52.167 55.834 85.5 72.501s70.666 25 111.999 25c134.667 0 217.667 -72 249 -216l-75 -19
c-11.333 54.667 -31.333 96.167 -60 124.5s-64.334 42.5 -107.001 42.5c-62.667 0 -111.334 -26 -146.001 -78s-52 -128.667 -52 -230c0 -98.667 17.667 -173.667 53 -225s84.333 -77 147 -77c47.333 0 86.5 15 117.5 45s51.5 73.667 61.5 131l73 -16v0zM258.003 960h87
l96 -170h-52l-87 118l-88 -118h-52z" />
    <glyph glyph-name="ccircumflex" unicode="&#x109;" horiz-adv-x="469" 
d="M446 126c-42.667 -90 -108.996 -135.002 -198.996 -135.002c-68.667 0 -120.834 22.833 -156.501 68.5s-53.5 113.167 -53.5 202.5c0 86.667 18.667 153.5 56 200.5s88.666 70.5 153.999 70.5c45.333 0 84.333 -12.167 117 -36.5s56.667 -59.166 72 -104.499l-72 -23
c-10.667 33.333 -26.334 58.5 -47.001 75.5s-44.667 25.5 -72 25.5c-42.667 0 -75.667 -17.5 -99 -52.5s-35 -86.833 -35 -155.5c0 -70 11.667 -122.333 35 -157s57.666 -52 102.999 -52c27.333 0 52.833 8.83301 76.5 26.5s43.5 43.834 59.5 78.501l61 -32v0z
M191.004 756.998h87l96 -170h-52l-87 118l-88 -118h-52z" />
    <glyph glyph-name="Cdotaccent" unicode="&#x10a;" horiz-adv-x="604" 
d="M579 217c-34.667 -152.667 -119.664 -229 -254.997 -229c-88.667 0 -157.167 32 -205.5 96s-72.5 156.667 -72.5 278c0 59.333 6.5 112.166 19.5 158.499s31.333 85.333 55 117s52.167 55.834 85.5 72.501s70.666 25 111.999 25c134.667 0 217.667 -72 249 -216l-75 -19
c-11.333 54.667 -31.333 96.167 -60 124.5s-64.334 42.5 -107.001 42.5c-62.667 0 -111.334 -26 -146.001 -78s-52 -128.667 -52 -230c0 -98.667 17.667 -173.667 53 -225s84.333 -77 147 -77c47.333 0 86.5 15 117.5 45s51.5 73.667 61.5 131l73 -16v0zM279.003 897h82v-97
h-82v97z" />
    <glyph glyph-name="cdotaccent" unicode="&#x10b;" horiz-adv-x="469" 
d="M446 126c-42.667 -90 -108.996 -135.002 -198.996 -135.002c-68.667 0 -120.834 22.833 -156.501 68.5s-53.5 113.167 -53.5 202.5c0 86.667 18.667 153.5 56 200.5s88.666 70.5 153.999 70.5c45.333 0 84.333 -12.167 117 -36.5s56.667 -59.166 72 -104.499l-72 -23
c-10.667 33.333 -26.334 58.5 -47.001 75.5s-44.667 25.5 -72 25.5c-42.667 0 -75.667 -17.5 -99 -52.5s-35 -86.833 -35 -155.5c0 -70 11.667 -122.333 35 -157s57.666 -52 102.999 -52c27.333 0 52.833 8.83301 76.5 26.5s43.5 43.834 59.5 78.501l61 -32v0z
M206.004 722.998h86v-88h-86v88z" />
    <glyph glyph-name="Ccaron" unicode="&#x10c;" horiz-adv-x="604" 
d="M579 217c-34.667 -152.667 -119.664 -229 -254.997 -229c-88.667 0 -157.167 32 -205.5 96s-72.5 156.667 -72.5 278c0 59.333 6.5 112.166 19.5 158.499s31.333 85.333 55 117s52.167 55.834 85.5 72.501s70.666 25 111.999 25c134.667 0 217.667 -72 249 -216l-75 -19
c-11.333 54.667 -31.333 96.167 -60 124.5s-64.334 42.5 -107.001 42.5c-62.667 0 -111.334 -26 -146.001 -78s-52 -128.667 -52 -230c0 -98.667 17.667 -173.667 53 -225s84.333 -77 147 -77c47.333 0 86.5 15 117.5 45s51.5 73.667 61.5 131l73 -16v0zM214.003 960
l88 -119l87 119h52l-96 -170h-87l-96 170h52z" />
    <glyph glyph-name="ccaron" unicode="&#x10d;" horiz-adv-x="469" 
d="M446 126c-42.667 -90 -108.996 -135.002 -198.996 -135.002c-68.667 0 -120.834 22.833 -156.501 68.5s-53.5 113.167 -53.5 202.5c0 86.667 18.667 153.5 56 200.5s88.666 70.5 153.999 70.5c45.333 0 84.333 -12.167 117 -36.5s56.667 -59.166 72 -104.499l-72 -23
c-10.667 33.333 -26.334 58.5 -47.001 75.5s-44.667 25.5 -72 25.5c-42.667 0 -75.667 -17.5 -99 -52.5s-35 -86.833 -35 -155.5c0 -70 11.667 -122.333 35 -157s57.666 -52 102.999 -52c27.333 0 52.833 8.83301 76.5 26.5s43.5 43.834 59.5 78.501l61 -32v0z
M147.004 756.998l88 -119l87 119h52l-96 -170h-87l-96 170h52z" />
    <glyph glyph-name="Dcaron" unicode="&#x10e;" horiz-adv-x="678" 
d="M97 723l171.999 0.000976562c48.667 0 91.334 -3.83301 128.001 -11.5s70 -22.834 100 -45.501c40 -30 70.833 -70.833 92.5 -122.5s32.5 -112.167 32.5 -181.5c0 -241.333 -123.667 -362 -371 -362h-154v723zM175.999 656.001l0.000976562 -585h64
c46 0 86.167 3.16699 120.5 9.5s64.166 19.833 89.499 40.5c30 23.333 53.167 55.333 69.5 96s24.5 88.667 24.5 144c0 116 -31.667 198.667 -95 248c-27.333 20.667 -57 33.667 -89 39s-68.333 8 -109 8h-75zM251 960.001l88 -119l87 119h52l-96 -170h-87l-96 170h52z" />
    <glyph glyph-name="dcaron" unicode="&#x10f;" horiz-adv-x="567" 
d="M456 163c0 -27.333 0.333008 -54.333 1 -81s2.66699 -54 6 -82h-56l-17 66c-19.333 -26 -40.5 -44.833 -63.5 -56.5s-50.5 -17.5 -82.5 -17.5c-64.667 0 -115.167 23.5 -151.5 70.5s-54.5 114.167 -54.5 201.5s18.333 153.833 55 199.5s88.334 68.5 155.001 68.5
c61.333 0 106.666 -23 135.999 -69v260h72v-560zM384 392c-18.667 27.333 -39 47.5 -61 60.5s-47 19.5 -75 19.5c-42 0 -75 -17.167 -99 -51.5s-36 -84.833 -36 -151.5c0 -144 47.667 -216 143 -216c53.333 0 96 26 128 78v261v0zM542 618h-42v104h97v-117l-61 -145l-49 2z
" />
    <glyph glyph-name="Dcroat" unicode="&#x110;" horiz-adv-x="682" 
d="M101 350l-101 0.000976562v58h101v315h171c48.667 0 91.5 -3.83301 128.5 -11.5s70.5 -22.834 100.5 -45.501c40 -30 70.833 -70.833 92.5 -122.5s32.5 -112.167 32.5 -181.5c0 -241.333 -123.667 -362 -371 -362h-154v350zM179 656.001v-248.001h162v-58h-162v-279h65
c46 0 86 3.16699 120 9.5s63.667 19.833 89 40.5c30 23.333 53.167 55.333 69.5 96s24.5 88.667 24.5 144c0 116.667 -31.333 199.334 -94 248.001c-27.333 20.667 -57 33.667 -89 39s-68.333 8 -109 8h-76z" />
    <glyph glyph-name="dcroat" unicode="&#x111;" horiz-adv-x="538" 
d="M456 653h74v-62h-74v-428c0 -27.333 0.333008 -54.333 1 -81s2.66699 -54 6 -82h-56l-17 66c-19.333 -26 -40.5 -44.833 -63.5 -56.5s-50.5 -17.5 -82.5 -17.5c-64.667 0 -115.167 23.5 -151.5 70.5s-54.5 114.167 -54.5 201.5s18.333 153.833 55 199.5
s88.334 68.5 155.001 68.5c61.333 0 106.666 -23 135.999 -69v128h-192v62h192v70h72v-70zM384 392c-18.667 27.333 -39 47.5 -61 60.5s-47 19.5 -75 19.5c-42 0 -75 -17.167 -99 -51.5s-36 -84.833 -36 -151.5c0 -144 47.667 -216 143 -216c53.333 0 96 26 128 78v261v0z
" />
    <glyph glyph-name="Emacron" unicode="&#x112;" horiz-adv-x="571" 
d="M97 723h427v-68h-347v-241h246v-68h-246v-277h364v-69h-444v723zM159 875h252v-61h-252v61z" />
    <glyph glyph-name="emacron" unicode="&#x113;" horiz-adv-x="481" 
d="M457 114c-20.667 -42 -48.1689 -73.001 -82.502 -93.001s-76.5 -30 -126.5 -30c-68 0 -120 22.833 -156 68.5s-54 113.167 -54 202.5c0 86.667 18.333 153.334 55 200.001s86.334 70 149.001 70c64 0 114 -22.5 150 -67.5s54 -110.167 54 -195.5v-22h-333v-17
c0 -56 13.167 -99.5 39.5 -130.5s60.5 -46.5 102.5 -46.5c32.667 0 61.834 8 87.501 24s46.167 39.333 61.5 70zM368.998 308.999c-1.33301 52 -13.332 91.833 -35.999 119.5s-52.667 41.5 -90 41.5c-38.667 0 -69.334 -13.833 -92.001 -41.5s-35 -67.5 -37 -119.5h255z
M114.999 706.999h252v-61h-252v61z" />
    <glyph glyph-name="Edotaccent" unicode="&#x116;" horiz-adv-x="571" 
d="M97 723h427v-68h-347v-241h246v-68h-246v-277h364v-69h-444v723zM244 897h82v-97h-82v97z" />
    <glyph glyph-name="edotaccent" unicode="&#x117;" horiz-adv-x="481" 
d="M457 114c-20.667 -42 -48.1689 -73.001 -82.502 -93.001s-76.5 -30 -126.5 -30c-68 0 -120 22.833 -156 68.5s-54 113.167 -54 202.5c0 86.667 18.333 153.334 55 200.001s86.334 70 149.001 70c64 0 114 -22.5 150 -67.5s54 -110.167 54 -195.5v-22h-333v-17
c0 -56 13.167 -99.5 39.5 -130.5s60.5 -46.5 102.5 -46.5c32.667 0 61.834 8 87.501 24s46.167 39.333 61.5 70zM368.998 308.999c-1.33301 52 -13.332 91.833 -35.999 119.5s-52.667 41.5 -90 41.5c-38.667 0 -69.334 -13.833 -92.001 -41.5s-35 -67.5 -37 -119.5h255z
M197.999 722.999h86v-88h-86v88z" />
    <glyph glyph-name="Eogonek" unicode="&#x118;" horiz-adv-x="571" 
d="M97 723h427v-68h-347v-241h246v-68h-246v-277h364v-69c-22 -20 -38.667 -38.833 -50 -56.5s-17 -35.167 -17 -52.5c0 -14.667 3.5 -25 10.5 -31s19.167 -9 36.5 -9h40v-63h-39c-72 0 -108 26.667 -108 80c0 24 7.66699 46 23 66s38 42 68 66h-408v723z" />
    <glyph glyph-name="eogonek" unicode="&#x119;" horiz-adv-x="481" 
d="M457 114c-29.333 -60.667 -74.6699 -98.668 -136.003 -114.001c-21.333 -20 -37.666 -38.833 -48.999 -56.5s-17 -35.167 -17 -52.5c0 -14.667 3.5 -25 10.5 -31s19.167 -9 36.5 -9h40v-63h-39c-72 0 -108 26.667 -108 80c0 22.667 6.66699 43.5 20 62.5
s33.333 39.5 60 61.5c-4.66699 -0.666992 -9.16699 -1 -13.5 -1h-13.5c-68 0 -120 22.833 -156 68.5s-54 113.167 -54 202.5c0 86.667 18.333 153.334 55 200.001s86.334 70 149.001 70c64 0 114 -22.5 150 -67.5s54 -110.167 54 -195.5v-22h-333v-17
c0 -56 13.167 -99.5 39.5 -130.5s60.5 -46.5 102.5 -46.5c32.667 0 61.834 8 87.501 24s46.167 39.333 61.5 70zM368.996 308.999c-1.33301 52 -13.332 91.833 -35.999 119.5s-52.667 41.5 -90 41.5c-38.667 0 -69.334 -13.833 -92.001 -41.5s-35 -67.5 -37 -119.5h255z" />
    <glyph glyph-name="Ecaron" unicode="&#x11a;" horiz-adv-x="571" 
d="M97 723h427v-68h-347v-241h246v-68h-246v-277h364v-69h-444v723zM197 960l88 -119l87 119h52l-96 -170h-87l-96 170h52z" />
    <glyph glyph-name="ecaron" unicode="&#x11b;" horiz-adv-x="481" 
d="M457 114c-20.667 -42 -48.1689 -73.001 -82.502 -93.001s-76.5 -30 -126.5 -30c-68 0 -120 22.833 -156 68.5s-54 113.167 -54 202.5c0 86.667 18.333 153.334 55 200.001s86.334 70 149.001 70c64 0 114 -22.5 150 -67.5s54 -110.167 54 -195.5v-22h-333v-17
c0 -56 13.167 -99.5 39.5 -130.5s60.5 -46.5 102.5 -46.5c32.667 0 61.834 8 87.501 24s46.167 39.333 61.5 70zM368.998 308.999c-1.33301 52 -13.332 91.833 -35.999 119.5s-52.667 41.5 -90 41.5c-38.667 0 -69.334 -13.833 -92.001 -41.5s-35 -67.5 -37 -119.5h255z
M152.999 756.999l88 -119l87 119h52l-96 -170h-87l-96 170h52z" />
    <glyph glyph-name="Gcircumflex" unicode="&#x11c;" horiz-adv-x="660" 
d="M519 79c-44 -60.667 -107.666 -90.999 -190.999 -90.999c-43.333 0 -82.333 8.33301 -117 25s-64.334 41 -89.001 73s-43.667 70.833 -57 116.5s-20 97.5 -20 155.5c0 121.333 25.167 214.5 75.5 279.5s120.5 97.5 210.5 97.5c127.333 0 211 -70.667 251 -212l-82 -16
c-28 106 -85.333 159 -172 159c-64 0 -113.5 -25.667 -148.5 -77s-52.5 -126.333 -52.5 -225c0 -99.333 18.333 -175.333 55 -228s87 -79 151 -79c52.667 0 95 15.167 127 45.5s48 73.166 48 128.499v51h-167v69h250v-351h-69zM286.001 960.001h87l96 -170h-52l-87 118
l-88 -118h-52z" />
    <glyph glyph-name="gcircumflex" unicode="&#x11d;" horiz-adv-x="486" 
d="M110 42c-42 14.667 -63.001 40.998 -63.001 78.998c0 18.667 5.83301 34.5 17.5 47.5s29.167 26.167 52.5 39.5c-44 32 -66 79.333 -66 142c0 56.667 17 101.334 51 134.001s81.333 49 142 49c48.667 0 89.667 -13 123 -39c17.333 15.333 33.5 26.833 48.5 34.5
s30.833 11.5 47.5 11.5h13v-68h-15c-15.333 0 -28 -1 -38 -3s-17.667 -6.33301 -23 -13c10.667 -15.333 18.167 -31.333 22.5 -48s6.5 -35 6.5 -55c0 -56 -16.833 -100.167 -50.5 -132.5s-79.834 -48.5 -138.501 -48.5c-24.667 0 -50.667 3.66699 -78 11
c-14.667 -5.33301 -25.667 -12.166 -33 -20.499s-11 -17.166 -11 -26.499c0 -10 3.16699 -17.5 9.5 -22.5s15.833 -8.83301 28.5 -11.5s28.334 -4.5 47.001 -5.5s40.334 -2.5 65.001 -4.5c34.667 -3.33301 65 -7.83301 91 -13.5s47.5 -13.667 64.5 -24
s29.667 -23.833 38 -40.5s12.5 -37.667 12.5 -63c0 -46 -19.667 -81 -59 -105s-98.333 -36 -177 -36c-143.333 0 -215 42.333 -215 127c0 25.333 7 46.166 21 62.499s36 30.5 66 42.5zM118.999 356.998c0 -40 10.5 -70.999 31.5 -92.999s51.167 -33 90.5 -33
c38 0 67.5 10.667 88.5 32s31.5 50.666 31.5 87.999c0 38 -11 68.167 -33 90.5s-52.333 33.5 -91 33.5c-36 0 -64.667 -10.667 -86 -32s-32 -50 -32 -86zM92.999 -52.001c0 -52.667 48 -79 144 -79c110.667 0 166 26.333 166 79c0 51.333 -55.667 77 -167 77
c-46.667 0 -82.167 -6.83301 -106.5 -20.5s-36.5 -32.5 -36.5 -56.5zM199.999 756.999h87l96 -170h-52l-87 118l-88 -118h-52z" />
    <glyph glyph-name="Gbreve" unicode="&#x11e;" horiz-adv-x="660" 
d="M519 79c-44 -60.667 -107.666 -90.999 -190.999 -90.999c-43.333 0 -82.333 8.33301 -117 25s-64.334 41 -89.001 73s-43.667 70.833 -57 116.5s-20 97.5 -20 155.5c0 121.333 25.167 214.5 75.5 279.5s120.5 97.5 210.5 97.5c127.333 0 211 -70.667 251 -212l-82 -16
c-28 106 -85.333 159 -172 159c-64 0 -113.5 -25.667 -148.5 -77s-52.5 -126.333 -52.5 -225c0 -99.333 18.333 -175.333 55 -228s87 -79 151 -79c52.667 0 95 15.167 127 45.5s48 73.166 48 128.499v51h-167v69h250v-351h-69zM236.001 934.001
c2 -25.333 10.499 -43.5 25.499 -54.5s37.833 -16.5 68.5 -16.5s53.5 5.5 68.5 16.5s23.5 29.167 25.5 54.5h44c-3.33301 -46 -16 -79.667 -38 -101s-55.333 -32 -100 -32c-44 0 -77.167 10.667 -99.5 32s-35.166 55 -38.499 101h44z" />
    <glyph glyph-name="gbreve" unicode="&#x11f;" horiz-adv-x="486" 
d="M110 42c-42 14.667 -63.001 40.998 -63.001 78.998c0 18.667 5.83301 34.5 17.5 47.5s29.167 26.167 52.5 39.5c-44 32 -66 79.333 -66 142c0 56.667 17 101.334 51 134.001s81.333 49 142 49c48.667 0 89.667 -13 123 -39c17.333 15.333 33.5 26.833 48.5 34.5
s30.833 11.5 47.5 11.5h13v-68h-15c-15.333 0 -28 -1 -38 -3s-17.667 -6.33301 -23 -13c10.667 -15.333 18.167 -31.333 22.5 -48s6.5 -35 6.5 -55c0 -56 -16.833 -100.167 -50.5 -132.5s-79.834 -48.5 -138.501 -48.5c-24.667 0 -50.667 3.66699 -78 11
c-14.667 -5.33301 -25.667 -12.166 -33 -20.499s-11 -17.166 -11 -26.499c0 -10 3.16699 -17.5 9.5 -22.5s15.833 -8.83301 28.5 -11.5s28.334 -4.5 47.001 -5.5s40.334 -2.5 65.001 -4.5c34.667 -3.33301 65 -7.83301 91 -13.5s47.5 -13.667 64.5 -24
s29.667 -23.833 38 -40.5s12.5 -37.667 12.5 -63c0 -46 -19.667 -81 -59 -105s-98.333 -36 -177 -36c-143.333 0 -215 42.333 -215 127c0 25.333 7 46.166 21 62.499s36 30.5 66 42.5zM118.999 356.998c0 -40 10.5 -70.999 31.5 -92.999s51.167 -33 90.5 -33
c38 0 67.5 10.667 88.5 32s31.5 50.666 31.5 87.999c0 38 -11 68.167 -33 90.5s-52.333 33.5 -91 33.5c-36 0 -64.667 -10.667 -86 -32s-32 -50 -32 -86zM92.999 -52.001c0 -52.667 48 -79 144 -79c110.667 0 166 26.333 166 79c0 51.333 -55.667 77 -167 77
c-46.667 0 -82.167 -6.83301 -106.5 -20.5s-36.5 -32.5 -36.5 -56.5zM149.999 737.999c2 -25.333 10.499 -43.5 25.499 -54.5s37.833 -16.5 68.5 -16.5s53.5 5.5 68.5 16.5s23.5 29.167 25.5 54.5h44c-3.33301 -46 -16 -79.667 -38 -101s-55.333 -32 -100 -32
c-44 0 -77.167 10.667 -99.5 32s-35.166 55 -38.499 101h44z" />
    <glyph glyph-name="Gdotaccent" unicode="&#x120;" horiz-adv-x="660" 
d="M519 79c-44 -60.667 -107.666 -90.999 -190.999 -90.999c-43.333 0 -82.333 8.33301 -117 25s-64.334 41 -89.001 73s-43.667 70.833 -57 116.5s-20 97.5 -20 155.5c0 121.333 25.167 214.5 75.5 279.5s120.5 97.5 210.5 97.5c127.333 0 211 -70.667 251 -212l-82 -16
c-28 106 -85.333 159 -172 159c-64 0 -113.5 -25.667 -148.5 -77s-52.5 -126.333 -52.5 -225c0 -99.333 18.333 -175.333 55 -228s87 -79 151 -79c52.667 0 95 15.167 127 45.5s48 73.166 48 128.499v51h-167v69h250v-351h-69zM289.001 897.001h82v-97h-82v97z" />
    <glyph glyph-name="gdotaccent" unicode="&#x121;" horiz-adv-x="486" 
d="M110 42c-42 14.667 -63.001 40.998 -63.001 78.998c0 18.667 5.83301 34.5 17.5 47.5s29.167 26.167 52.5 39.5c-44 32 -66 79.333 -66 142c0 56.667 17 101.334 51 134.001s81.333 49 142 49c48.667 0 89.667 -13 123 -39c17.333 15.333 33.5 26.833 48.5 34.5
s30.833 11.5 47.5 11.5h13v-68h-15c-15.333 0 -28 -1 -38 -3s-17.667 -6.33301 -23 -13c10.667 -15.333 18.167 -31.333 22.5 -48s6.5 -35 6.5 -55c0 -56 -16.833 -100.167 -50.5 -132.5s-79.834 -48.5 -138.501 -48.5c-24.667 0 -50.667 3.66699 -78 11
c-14.667 -5.33301 -25.667 -12.166 -33 -20.499s-11 -17.166 -11 -26.499c0 -10 3.16699 -17.5 9.5 -22.5s15.833 -8.83301 28.5 -11.5s28.334 -4.5 47.001 -5.5s40.334 -2.5 65.001 -4.5c34.667 -3.33301 65 -7.83301 91 -13.5s47.5 -13.667 64.5 -24
s29.667 -23.833 38 -40.5s12.5 -37.667 12.5 -63c0 -46 -19.667 -81 -59 -105s-98.333 -36 -177 -36c-143.333 0 -215 42.333 -215 127c0 25.333 7 46.166 21 62.499s36 30.5 66 42.5zM118.999 356.998c0 -40 10.5 -70.999 31.5 -92.999s51.167 -33 90.5 -33
c38 0 67.5 10.667 88.5 32s31.5 50.666 31.5 87.999c0 38 -11 68.167 -33 90.5s-52.333 33.5 -91 33.5c-36 0 -64.667 -10.667 -86 -32s-32 -50 -32 -86zM92.999 -52.001c0 -52.667 48 -79 144 -79c110.667 0 166 26.333 166 79c0 51.333 -55.667 77 -167 77
c-46.667 0 -82.167 -6.83301 -106.5 -20.5s-36.5 -32.5 -36.5 -56.5zM206.999 722.999h86v-88h-86v88z" />
    <glyph glyph-name="Gcommaaccent" unicode="&#x122;" horiz-adv-x="660" 
d="M519 79c-44 -60.667 -107.666 -90.999 -190.999 -90.999c-43.333 0 -82.333 8.33301 -117 25s-64.334 41 -89.001 73s-43.667 70.833 -57 116.5s-20 97.5 -20 155.5c0 121.333 25.167 214.5 75.5 279.5s120.5 97.5 210.5 97.5c127.333 0 211 -70.667 251 -212l-82 -16
c-28 106 -85.333 159 -172 159c-64 0 -113.5 -25.667 -148.5 -77s-52.5 -126.333 -52.5 -225c0 -99.333 18.333 -175.333 55 -228s87 -79 151 -79c52.667 0 95 15.167 127 45.5s48 73.166 48 128.499v51h-167v69h250v-351h-69zM330.001 -189.999h-42v104h97v-117l-61 -145
l-49 2z" />
    <glyph glyph-name="gcommaaccent" unicode="&#x123;" horiz-adv-x="486" 
d="M110 42c-42 14.667 -63.001 40.998 -63.001 78.998c0 18.667 5.83301 34.5 17.5 47.5s29.167 26.167 52.5 39.5c-44 32 -66 79.333 -66 142c0 56.667 17 101.334 51 134.001s81.333 49 142 49c48.667 0 89.667 -13 123 -39c17.333 15.333 33.5 26.833 48.5 34.5
s30.833 11.5 47.5 11.5h13v-68h-15c-15.333 0 -28 -1 -38 -3s-17.667 -6.33301 -23 -13c10.667 -15.333 18.167 -31.333 22.5 -48s6.5 -35 6.5 -55c0 -56 -16.833 -100.167 -50.5 -132.5s-79.834 -48.5 -138.501 -48.5c-24.667 0 -50.667 3.66699 -78 11
c-14.667 -5.33301 -25.667 -12.166 -33 -20.499s-11 -17.166 -11 -26.499c0 -10 3.16699 -17.5 9.5 -22.5s15.833 -8.83301 28.5 -11.5s28.334 -4.5 47.001 -5.5s40.334 -2.5 65.001 -4.5c34.667 -3.33301 65 -7.83301 91 -13.5s47.5 -13.667 64.5 -24
s29.667 -23.833 38 -40.5s12.5 -37.667 12.5 -63c0 -46 -19.667 -81 -59 -105s-98.333 -36 -177 -36c-143.333 0 -215 42.333 -215 127c0 25.333 7 46.166 21 62.499s36 30.5 66 42.5zM118.999 356.998c0 -40 10.5 -70.999 31.5 -92.999s51.167 -33 90.5 -33
c38 0 67.5 10.667 88.5 32s31.5 50.666 31.5 87.999c0 38 -11 68.167 -33 90.5s-52.333 33.5 -91 33.5c-36 0 -64.667 -10.667 -86 -32s-32 -50 -32 -86zM92.999 -52.001c0 -52.667 48 -79 144 -79c110.667 0 166 26.333 166 79c0 51.333 -55.667 77 -167 77
c-46.667 0 -82.167 -6.83301 -106.5 -20.5s-36.5 -32.5 -36.5 -56.5zM251.015 709.987h41.9971v-103.993h-96.9941v116.992l60.9961 144.991l48.9971 -2z" />
    <glyph glyph-name="Hcircumflex" unicode="&#x124;" horiz-adv-x="715" 
d="M97 723h79v-309h363v309h79v-723h-79v344h-363v-344h-79v723zM313 960h87l96 -170h-52l-87 118l-88 -118h-52z" />
    <glyph glyph-name="hcircumflex" unicode="&#x125;" horiz-adv-x="550" 
d="M82 723h72v-277c28.667 30 56.834 51.833 84.501 65.5s58.5 20.5 92.5 20.5c45.333 0 80.166 -12.5 104.499 -37.5s36.5 -60.833 36.5 -107.5v-387h-71v360c0 38 -6.5 65.667 -19.5 83s-36.167 26 -69.5 26c-55.333 0 -108 -26.333 -158 -79v-390h-72v723zM92 959h87
l96 -170h-52l-87 118l-88 -118h-52z" />
    <glyph glyph-name="Hbar" unicode="&#x126;" horiz-adv-x="715" 
d="M31 603h66v120h79v-120h363v120h79v-120h66v-62h-66v-541h-79v344h-363v-344h-79v541h-66v62zM539 414v127h-363v-127h363z" />
    <glyph glyph-name="hbar" unicode="&#x127;" horiz-adv-x="550" 
d="M8 653h74v70h72v-70h192v-62h-192v-145c28.667 30 56.834 51.833 84.501 65.5s58.5 20.5 92.5 20.5c45.333 0 80.166 -12.5 104.499 -37.5s36.5 -60.833 36.5 -107.5v-387h-71v360c0 38 -6.5 65.667 -19.5 83s-36.167 26 -69.5 26c-55.333 0 -108 -26.333 -158 -79v-390
h-72v591h-74v62z" />
    <glyph glyph-name="Imacron" unicode="&#x12a;" horiz-adv-x="285" 
d="M102 723h81v-723h-81v723zM17 875h252v-61h-252v61z" />
    <glyph glyph-name="imacron" unicode="&#x12b;" horiz-adv-x="248" 
d="M87 523h74v-523h-74v523zM-1 707h252v-61h-252v61z" />
    <glyph glyph-name="Iogonek" unicode="&#x12e;" horiz-adv-x="285" 
d="M102 723h81v-723h1c-22 -20 -38.667 -38.833 -50 -56.5s-17 -35.167 -17 -52.5c0 -14.667 3.5 -25 10.5 -31s19.167 -9 36.5 -9h40v-63h-39c-72 0 -108 26.667 -108 80c0 24 7.66699 46 23 66s38 42 68 66h-46v723z" />
    <glyph glyph-name="iogonek" unicode="&#x12f;" horiz-adv-x="248" 
d="M87 523h74v-523c-22 -20 -38.667 -38.833 -50 -56.5s-17 -35.167 -17 -52.5c0 -14.667 3.5 -25 10.5 -31s19.167 -9 36.5 -9h40v-63h-39c-72 0 -108 26.667 -108 80c0 24 7.66699 46 23 66s38 42 68 66h-38v523zM81 723h86v-88h-86v88z" />
    <glyph glyph-name="Idotaccent" unicode="&#x130;" horiz-adv-x="285" 
d="M102 723h81v-723h-81v723zM102 897h82v-97h-82v97z" />
    <glyph glyph-name="dotlessi" unicode="&#x131;" horiz-adv-x="248" 
d="M87 523h74v-523h-74v523z" />
    <glyph glyph-name="Jcircumflex" unicode="&#x134;" horiz-adv-x="439" 
d="M66 126c15.333 -24.667 30.833 -42.502 46.5 -53.502s35.167 -16.5 58.5 -16.5c38 0 63.333 11.833 76 35.5s19 59.834 19 108.501v523h78v-531c0 -67.333 -14.667 -118.166 -44 -152.499s-72.333 -51.5 -129 -51.5c-37.333 0 -69.333 7.33301 -96 22
s-50.667 38.667 -72 72zM261 959.998h87l96 -170h-52l-87 118l-88 -118h-52z" />
    <glyph glyph-name="jcircumflex" unicode="&#x135;" horiz-adv-x="251" 
d="M0 -121c11.333 -2.66699 24.332 -3.99805 38.999 -3.99805c20 0 33.5 5.16699 40.5 15.5s10.5 27.166 10.5 50.499v582h74v-565c0 -24.667 -1.33301 -46.334 -4 -65.001s-8.33398 -34.167 -17.001 -46.5s-20.667 -21.5 -36 -27.5s-35.666 -9 -60.999 -9
c-17.333 0 -32.666 2.33301 -45.999 7v62v0zM84.999 757.002h87l96 -170h-52l-87 118l-88 -118h-52z" />
    <glyph glyph-name="Kcommaaccent" unicode="&#x136;" horiz-adv-x="623" 
d="M102 723h79v-381l305 381h88l-226 -278l258 -445h-93l-217 383l-115 -140v-243h-79v723zM311 -190h-42v104h97v-117l-61 -145l-49 2z" />
    <glyph glyph-name="kcommaaccent" unicode="&#x137;" horiz-adv-x="491" 
d="M82 723h73v-467l232 267h80l-168 -190l186 -333h-80l-155 277l-95 -105v-172h-73v723zM246 -190h-42v104h97v-117l-61 -145l-49 2z" />
    <glyph glyph-name="Lacute" unicode="&#x139;" horiz-adv-x="521" 
d="M102 723h82v-654h323v-69h-405v723zM236 960h87l-137 -170h-52z" />
    <glyph glyph-name="lacute" unicode="&#x13a;" horiz-adv-x="248" 
d="M87 723h73v-723h-73v723zM180 960h87l-137 -170h-52z" />
    <glyph glyph-name="Lcommaaccent" unicode="&#x13b;" horiz-adv-x="521" 
d="M102 723h82v-654h323v-69h-405v723zM260 -190h-42v104h97v-117l-61 -145l-49 2z" />
    <glyph glyph-name="lcommaaccent" unicode="&#x13c;" horiz-adv-x="248" 
d="M87 723h73v-723h-73v723zM125 -190h-42v104h97v-117l-61 -145l-49 2z" />
    <glyph glyph-name="Lcaron" unicode="&#x13d;" horiz-adv-x="521" 
d="M102 723h82v-654h323v-69h-405v723zM440 618h-42v104h97v-117l-61 -145l-49 2z" />
    <glyph glyph-name="lcaron" unicode="&#x13e;" horiz-adv-x="279" 
d="M87 723h73v-723h-73v723zM255 618h-42v104h97v-117l-61 -145l-49 2z" />
    <glyph glyph-name="Lslash" unicode="&#x141;" horiz-adv-x="524" 
d="M108 312l-108 -76v70l108 74v343h81v-298l156 110v-71l-156 -107v-288h324v-69h-405v312z" />
    <glyph glyph-name="lslash" unicode="&#x142;" horiz-adv-x="255" 
d="M90 318l-90 -63v63l90 64v341h74v-303l91 62v-63l-91 -63v-356h-74v318z" />
    <glyph glyph-name="Nacute" unicode="&#x143;" horiz-adv-x="715" 
d="M97 723h114l332 -564v564h75v-723h-62l-384 640v-640h-75v723zM392 960h87l-137 -170h-52z" />
    <glyph glyph-name="nacute" unicode="&#x144;" horiz-adv-x="536" 
d="M82 523h66.999v-79c28 30 55.833 52.167 83.5 66.5s57.5 21.5 89.5 21.5c43.333 0 76.833 -12.5 100.5 -37.5s35.5 -60.833 35.5 -107.5v-387h-71v360c0 38 -6.16699 65.667 -18.5 83s-34.166 26 -65.499 26c-51.333 0 -101 -26.333 -149 -79v-390h-72v523zM302.999 757
h87l-137 -170h-52z" />
    <glyph glyph-name="Ncommaaccent" unicode="&#x145;" horiz-adv-x="715" 
d="M97 723h114l332 -564v564h75v-723h-62l-384 640v-640h-75v723zM357 -190h-42v104h97v-117l-61 -145l-49 2z" />
    <glyph glyph-name="ncommaaccent" unicode="&#x146;" horiz-adv-x="536" 
d="M82 523h66.999v-79c28 30 55.833 52.167 83.5 66.5s57.5 21.5 89.5 21.5c43.333 0 76.833 -12.5 100.5 -37.5s35.5 -60.833 35.5 -107.5v-387h-71v360c0 38 -6.16699 65.667 -18.5 83s-34.166 26 -65.499 26c-51.333 0 -101 -26.333 -149 -79v-390h-72v523zM267.999 -190
h-42v104h97v-117l-61 -145l-49 2z" />
    <glyph glyph-name="Ncaron" unicode="&#x147;" horiz-adv-x="715" 
d="M97 723h114l332 -564v564h75v-723h-62l-384 640v-640h-75v723zM269 960l88 -119l87 119h52l-96 -170h-87l-96 170h52z" />
    <glyph glyph-name="ncaron" unicode="&#x148;" horiz-adv-x="536" 
d="M82 523h66.999v-79c28 30 55.833 52.167 83.5 66.5s57.5 21.5 89.5 21.5c43.333 0 76.833 -12.5 100.5 -37.5s35.5 -60.833 35.5 -107.5v-387h-71v360c0 38 -6.16699 65.667 -18.5 83s-34.166 26 -65.499 26c-51.333 0 -101 -26.333 -149 -79v-390h-72v523zM179.999 757
l88 -119l87 119h52l-96 -170h-87l-96 170h52z" />
    <glyph glyph-name="Omacron" unicode="&#x14c;" horiz-adv-x="664" 
d="M46 362c0 58 6.83301 110.001 20.5 156.001s33 85 58 117s55.167 56.667 90.5 74s74.333 26 117 26s81.667 -8.5 117 -25.5s65.5 -41.667 90.5 -74s44.333 -71.5 58 -117.5s20.5 -98 20.5 -156s-6.83301 -110.167 -20.5 -156.5s-33 -85.5 -58 -117.5
s-55.167 -56.667 -90.5 -74s-74.333 -26 -117 -26s-81.667 8.66699 -117 26s-65.5 42.166 -90.5 74.499s-44.333 71.5 -58 117.5s-20.5 98 -20.5 156zM127 362.001c0 -98 18.333 -173.167 55 -225.5s86.667 -78.5 150 -78.5s113.333 26.167 150 78.5s55 127.5 55 225.5
s-18.333 173.167 -55 225.5s-86.667 78.5 -150 78.5s-113.333 -26.167 -150 -78.5s-55 -127.5 -55 -225.5zM206 875.001h252v-61h-252v61z" />
    <glyph glyph-name="omacron" unicode="&#x14d;" horiz-adv-x="503" 
d="M34 262c0 87.333 19.167 154.166 57.5 200.499s91.833 69.5 160.5 69.5s122.167 -23.167 160.5 -69.5s57.5 -113.166 57.5 -200.499s-19.167 -154.333 -57.5 -201s-91.833 -70 -160.5 -70s-122.167 23.333 -160.5 70s-57.5 113.667 -57.5 201zM108 262
c0 -69.333 12.5 -121.667 37.5 -157s60.5 -53 106.5 -53s81.333 17.667 106 53s37 87.333 37 156c0 69.333 -12.333 121.5 -37 156.5s-60 52.5 -106 52.5s-81.5 -17.5 -106.5 -52.5s-37.5 -86.833 -37.5 -155.5zM125 706.999h252v-61h-252v61z" />
    <glyph glyph-name="Obreve" unicode="&#x14e;" horiz-adv-x="664" 
d="M46 362c0 58 6.83301 110.001 20.5 156.001s33 85 58 117s55.167 56.667 90.5 74s74.333 26 117 26s81.667 -8.5 117 -25.5s65.5 -41.667 90.5 -74s44.333 -71.5 58 -117.5s20.5 -98 20.5 -156s-6.83301 -110.167 -20.5 -156.5s-33 -85.5 -58 -117.5
s-55.167 -56.667 -90.5 -74s-74.333 -26 -117 -26s-81.667 8.66699 -117 26s-65.5 42.166 -90.5 74.499s-44.333 71.5 -58 117.5s-20.5 98 -20.5 156zM127 362.001c0 -98 18.333 -173.167 55 -225.5s86.667 -78.5 150 -78.5s113.333 26.167 150 78.5s55 127.5 55 225.5
s-18.333 173.167 -55 225.5s-86.667 78.5 -150 78.5s-113.333 -26.167 -150 -78.5s-55 -127.5 -55 -225.5zM238 934.001c2 -25.333 10.499 -43.5 25.499 -54.5s37.833 -16.5 68.5 -16.5s53.5 5.5 68.5 16.5s23.5 29.167 25.5 54.5h44c-3.33301 -46 -16 -79.667 -38 -101
s-55.333 -32 -100 -32c-44 0 -77.167 10.667 -99.5 32s-35.166 55 -38.499 101h44z" />
    <glyph glyph-name="obreve" unicode="&#x14f;" horiz-adv-x="503" 
d="M34 262c0 87.333 19.167 154.166 57.5 200.499s91.833 69.5 160.5 69.5s122.167 -23.167 160.5 -69.5s57.5 -113.166 57.5 -200.499s-19.167 -154.333 -57.5 -201s-91.833 -70 -160.5 -70s-122.167 23.333 -160.5 70s-57.5 113.667 -57.5 201zM108 262
c0 -69.333 12.5 -121.667 37.5 -157s60.5 -53 106.5 -53s81.333 17.667 106 53s37 87.333 37 156c0 69.333 -12.333 121.5 -37 156.5s-60 52.5 -106 52.5s-81.5 -17.5 -106.5 -52.5s-37.5 -86.833 -37.5 -155.5zM157 737.999c2 -25.333 10.499 -43.5 25.499 -54.5
s37.833 -16.5 68.5 -16.5s53.5 5.5 68.5 16.5s23.5 29.167 25.5 54.5h44c-3.33301 -46 -16 -79.667 -38 -101s-55.333 -32 -100 -32c-44 0 -77.167 10.667 -99.5 32s-35.166 55 -38.499 101h44z" />
    <glyph glyph-name="Ohungarumlaut" unicode="&#x150;" horiz-adv-x="664" 
d="M46 362c0 58 6.83301 110.001 20.5 156.001s33 85 58 117s55.167 56.667 90.5 74s74.333 26 117 26s81.667 -8.5 117 -25.5s65.5 -41.667 90.5 -74s44.333 -71.5 58 -117.5s20.5 -98 20.5 -156s-6.83301 -110.167 -20.5 -156.5s-33 -85.5 -58 -117.5
s-55.167 -56.667 -90.5 -74s-74.333 -26 -117 -26s-81.667 8.66699 -117 26s-65.5 42.166 -90.5 74.499s-44.333 71.5 -58 117.5s-20.5 98 -20.5 156zM127 362.001c0 -98 18.333 -173.167 55 -225.5s86.667 -78.5 150 -78.5s113.333 26.167 150 78.5s55 127.5 55 225.5
s-18.333 173.167 -55 225.5s-86.667 78.5 -150 78.5s-113.333 -26.167 -150 -78.5s-55 -127.5 -55 -225.5zM311 960.001h77l-108 -170h-41zM447 960.001h76l-117 -170h-41z" />
    <glyph glyph-name="ohungarumlaut" unicode="&#x151;" horiz-adv-x="503" 
d="M34 262c0 87.333 19.167 154.166 57.5 200.499s91.833 69.5 160.5 69.5s122.167 -23.167 160.5 -69.5s57.5 -113.166 57.5 -200.499s-19.167 -154.333 -57.5 -201s-91.833 -70 -160.5 -70s-122.167 23.333 -160.5 70s-57.5 113.667 -57.5 201zM108 262
c0 -69.333 12.5 -121.667 37.5 -157s60.5 -53 106.5 -53s81.333 17.667 106 53s37 87.333 37 156c0 69.333 -12.333 121.5 -37 156.5s-60 52.5 -106 52.5s-81.5 -17.5 -106.5 -52.5s-37.5 -86.833 -37.5 -155.5zM230 756.999h77l-108 -170h-41zM366 756.999h76l-117 -170
h-41z" />
    <glyph glyph-name="OE" unicode="&#x152;" horiz-adv-x="943" 
d="M496 75c-22.667 -30 -48.6689 -52 -78.002 -66s-63.333 -21 -102 -21c-41.333 0 -78.666 8.16699 -111.999 24.5s-61.666 40.5 -84.999 72.5s-41.333 71.167 -54 117.5s-19 99.5 -19 159.5c0 120.667 24.333 213 73 277s115.667 96 201 96c36 0 68.167 -6.5 96.5 -19.5
s54.833 -33.5 79.5 -61.5v69h400v-68h-324v-242h228v-67h-228v-277h341v-69h-417v75v0zM495.998 521c0 9.33301 -3.00098 21.502 -9.00098 36.502s-15.667 30.167 -29 45.5c-18.667 22 -38.5 38 -59.5 48s-45.5 15 -73.5 15c-62 0 -110.5 -25.833 -145.5 -77.5
s-52.5 -127.167 -52.5 -226.5s17.5 -175 52.5 -227s83.167 -78 144.5 -78c28 0 52.833 5.33301 74.5 16s41.834 27 60.501 49c13.333 15.333 22.833 30.166 28.5 44.499s8.5 25.166 8.5 32.499v322z" />
    <glyph glyph-name="oe" unicode="&#x153;" horiz-adv-x="838" 
d="M428 91c-38 -66.667 -97.665 -100 -178.998 -100c-66.667 0 -119.167 23.333 -157.5 70s-57.5 113.667 -57.5 201s19.167 154.166 57.5 200.499s91.833 69.5 160.5 69.5c82.667 0 142.667 -33.667 180 -101c36.667 66.667 92.334 100 167.001 100
c64 0 113.833 -22.5 149.5 -67.5s53.5 -110.167 53.5 -195.5v-22h-333v-15c0 -57.333 13 -101.5 39 -132.5s61.333 -46.5 106 -46.5c32 0 60.667 8 86 24s45.666 39 60.999 69l52 -33c-20.667 -42 -47.834 -73 -81.501 -93s-74.834 -30 -123.501 -30
c-44 0 -80 7.83301 -108 23.5s-52 41.834 -72 78.501zM108.002 262c0 -69.333 12.5 -121.667 37.5 -157s60.5 -53 106.5 -53s81.333 17.667 106 53s37 87.333 37 156c0 69.333 -12.333 121.5 -37 156.5s-60 52.5 -106 52.5s-81.5 -17.5 -106.5 -52.5
s-37.5 -86.833 -37.5 -155.5zM726.002 306.999c-1.33301 52 -13.332 92 -35.999 120s-52.667 42 -90 42c-38.667 0 -69.334 -14 -92.001 -42s-35 -68 -37 -120h255z" />
    <glyph glyph-name="Racute" unicode="&#x154;" horiz-adv-x="654" 
d="M97 723l203 0.000976562c98 0 170.667 -14.5 218 -43.5s71 -78.167 71 -147.5c0 -94.667 -50 -156.334 -150 -185.001l170 -347h-88l-159 328h-186v-328h-79v723zM176 656.001v-261.001h121c72.667 0 126 9.83301 160 29.5s51 53.167 51 100.5c0 26.667 -4 48.5 -12 65.5
s-20.5 30.333 -37.5 40s-38.667 16.334 -65 20.001s-57.5 5.5 -93.5 5.5h-124zM362 960h87l-137 -170h-52z" />
    <glyph glyph-name="racute" unicode="&#x155;" horiz-adv-x="324" 
d="M82 523h74.002v-119c17.333 42 38.166 73.333 62.499 94s53.833 31 88.5 31h8.5c2.33301 0 5.16602 -0.333008 8.49902 -1v-72h-9c-36 0 -67.5 -14 -94.5 -42s-48.5 -69 -64.5 -123v-291h-74v523zM228.002 757h87l-137 -170h-52z" />
    <glyph glyph-name="Rcommaaccent" unicode="&#x156;" horiz-adv-x="654" 
d="M97 723l203 0.000976562c98 0 170.667 -14.5 218 -43.5s71 -78.167 71 -147.5c0 -94.667 -50 -156.334 -150 -185.001l170 -347h-88l-159 328h-186v-328h-79v723zM176 656.001v-261.001h121c72.667 0 126 9.83301 160 29.5s51 53.167 51 100.5c0 26.667 -4 48.5 -12 65.5
s-20.5 30.333 -37.5 40s-38.667 16.334 -65 20.001s-57.5 5.5 -93.5 5.5h-124zM327 -190h-42v104h97v-117l-61 -145l-49 2z" />
    <glyph glyph-name="rcommaaccent" unicode="&#x157;" horiz-adv-x="324" 
d="M82 523h74.002v-119c17.333 42 38.166 73.333 62.499 94s53.833 31 88.5 31h8.5c2.33301 0 5.16602 -0.333008 8.49902 -1v-72h-9c-36 0 -67.5 -14 -94.5 -42s-48.5 -69 -64.5 -123v-291h-74v523zM163.002 -190h-42v104h97v-117l-61 -145l-49 2z" />
    <glyph glyph-name="Rcaron" unicode="&#x158;" horiz-adv-x="654" 
d="M97 723l203 0.000976562c98 0 170.667 -14.5 218 -43.5s71 -78.167 71 -147.5c0 -94.667 -50 -156.334 -150 -185.001l170 -347h-88l-159 328h-186v-328h-79v723zM176 656.001v-261.001h121c72.667 0 126 9.83301 160 29.5s51 53.167 51 100.5c0 26.667 -4 48.5 -12 65.5
s-20.5 30.333 -37.5 40s-38.667 16.334 -65 20.001s-57.5 5.5 -93.5 5.5h-124zM239 960l88 -119l87 119h52l-96 -170h-87l-96 170h52z" />
    <glyph glyph-name="rcaron" unicode="&#x159;" horiz-adv-x="324" 
d="M82 523h74.002v-119c17.333 42 38.166 73.333 62.499 94s53.833 31 88.5 31h8.5c2.33301 0 5.16602 -0.333008 8.49902 -1v-72h-9c-36 0 -67.5 -14 -94.5 -42s-48.5 -69 -64.5 -123v-291h-74v523zM75.002 757l88 -119l87 119h52l-96 -170h-87l-96 170h52z" />
    <glyph glyph-name="Sacute" unicode="&#x15a;" horiz-adv-x="560" 
d="M110 206c13.333 -46.667 35.6729 -83.166 67.0059 -109.499s67.666 -39.5 108.999 -39.5c46.667 0 83.5 11.5 110.5 34.5s40.5 53.5 40.5 91.5c0 44.667 -16.333 78 -49 100c-23.333 16 -49.333 29 -78 39l-90 33c-28 10.667 -52.333 22.167 -73 34.5
s-38 25.833 -52 40.5s-24.333 31.167 -31 49.5s-10 39.166 -10 62.499c0 28.667 5 55 15 79s24.167 44.333 42.5 61s40.666 29.667 66.999 39s55.5 14 87.5 14c56.667 0 104.167 -15 142.5 -45s66.166 -74 83.499 -132l-72 -21c-12 43.333 -31.833 76 -59.5 98
s-61.834 33 -102.501 33c-39.333 0 -70.333 -10.667 -93 -32s-34 -50 -34 -86c0 -33.333 15.667 -62.666 47 -87.999c15.333 -12 36.166 -22.667 62.499 -32l91.5 -34c30.667 -12 57.5 -24.333 80.5 -37s42 -27 57 -43s26.167 -34.333 33.5 -55s11 -45 11 -73
c0 -30 -5.16699 -57.167 -15.5 -81.5s-25.333 -45.333 -45 -63s-43.334 -31.334 -71.001 -41.001s-58.5 -14.5 -92.5 -14.5c-130.667 0 -216 64.333 -256 193zM315.007 960.001h87l-137 -170h-52z" />
    <glyph glyph-name="sacute" unicode="&#x15b;" horiz-adv-x="435" 
d="M77 136c40.667 -56 90.333 -84.002 149 -84.002c32 0 57.5 8 76.5 24s28.5 37.333 28.5 64c0 17.333 -3.66699 31.166 -11 41.499s-17.833 19 -31.5 26s-30.5 13.167 -50.5 18.5s-42.667 12 -68 20c-88 26.667 -132 74.334 -132 143.001
c0 21.333 3.83301 40.833 11.5 58.5s18.5 32.667 32.5 45s30.667 22 50 29s40.666 10.5 63.999 10.5c76 0 138.667 -29 188 -87l-48 -48c-39.333 50 -84.666 75 -135.999 75c-27.333 0 -48.833 -6.83301 -64.5 -20.5s-23.5 -32.167 -23.5 -55.5
c0 -11.333 2.16699 -21.666 6.5 -30.999s10.833 -17 19.5 -23c17.333 -12.667 37.833 -21.667 61.5 -27s49.5 -12.666 77.5 -21.999c44 -14 76.167 -32.5 96.5 -55.5s30.5 -52.833 30.5 -89.5c0 -46.667 -16.5 -84.5 -49.5 -113.5s-78.833 -43.5 -137.5 -43.5
c-41.333 0 -79.333 8.5 -114 25.5s-62.667 41.5 -84 73.5zM252.999 756.998h87l-137 -170h-52z" />
    <glyph glyph-name="Scircumflex" unicode="&#x15c;" horiz-adv-x="560" 
d="M110 206c13.333 -46.667 35.6729 -83.166 67.0059 -109.499s67.666 -39.5 108.999 -39.5c46.667 0 83.5 11.5 110.5 34.5s40.5 53.5 40.5 91.5c0 44.667 -16.333 78 -49 100c-23.333 16 -49.333 29 -78 39l-90 33c-28 10.667 -52.333 22.167 -73 34.5
s-38 25.833 -52 40.5s-24.333 31.167 -31 49.5s-10 39.166 -10 62.499c0 28.667 5 55 15 79s24.167 44.333 42.5 61s40.666 29.667 66.999 39s55.5 14 87.5 14c56.667 0 104.167 -15 142.5 -45s66.166 -74 83.499 -132l-72 -21c-12 43.333 -31.833 76 -59.5 98
s-61.834 33 -102.501 33c-39.333 0 -70.333 -10.667 -93 -32s-34 -50 -34 -86c0 -33.333 15.667 -62.666 47 -87.999c15.333 -12 36.166 -22.667 62.499 -32l91.5 -34c30.667 -12 57.5 -24.333 80.5 -37s42 -27 57 -43s26.167 -34.333 33.5 -55s11 -45 11 -73
c0 -30 -5.16699 -57.167 -15.5 -81.5s-25.333 -45.333 -45 -63s-43.334 -31.334 -71.001 -41.001s-58.5 -14.5 -92.5 -14.5c-130.667 0 -216 64.333 -256 193zM236.007 960.001h87l96 -170h-52l-87 118l-88 -118h-52z" />
    <glyph glyph-name="scircumflex" unicode="&#x15d;" horiz-adv-x="435" 
d="M77 136c40.667 -56 90.333 -84.002 149 -84.002c32 0 57.5 8 76.5 24s28.5 37.333 28.5 64c0 17.333 -3.66699 31.166 -11 41.499s-17.833 19 -31.5 26s-30.5 13.167 -50.5 18.5s-42.667 12 -68 20c-88 26.667 -132 74.334 -132 143.001
c0 21.333 3.83301 40.833 11.5 58.5s18.5 32.667 32.5 45s30.667 22 50 29s40.666 10.5 63.999 10.5c76 0 138.667 -29 188 -87l-48 -48c-39.333 50 -84.666 75 -135.999 75c-27.333 0 -48.833 -6.83301 -64.5 -20.5s-23.5 -32.167 -23.5 -55.5
c0 -11.333 2.16699 -21.666 6.5 -30.999s10.833 -17 19.5 -23c17.333 -12.667 37.833 -21.667 61.5 -27s49.5 -12.666 77.5 -21.999c44 -14 76.167 -32.5 96.5 -55.5s30.5 -52.833 30.5 -89.5c0 -46.667 -16.5 -84.5 -49.5 -113.5s-78.833 -43.5 -137.5 -43.5
c-41.333 0 -79.333 8.5 -114 25.5s-62.667 41.5 -84 73.5zM173.999 756.998h87l96 -170h-52l-87 118l-88 -118h-52z" />
    <glyph glyph-name="Scedilla" unicode="&#x15e;" horiz-adv-x="560" 
d="M176 -164c26 -6 49.0068 -10.335 69.0068 -13.002s37 -4 51 -4c39.333 0 59 13.333 59 40c0 17.333 -5.5 29.666 -16.5 36.999s-28.167 11 -51.5 11h-12c-4 0 -8.33301 -0.333008 -13 -1v83c-115.333 9.33301 -191.333 73.333 -228 192l76 25
c13.333 -46.667 35.666 -83.167 66.999 -109.5s67.666 -39.5 108.999 -39.5c46.667 0 83.5 11.5 110.5 34.5s40.5 53.5 40.5 91.5c0 44.667 -16.333 78 -49 100c-23.333 16 -49.333 29 -78 39l-90 33c-28 10.667 -52.333 22.167 -73 34.5s-38 25.833 -52 40.5
s-24.333 31.167 -31 49.5s-10 39.166 -10 62.499c0 28.667 5 55 15 79s24.167 44.333 42.5 61s40.666 29.667 66.999 39s55.5 14 87.5 14c56.667 0 104.167 -15 142.5 -45s66.166 -74 83.499 -132l-72 -21c-12 43.333 -31.833 76 -59.5 98s-61.834 33 -102.501 33
c-39.333 0 -70.333 -10.667 -93 -32s-34 -50 -34 -86c0 -33.333 15.667 -62.666 47 -87.999c15.333 -12 36.166 -22.667 62.499 -32l91.5 -34c30.667 -12 57.5 -24.333 80.5 -37s42 -27 57 -43s26.167 -34.333 33.5 -55s11 -45 11 -73c0 -29.333 -5 -56.166 -15 -80.499
s-24.5 -45.166 -43.5 -62.499s-41.833 -31 -68.5 -41s-56.334 -15.333 -89.001 -16v-40h11c73.333 0 110 -28.667 110 -86c0 -59.333 -40.333 -89 -121 -89c-16 0 -34 1.83301 -54 5.5s-42.667 8.83398 -68 15.501v42z" />
    <glyph glyph-name="scedilla" unicode="&#x15f;" horiz-adv-x="435" 
d="M113 -164c26 -6 48.999 -10.3359 68.999 -13.0029s37 -4 51 -4c39.333 0 59 13.333 59 40c0 17.333 -5.5 29.666 -16.5 36.999s-28.167 11 -51.5 11h-12c-4 0 -8.33301 -0.333008 -13 -1v86c-38 2.66699 -72.5 12.167 -103.5 28.5s-56.5 39.5 -76.5 69.5l58 46
c40.667 -56 90.334 -84 149.001 -84c32 0 57.5 8 76.5 24s28.5 37.333 28.5 64c0 17.333 -3.66699 31.166 -11 41.499s-17.833 19 -31.5 26s-30.5 13.167 -50.5 18.5s-42.667 12 -68 20c-88 26.667 -132 74.334 -132 143.001c0 21.333 3.83301 40.833 11.5 58.5
s18.5 32.667 32.5 45s30.667 22 50 29s40.666 10.5 63.999 10.5c76 0 138.667 -29 188 -87l-48 -48c-39.333 50 -84.666 75 -135.999 75c-27.333 0 -48.833 -6.83301 -64.5 -20.5s-23.5 -32.167 -23.5 -55.5c0 -11.333 2.16699 -21.666 6.5 -30.999s10.833 -17 19.5 -23
c17.333 -12.667 37.833 -21.667 61.5 -27s49.5 -12.666 77.5 -21.999c44 -14 76.167 -32.5 96.5 -55.5s30.5 -52.833 30.5 -89.5c0 -44 -15 -80.167 -45 -108.5s-71.333 -44.166 -124 -47.499v-44h11c73.333 0 110 -28.667 110 -86c0 -59.333 -40.333 -89 -121 -89
c-16 0 -34 1.83301 -54 5.5s-42.667 8.83398 -68 15.501v42z" />
    <glyph glyph-name="Scaron" unicode="&#x160;" horiz-adv-x="560" 
d="M110 206c13.333 -46.667 35.6729 -83.166 67.0059 -109.499s67.666 -39.5 108.999 -39.5c46.667 0 83.5 11.5 110.5 34.5s40.5 53.5 40.5 91.5c0 44.667 -16.333 78 -49 100c-23.333 16 -49.333 29 -78 39l-90 33c-28 10.667 -52.333 22.167 -73 34.5
s-38 25.833 -52 40.5s-24.333 31.167 -31 49.5s-10 39.166 -10 62.499c0 28.667 5 55 15 79s24.167 44.333 42.5 61s40.666 29.667 66.999 39s55.5 14 87.5 14c56.667 0 104.167 -15 142.5 -45s66.166 -74 83.499 -132l-72 -21c-12 43.333 -31.833 76 -59.5 98
s-61.834 33 -102.501 33c-39.333 0 -70.333 -10.667 -93 -32s-34 -50 -34 -86c0 -33.333 15.667 -62.666 47 -87.999c15.333 -12 36.166 -22.667 62.499 -32l91.5 -34c30.667 -12 57.5 -24.333 80.5 -37s42 -27 57 -43s26.167 -34.333 33.5 -55s11 -45 11 -73
c0 -30 -5.16699 -57.167 -15.5 -81.5s-25.333 -45.333 -45 -63s-43.334 -31.334 -71.001 -41.001s-58.5 -14.5 -92.5 -14.5c-130.667 0 -216 64.333 -256 193zM192.007 960.001l88 -119l87 119h52l-96 -170h-87l-96 170h52z" />
    <glyph glyph-name="scaron" unicode="&#x161;" horiz-adv-x="435" 
d="M77 136c40.667 -56 90.333 -84.002 149 -84.002c32 0 57.5 8 76.5 24s28.5 37.333 28.5 64c0 17.333 -3.66699 31.166 -11 41.499s-17.833 19 -31.5 26s-30.5 13.167 -50.5 18.5s-42.667 12 -68 20c-88 26.667 -132 74.334 -132 143.001
c0 21.333 3.83301 40.833 11.5 58.5s18.5 32.667 32.5 45s30.667 22 50 29s40.666 10.5 63.999 10.5c76 0 138.667 -29 188 -87l-48 -48c-39.333 50 -84.666 75 -135.999 75c-27.333 0 -48.833 -6.83301 -64.5 -20.5s-23.5 -32.167 -23.5 -55.5
c0 -11.333 2.16699 -21.666 6.5 -30.999s10.833 -17 19.5 -23c17.333 -12.667 37.833 -21.667 61.5 -27s49.5 -12.666 77.5 -21.999c44 -14 76.167 -32.5 96.5 -55.5s30.5 -52.833 30.5 -89.5c0 -46.667 -16.5 -84.5 -49.5 -113.5s-78.833 -43.5 -137.5 -43.5
c-41.333 0 -79.333 8.5 -114 25.5s-62.667 41.5 -84 73.5zM130.999 756.998l88 -119l87 119h52l-96 -170h-87l-96 170h52z" />
    <glyph glyph-name="Tcommaaccent" unicode="&#x162;" horiz-adv-x="549" 
d="M233 654h-211v69h504v-69h-211v-654h-82v654zM274 -190h-42v104h97v-117l-61 -145l-49 2z" />
    <glyph glyph-name="tcommaaccent" unicode="&#x163;" horiz-adv-x="306" 
d="M289 2c-21.333 -7.33301 -47 -11 -77 -11c-79.333 0 -119 34 -119 102v368h-78v62h78v169h76v-169h119v-62h-119v-335c0 -13.333 0.666992 -24.5 2 -33.5s4.5 -16.333 9.5 -22s12 -9.66699 21 -12s21.167 -3.5 36.5 -3.5c10 0 19 0.833008 27 2.5s16 3.5 24 5.5v-61z
M154 -190h-42v104h97v-117l-61 -145l-49 2z" />
    <glyph glyph-name="Tcaron" unicode="&#x164;" horiz-adv-x="549" 
d="M233 654h-211v69h504v-69h-211v-654h-82v654zM186 960l88 -119l87 119h52l-96 -170h-87l-96 170h52z" />
    <glyph glyph-name="tcaron" unicode="&#x165;" horiz-adv-x="306" 
d="M289 2c-21.333 -7.33301 -47 -11 -77 -11c-79.333 0 -119 34 -119 102v368h-78v62h78v169h76v-169h119v-62h-119v-335c0 -13.333 0.666992 -24.5 2 -33.5s4.5 -16.333 9.5 -22s12 -9.66699 21 -12s21.167 -3.5 36.5 -3.5c10 0 19 0.833008 27 2.5s16 3.5 24 5.5v-61z
M254 718h-42v104h97v-117l-61 -145l-49 2z" />
    <glyph glyph-name="Utilde" unicode="&#x168;" horiz-adv-x="711" 
d="M174 723l-0.000976562 -465.999c0 -22.667 0.833008 -43.667 2.5 -63s7.16699 -37.666 16.5 -54.999c13.333 -25.333 33.833 -45.333 61.5 -60s61.167 -22 100.5 -22c40 0 73.833 7.33301 101.5 22s48.167 34.667 61.5 60c9.33301 19.333 14.833 39.666 16.5 60.999
s2.5 44.666 2.5 69.999v453h79v-479c0 -84.667 -22.167 -148.5 -66.5 -191.5s-109.166 -64.5 -194.499 -64.5c-86 0 -150.833 21.333 -194.5 64s-65.5 106.667 -65.5 192v479h79zM496.999 920.001c-8 -31.333 -20.333 -54.667 -37 -70s-36.667 -23 -60 -23
c-6 0 -11.5 0.5 -16.5 1.5s-10.167 2.16699 -15.5 3.5l-39 13c-8 2.66699 -16.667 4 -26 4c-22 0 -37.667 -10.333 -47 -31h-43c14 60.667 46.333 91 97 91c9.33301 0 19 -1.66699 29 -5l38 -13c11.333 -3.33301 21.333 -5 30 -5c23.333 0 39 11.333 47 34h43v0z" />
    <glyph glyph-name="utilde" unicode="&#x169;" horiz-adv-x="536" 
d="M453 0h-65.999v79c-28 -30 -56 -52.167 -84 -66.5s-58 -21.5 -90 -21.5c-43.333 0 -76.833 12.5 -100.5 37.5s-35.5 60.833 -35.5 107.5v387h72v-360c0 -38 6.16699 -65.667 18.5 -83s34.166 -26 65.499 -26c50.667 0 100 26.333 148 79v390h72v-523zM410.001 717
c-8 -31.333 -20.333 -54.667 -37 -70s-36.667 -23 -60 -23c-6 0 -11.5 0.5 -16.5 1.5s-10.167 2.16699 -15.5 3.5l-39 13c-8 2.66699 -16.667 4 -26 4c-22 0 -37.667 -10.333 -47 -31h-43c14 60.667 46.333 91 97 91c9.33301 0 19 -1.66699 29 -5l38 -13
c11.333 -3.33301 21.333 -5 30 -5c23.333 0 39 11.333 47 34h43v0z" />
    <glyph glyph-name="Umacron" unicode="&#x16a;" horiz-adv-x="711" 
d="M174 723l-0.000976562 -465.999c0 -22.667 0.833008 -43.667 2.5 -63s7.16699 -37.666 16.5 -54.999c13.333 -25.333 33.833 -45.333 61.5 -60s61.167 -22 100.5 -22c40 0 73.833 7.33301 101.5 22s48.167 34.667 61.5 60c9.33301 19.333 14.833 39.666 16.5 60.999
s2.5 44.666 2.5 69.999v453h79v-479c0 -84.667 -22.167 -148.5 -66.5 -191.5s-109.166 -64.5 -194.499 -64.5c-86 0 -150.833 21.333 -194.5 64s-65.5 106.667 -65.5 192v479h79zM228.999 875.001h252v-61h-252v61z" />
    <glyph glyph-name="umacron" unicode="&#x16b;" horiz-adv-x="536" 
d="M453 0h-65.999v79c-28 -30 -56 -52.167 -84 -66.5s-58 -21.5 -90 -21.5c-43.333 0 -76.833 12.5 -100.5 37.5s-35.5 60.833 -35.5 107.5v387h72v-360c0 -38 6.16699 -65.667 18.5 -83s34.166 -26 65.499 -26c50.667 0 100 26.333 148 79v390h72v-523zM142.001 707h252
v-61h-252v61z" />
    <glyph glyph-name="Ubreve" unicode="&#x16c;" horiz-adv-x="711" 
d="M174 723l-0.000976562 -465.999c0 -22.667 0.833008 -43.667 2.5 -63s7.16699 -37.666 16.5 -54.999c13.333 -25.333 33.833 -45.333 61.5 -60s61.167 -22 100.5 -22c40 0 73.833 7.33301 101.5 22s48.167 34.667 61.5 60c9.33301 19.333 14.833 39.666 16.5 60.999
s2.5 44.666 2.5 69.999v453h79v-479c0 -84.667 -22.167 -148.5 -66.5 -191.5s-109.166 -64.5 -194.499 -64.5c-86 0 -150.833 21.333 -194.5 64s-65.5 106.667 -65.5 192v479h79zM260.999 934.001c2 -25.333 10.499 -43.5 25.499 -54.5s37.833 -16.5 68.5 -16.5
s53.5 5.5 68.5 16.5s23.5 29.167 25.5 54.5h44c-3.33301 -46 -16 -79.667 -38 -101s-55.333 -32 -100 -32c-44 0 -77.167 10.667 -99.5 32s-35.166 55 -38.499 101h44z" />
    <glyph glyph-name="ubreve" unicode="&#x16d;" horiz-adv-x="536" 
d="M453 0h-65.999v79c-28 -30 -56 -52.167 -84 -66.5s-58 -21.5 -90 -21.5c-43.333 0 -76.833 12.5 -100.5 37.5s-35.5 60.833 -35.5 107.5v387h72v-360c0 -38 6.16699 -65.667 18.5 -83s34.166 -26 65.499 -26c50.667 0 100 26.333 148 79v390h72v-523zM174.001 738
c2 -25.333 10.499 -43.5 25.499 -54.5s37.833 -16.5 68.5 -16.5s53.5 5.5 68.5 16.5s23.5 29.167 25.5 54.5h44c-3.33301 -46 -16 -79.667 -38 -101s-55.333 -32 -100 -32c-44 0 -77.167 10.667 -99.5 32s-35.166 55 -38.499 101h44z" />
    <glyph glyph-name="Uring" unicode="&#x16e;" horiz-adv-x="711" 
d="M174 723l-0.000976562 -465.999c0 -22.667 0.833008 -43.667 2.5 -63s7.16699 -37.666 16.5 -54.999c13.333 -25.333 33.833 -45.333 61.5 -60s61.167 -22 100.5 -22c40 0 73.833 7.33301 101.5 22s48.167 34.667 61.5 60c9.33301 19.333 14.833 39.666 16.5 60.999
s2.5 44.666 2.5 69.999v453h79v-479c0 -84.667 -22.167 -148.5 -66.5 -191.5s-109.166 -64.5 -194.499 -64.5c-86 0 -150.833 21.333 -194.5 64s-65.5 106.667 -65.5 192v479h79zM233.999 828.001c0 16.667 3.16699 32.5 9.5 47.5s14.833 27.833 25.5 38.5
s23.334 19.167 38.001 25.5s30.667 9.5 48 9.5c16.667 0 32.5 -3.16699 47.5 -9.5s27.833 -14.833 38.5 -25.5s19.167 -23.5 25.5 -38.5s9.5 -30.833 9.5 -47.5c0 -17.333 -3.16699 -33.333 -9.5 -48s-14.833 -27.334 -25.5 -38.001s-23.5 -19.167 -38.5 -25.5
s-30.833 -9.5 -47.5 -9.5c-17.333 0 -33.333 3.16699 -48 9.5s-27.334 14.833 -38.001 25.5s-19.167 23.334 -25.5 38.001s-9.5 30.667 -9.5 48zM285.999 828.001c0 -19.333 6.66797 -35.833 20.001 -49.5s29.666 -20.5 48.999 -20.5s35.833 6.83301 49.5 20.5
s20.5 30.167 20.5 49.5s-6.83301 35.833 -20.5 49.5s-30.167 20.5 -49.5 20.5c-20 0 -36.5 -6.83301 -49.5 -20.5s-19.5 -30.167 -19.5 -49.5z" />
    <glyph glyph-name="uring" unicode="&#x16f;" horiz-adv-x="536" 
d="M453 0h-65.999v79c-28 -30 -56 -52.167 -84 -66.5s-58 -21.5 -90 -21.5c-43.333 0 -76.833 12.5 -100.5 37.5s-35.5 60.833 -35.5 107.5v387h72v-360c0 -38 6.16699 -65.667 18.5 -83s34.166 -26 65.499 -26c50.667 0 100 26.333 148 79v390h72v-523zM147.001 698
c0 16.667 3.16699 32.5 9.5 47.5s14.833 27.833 25.5 38.5s23.334 19.167 38.001 25.5s30.667 9.5 48 9.5c16.667 0 32.5 -3.16699 47.5 -9.5s27.833 -14.833 38.5 -25.5s19.167 -23.5 25.5 -38.5s9.5 -30.833 9.5 -47.5c0 -17.333 -3.16699 -33.333 -9.5 -48
s-14.833 -27.334 -25.5 -38.001s-23.5 -19.167 -38.5 -25.5s-30.833 -9.5 -47.5 -9.5c-17.333 0 -33.333 3.16699 -48 9.5s-27.334 14.833 -38.001 25.5s-19.167 23.334 -25.5 38.001s-9.5 30.667 -9.5 48zM199.001 698c0 -19.333 6.66797 -35.833 20.001 -49.5
s29.666 -20.5 48.999 -20.5s35.833 6.83301 49.5 20.5s20.5 30.167 20.5 49.5s-6.83301 35.833 -20.5 49.5s-30.167 20.5 -49.5 20.5c-20 0 -36.5 -6.83301 -49.5 -20.5s-19.5 -30.167 -19.5 -49.5z" />
    <glyph glyph-name="Uhungarumlaut" unicode="&#x170;" horiz-adv-x="711" 
d="M174 723l-0.000976562 -465.999c0 -22.667 0.833008 -43.667 2.5 -63s7.16699 -37.666 16.5 -54.999c13.333 -25.333 33.833 -45.333 61.5 -60s61.167 -22 100.5 -22c40 0 73.833 7.33301 101.5 22s48.167 34.667 61.5 60c9.33301 19.333 14.833 39.666 16.5 60.999
s2.5 44.666 2.5 69.999v453h79v-479c0 -84.667 -22.167 -148.5 -66.5 -191.5s-109.166 -64.5 -194.499 -64.5c-86 0 -150.833 21.333 -194.5 64s-65.5 106.667 -65.5 192v479h79zM333.999 960.001h77l-108 -170h-41zM469.999 960.001h76l-117 -170h-41z" />
    <glyph glyph-name="uhungarumlaut" unicode="&#x171;" horiz-adv-x="536" 
d="M453 0h-65.999v79c-28 -30 -56 -52.167 -84 -66.5s-58 -21.5 -90 -21.5c-43.333 0 -76.833 12.5 -100.5 37.5s-35.5 60.833 -35.5 107.5v387h72v-360c0 -38 6.16699 -65.667 18.5 -83s34.166 -26 65.499 -26c50.667 0 100 26.333 148 79v390h72v-523zM247.001 757h77
l-108 -170h-41zM383.001 757h76l-117 -170h-41z" />
    <glyph glyph-name="Uogonek" unicode="&#x172;" horiz-adv-x="711" 
d="M453 0c-22 -20 -38.667 -38.8311 -50 -56.498s-17 -35.167 -17 -52.5c0 -14.667 3.5 -25 10.5 -31s19.167 -9 36.5 -9h40v-63h-39c-72 0 -108 26.667 -108 80c0 22.667 6.66699 43.334 20 62.001s33 39 59 61c-16 -2 -32.667 -3 -50 -3c-86 0 -150.833 21.333 -194.5 64
s-65.5 106.667 -65.5 192v479h79v-466c0 -22.667 0.833008 -43.667 2.5 -63s7.16699 -37.666 16.5 -54.999c13.333 -25.333 33.833 -45.333 61.5 -60s61.167 -22 100.5 -22c40 0 73.833 7.33301 101.5 22s48.167 34.667 61.5 60c9.33301 19.333 14.833 39.666 16.5 60.999
s2.5 44.666 2.5 69.999v453h79v-479c0 -66.667 -13.833 -120.334 -41.5 -161.001s-68.5 -68.334 -122.5 -83.001h1v0z" />
    <glyph glyph-name="uogonek" unicode="&#x173;" horiz-adv-x="536" 
d="M453 0c-22 -20 -38.666 -38.833 -49.999 -56.5s-17 -35.167 -17 -52.5c0 -14.667 3.5 -25 10.5 -31s19.167 -9 36.5 -9h40v-63h-39c-72 0 -108 26.667 -108 80c0 24 7.66699 46 23 66s38 42 68 66h-30v79c-28 -30 -56 -52.167 -84 -66.5s-58 -21.5 -90 -21.5
c-43.333 0 -76.833 12.5 -100.5 37.5s-35.5 60.833 -35.5 107.5v387h72v-360c0 -38 6.16699 -65.667 18.5 -83s34.166 -26 65.499 -26c50.667 0 100 26.333 148 79v390h72v-523z" />
    <glyph glyph-name="Ydieresis" unicode="&#x178;" horiz-adv-x="549" 
d="M235 305l-220 418h87l172 -334l173 334h87l-220 -418v-305h-79v305zM219 800h-82v90h82v-90zM413 800h-82v90h82v-90z" />
    <glyph glyph-name="Zacute" unicode="&#x179;" horiz-adv-x="546" 
d="M39 53l366 603h-331v67h426v-51l-366 -603h363v-69h-458v53zM308 960h87l-137 -170h-52z" />
    <glyph glyph-name="zacute" unicode="&#x17a;" horiz-adv-x="435" 
d="M24 53l295 408h-266v62h354v-52l-296 -407h294v-64h-381v53zM253 757h87l-137 -170h-52z" />
    <glyph glyph-name="Zdotaccent" unicode="&#x17b;" horiz-adv-x="546" 
d="M39 53l366 603h-331v67h426v-51l-366 -603h363v-69h-458v53zM232 897h82v-97h-82v97z" />
    <glyph glyph-name="zdotaccent" unicode="&#x17c;" horiz-adv-x="435" 
d="M24 53l295 408h-266v62h354v-52l-296 -407h294v-64h-381v53zM175 723h86v-88h-86v88z" />
    <glyph glyph-name="Zcaron" unicode="&#x17d;" horiz-adv-x="546" 
d="M39 53l366 603h-331v67h426v-51l-366 -603h363v-69h-458v53zM185 960l88 -119l87 119h52l-96 -170h-87l-96 170h52z" />
    <glyph glyph-name="zcaron" unicode="&#x17e;" horiz-adv-x="435" 
d="M24 53l295 408h-266v62h354v-52l-296 -407h294v-64h-381v53zM131 757l88 -119l87 119h52l-96 -170h-87l-96 170h52z" />
    <glyph glyph-name="florin" unicode="&#x192;" 
d="M52 -112c16.667 -6 31.3301 -8.99902 43.9971 -8.99902c16.667 0 30.667 3.33301 42 10s21 17 29 31s15 31.667 21 53s12 46.666 18 75.999l69 352h-109v63h122l13 64c14.667 69.333 35.334 121 62.001 155s62.334 51 107.001 51c19.333 0 41.333 -2.66699 66 -8l-14 -64
c-9.33301 2.66699 -17.666 4.66699 -24.999 6s-14 2 -20 2c-31.333 0 -54.5 -13 -69.5 -39s-27.167 -64.667 -36.5 -116l-9 -51h113v-63h-125l-57 -300c-9.33301 -50 -19.5 -93 -30.5 -129s-24.333 -65.667 -40 -89s-34.167 -40.5 -55.5 -51.5s-47.333 -16.5 -78 -16.5
c-18 0 -34.333 2.33301 -49 7z" />
    <glyph glyph-name="uni01CF" unicode="&#x1cf;" horiz-adv-x="285" 
d="M102 723h81v-723h-81v723zM55 960l88 -119l87 119h52l-96 -170h-87l-96 170h52z" />
    <glyph glyph-name="uni01D0" unicode="&#x1d0;" horiz-adv-x="248" 
d="M87 523h74v-523h-74v523zM37 757l88 -119l87 119h52l-96 -170h-87l-96 170h52z" />
    <glyph glyph-name="Gcaron" unicode="&#x1e6;" horiz-adv-x="660" 
d="M519 79c-44 -60.667 -107.666 -90.999 -190.999 -90.999c-43.333 0 -82.333 8.33301 -117 25s-64.334 41 -89.001 73s-43.667 70.833 -57 116.5s-20 97.5 -20 155.5c0 121.333 25.167 214.5 75.5 279.5s120.5 97.5 210.5 97.5c127.333 0 211 -70.667 251 -212l-82 -16
c-28 106 -85.333 159 -172 159c-64 0 -113.5 -25.667 -148.5 -77s-52.5 -126.333 -52.5 -225c0 -99.333 18.333 -175.333 55 -228s87 -79 151 -79c52.667 0 95 15.167 127 45.5s48 73.166 48 128.499v51h-167v69h250v-351h-69zM242.001 960.001l88 -119l87 119h52l-96 -170
h-87l-96 170h52z" />
    <glyph glyph-name="gcaron" unicode="&#x1e7;" horiz-adv-x="486" 
d="M110 42c-42 14.667 -63.001 40.998 -63.001 78.998c0 18.667 5.83301 34.5 17.5 47.5s29.167 26.167 52.5 39.5c-44 32 -66 79.333 -66 142c0 56.667 17 101.334 51 134.001s81.333 49 142 49c48.667 0 89.667 -13 123 -39c17.333 15.333 33.5 26.833 48.5 34.5
s30.833 11.5 47.5 11.5h13v-68h-15c-15.333 0 -28 -1 -38 -3s-17.667 -6.33301 -23 -13c10.667 -15.333 18.167 -31.333 22.5 -48s6.5 -35 6.5 -55c0 -56 -16.833 -100.167 -50.5 -132.5s-79.834 -48.5 -138.501 -48.5c-24.667 0 -50.667 3.66699 -78 11
c-14.667 -5.33301 -25.667 -12.166 -33 -20.499s-11 -17.166 -11 -26.499c0 -10 3.16699 -17.5 9.5 -22.5s15.833 -8.83301 28.5 -11.5s28.334 -4.5 47.001 -5.5s40.334 -2.5 65.001 -4.5c34.667 -3.33301 65 -7.83301 91 -13.5s47.5 -13.667 64.5 -24
s29.667 -23.833 38 -40.5s12.5 -37.667 12.5 -63c0 -46 -19.667 -81 -59 -105s-98.333 -36 -177 -36c-143.333 0 -215 42.333 -215 127c0 25.333 7 46.166 21 62.499s36 30.5 66 42.5zM118.999 356.998c0 -40 10.5 -70.999 31.5 -92.999s51.167 -33 90.5 -33
c38 0 67.5 10.667 88.5 32s31.5 50.666 31.5 87.999c0 38 -11 68.167 -33 90.5s-52.333 33.5 -91 33.5c-36 0 -64.667 -10.667 -86 -32s-32 -50 -32 -86zM92.999 -52.001c0 -52.667 48 -79 144 -79c110.667 0 166 26.333 166 79c0 51.333 -55.667 77 -167 77
c-46.667 0 -82.167 -6.83301 -106.5 -20.5s-36.5 -32.5 -36.5 -56.5zM155.999 756.999l88 -119l87 119h52l-96 -170h-87l-96 170h52z" />
    <glyph glyph-name="AEacute" unicode="&#x1fc;" horiz-adv-x="876" 
d="M410 292v363h-55l-165 -363h220zM314 723h497v-68h-324v-242h227v-67h-227v-277h341v-69h-418v225h-250l-104 -225h-78zM573 960h87l-137 -170h-52z" />
    <glyph glyph-name="aeacute" unicode="&#x1fd;" horiz-adv-x="785" 
d="M339 281c-82 -16.667 -142.666 -35.834 -181.999 -57.501s-59 -51.167 -59 -88.5c0 -23.333 7.5 -42.166 22.5 -56.499s35.833 -21.5 62.5 -21.5c23.333 0 47.666 6.66699 72.999 20s53 33.333 83 60v144zM668.001 309c-1.33301 52 -13.332 91.833 -35.999 119.5
s-52.667 41.5 -90 41.5c-38.667 0 -69.334 -13.833 -92.001 -41.5s-35 -67.5 -37 -119.5h255zM370.002 93c-30 -34 -61.167 -59.334 -93.5 -76.001s-68.166 -25 -107.499 -25c-42.667 0 -77.334 13.333 -104.001 40s-40 61.334 -40 104.001c0 56.667 25.667 101.5 77 134.5
s130 57.833 236 74.5v42c0 25.333 -9 45.166 -27 59.499s-44 21.5 -78 21.5c-57.333 0 -100 -27 -128 -81l-63 34c38.667 73.333 101.667 110 189 110c69.333 0 123 -23.333 161 -70c19.333 24.667 41 42.667 65 54s51.667 17 83 17c64.667 0 114.834 -22.833 150.501 -68.5
s53.5 -111.167 53.5 -196.5v-20h-333v-15c0 -57.333 13 -101.333 39 -132s61.333 -46 106 -46c32 0 60.5 8 85.5 24s45.167 39 60.5 69l53 -33c-21.333 -43.333 -48.833 -74.666 -82.5 -93.999s-75.834 -29 -126.501 -29c-42 0 -77.333 8 -106 24s-52 42 -70 78z
M447.002 756.999h87l-137 -170h-52z" />
    <glyph glyph-name="Scommaaccent" unicode="&#x218;" horiz-adv-x="560" 
d="M110 206c13.333 -46.667 35.6729 -83.166 67.0059 -109.499s67.666 -39.5 108.999 -39.5c46.667 0 83.5 11.5 110.5 34.5s40.5 53.5 40.5 91.5c0 44.667 -16.333 78 -49 100c-23.333 16 -49.333 29 -78 39l-90 33c-28 10.667 -52.333 22.167 -73 34.5
s-38 25.833 -52 40.5s-24.333 31.167 -31 49.5s-10 39.166 -10 62.499c0 28.667 5 55 15 79s24.167 44.333 42.5 61s40.666 29.667 66.999 39s55.5 14 87.5 14c56.667 0 104.167 -15 142.5 -45s66.166 -74 83.499 -132l-72 -21c-12 43.333 -31.833 76 -59.5 98
s-61.834 33 -102.501 33c-39.333 0 -70.333 -10.667 -93 -32s-34 -50 -34 -86c0 -33.333 15.667 -62.666 47 -87.999c15.333 -12 36.166 -22.667 62.499 -32l91.5 -34c30.667 -12 57.5 -24.333 80.5 -37s42 -27 57 -43s26.167 -34.333 33.5 -55s11 -45 11 -73
c0 -30 -5.16699 -57.167 -15.5 -81.5s-25.333 -45.333 -45 -63s-43.334 -31.334 -71.001 -41.001s-58.5 -14.5 -92.5 -14.5c-130.667 0 -216 64.333 -256 193zM280.007 -189.999h-42v104h97v-117l-61 -145l-49 2z" />
    <glyph glyph-name="scommaaccent" unicode="&#x219;" horiz-adv-x="435" 
d="M77 136c40.667 -56 90.333 -84.002 149 -84.002c32 0 57.5 8 76.5 24s28.5 37.333 28.5 64c0 17.333 -3.66699 31.166 -11 41.499s-17.833 19 -31.5 26s-30.5 13.167 -50.5 18.5s-42.667 12 -68 20c-88 26.667 -132 74.334 -132 143.001
c0 21.333 3.83301 40.833 11.5 58.5s18.5 32.667 32.5 45s30.667 22 50 29s40.666 10.5 63.999 10.5c76 0 138.667 -29 188 -87l-48 -48c-39.333 50 -84.666 75 -135.999 75c-27.333 0 -48.833 -6.83301 -64.5 -20.5s-23.5 -32.167 -23.5 -55.5
c0 -11.333 2.16699 -21.666 6.5 -30.999s10.833 -17 19.5 -23c17.333 -12.667 37.833 -21.667 61.5 -27s49.5 -12.666 77.5 -21.999c44 -14 76.167 -32.5 96.5 -55.5s30.5 -52.833 30.5 -89.5c0 -46.667 -16.5 -84.5 -49.5 -113.5s-78.833 -43.5 -137.5 -43.5
c-41.333 0 -79.333 8.5 -114 25.5s-62.667 41.5 -84 73.5zM217.999 -190.002h-42v104h97v-117l-61 -145l-49 2z" />
    <glyph glyph-name="uni021A" unicode="&#x21a;" horiz-adv-x="549" 
d="M233 654h-211v69h504v-69h-211v-654h-82v654zM274 -190h-42v104h97v-117l-61 -145l-49 2z" />
    <glyph glyph-name="uni021B" unicode="&#x21b;" horiz-adv-x="306" 
d="M289 2c-21.333 -7.33301 -47 -11 -77 -11c-79.333 0 -119 34 -119 102v368h-78v62h78v169h76v-169h119v-62h-119v-335c0 -13.333 0.666992 -24.5 2 -33.5s4.5 -16.333 9.5 -22s12 -9.66699 21 -12s21.167 -3.5 36.5 -3.5c10 0 19 0.833008 27 2.5s16 3.5 24 5.5v-61z
M154 -190h-42v104h97v-117l-61 -145l-49 2z" />
    <glyph glyph-name="uni0228" unicode="&#x228;" horiz-adv-x="571" 
d="M97 723h427v-68h-347v-241h246v-68h-246v-277h364v-69h-208v-52h11c73.333 0 110 -28.667 110 -86c0 -59.333 -40.333 -89 -121 -89c-16 0 -34 1.83301 -54 5.5s-42.667 8.83398 -68 15.501v42c26 -6 49 -10.333 69 -13s37 -4 51 -4c39.333 0 59 13.333 59 40
c0 17.333 -5.5 29.666 -16.5 36.999s-28.167 11 -51.5 11h-12c-4 0 -8.33301 -0.333008 -13 -1v94h-200v723z" />
    <glyph glyph-name="uni0229" unicode="&#x229;" horiz-adv-x="481" 
d="M136 -164c26 -6 48.9971 -10.333 68.9971 -13s37 -4 51 -4c39.333 0 59 13.333 59 40c0 17.333 -5.5 29.666 -16.5 36.999s-28.167 11 -51.5 11h-12c-4 0 -8.33301 -0.333008 -13 -1v86c-60 5.33301 -105.667 30.666 -137 75.999s-47 110 -47 194
c0 86.667 18.333 153.334 55 200.001s86.334 70 149.001 70c64 0 114 -22.5 150 -67.5s54 -110.167 54 -195.5v-22h-333v-17c0 -56 13.167 -99.5 39.5 -130.5s60.5 -46.5 102.5 -46.5c32.667 0 61.834 8 87.501 24s46.167 39.333 61.5 70l53 -33
c-39.333 -79.333 -105.666 -120.333 -198.999 -123v-43h11c73.333 0 110 -28.667 110 -86c0 -59.333 -40.333 -89 -121 -89c-16 0 -34 1.83301 -54 5.5s-42.667 8.83398 -68 15.501v42zM368.997 309c-1.33301 52 -13.332 91.833 -35.999 119.5s-52.667 41.5 -90 41.5
c-38.667 0 -69.334 -13.833 -92.001 -41.5s-35 -67.5 -37 -119.5h255z" />
    <glyph glyph-name="uni0237" unicode="&#x237;" horiz-adv-x="251" 
d="M0 -121c11.333 -2.66699 24.332 -3.99805 38.999 -3.99805c20 0 33.5 5.16699 40.5 15.5s10.5 27.166 10.5 50.499v582h74v-565c0 -24.667 -1.33301 -46.334 -4 -65.001s-8.33398 -34.167 -17.001 -46.5s-20.667 -21.5 -36 -27.5s-35.666 -9 -60.999 -9
c-17.333 0 -32.666 2.33301 -45.999 7v62v0z" />
    <glyph glyph-name="afii57929" unicode="&#x2bc;" horiz-adv-x="500" 
d="M300 618h-42v104h97v-117l-61 -145l-49 2z" />
    <glyph glyph-name="circumflex" unicode="&#x2c6;" horiz-adv-x="500" 
d="M206 757h87l96 -170h-52l-87 118l-88 -118h-52z" />
    <glyph glyph-name="caron" unicode="&#x2c7;" horiz-adv-x="500" 
d="M162 757l88 -119l87 119h52l-96 -170h-87l-96 170h52z" />
    <glyph glyph-name="uni02C9" unicode="&#x2c9;" horiz-adv-x="500" 
d="M124 707h252v-61h-252v61z" />
    <glyph glyph-name="breve" unicode="&#x2d8;" horiz-adv-x="500" 
d="M156 738c2 -25.333 10.499 -43.5 25.499 -54.5s37.833 -16.5 68.5 -16.5s53.5 5.5 68.5 16.5s23.5 29.167 25.5 54.5h44c-3.33301 -46 -16 -79.667 -38 -101s-55.333 -32 -100 -32c-44 0 -77.167 10.667 -99.5 32s-35.166 55 -38.499 101h44z" />
    <glyph glyph-name="dotaccent" unicode="&#x2d9;" horiz-adv-x="500" 
d="M207 723h86v-88h-86v88z" />
    <glyph glyph-name="ring" unicode="&#x2da;" horiz-adv-x="500" 
d="M129 698c0 16.667 3.16699 32.5 9.5 47.5s14.833 27.833 25.5 38.5s23.334 19.167 38.001 25.5s30.667 9.5 48 9.5c16.667 0 32.5 -3.16699 47.5 -9.5s27.833 -14.833 38.5 -25.5s19.167 -23.5 25.5 -38.5s9.5 -30.833 9.5 -47.5c0 -17.333 -3.16699 -33.333 -9.5 -48
s-14.833 -27.334 -25.5 -38.001s-23.5 -19.167 -38.5 -25.5s-30.833 -9.5 -47.5 -9.5c-17.333 0 -33.333 3.16699 -48 9.5s-27.334 14.833 -38.001 25.5s-19.167 23.334 -25.5 38.001s-9.5 30.667 -9.5 48zM181 698c0 -19.333 6.66797 -35.833 20.001 -49.5
s29.666 -20.5 48.999 -20.5s35.833 6.83301 49.5 20.5s20.5 30.167 20.5 49.5s-6.83301 35.833 -20.5 49.5s-30.167 20.5 -49.5 20.5c-20 0 -36.5 -6.83301 -49.5 -20.5s-19.5 -30.167 -19.5 -49.5z" />
    <glyph glyph-name="ogonek" unicode="&#x2db;" horiz-adv-x="500" 
d="M284 0c-22 -20 -38.667 -38.833 -50 -56.5s-17 -35.167 -17 -52.5c0 -14.667 3.5 -25 10.5 -31s19.167 -9 36.5 -9h40v-63h-39c-72 0 -108 26.667 -108 80c0 24 7.66699 46 23 66s38 42 68 66h36v0z" />
    <glyph glyph-name="tilde" unicode="&#x2dc;" horiz-adv-x="500" 
d="M392 717c-8 -31.333 -20.333 -54.667 -37 -70s-36.667 -23 -60 -23c-6 0 -11.5 0.5 -16.5 1.5s-10.167 2.16699 -15.5 3.5l-39 13c-8 2.66699 -16.667 4 -26 4c-22 0 -37.667 -10.333 -47 -31h-43c14 60.667 46.333 91 97 91c9.33301 0 19 -1.66699 29 -5l38 -13
c11.333 -3.33301 21.333 -5 30 -5c23.333 0 39 11.333 47 34h43v0z" />
    <glyph glyph-name="hungarumlaut" unicode="&#x2dd;" horiz-adv-x="500" 
d="M229 757h77l-108 -170h-41zM365 757h76l-117 -170h-41z" />
    <glyph glyph-name="acutecomb" unicode="&#x301;" horiz-adv-x="2" 
d="M-175 757h87l-137 -170h-52z" />
    <glyph glyph-name="acutecomb" unicode="&#xf400;" horiz-adv-x="2" 
d="M-175 757h87l-137 -170h-52z" />
    <glyph glyph-name="uni037E" unicode="&#x37e;" horiz-adv-x="309" 
d="M114 399h95v-110h-95v110zM154 7h-42v104h97v-117l-61 -145l-49 2z" />
    <glyph glyph-name="uni0394" unicode="&#x394;" 
d="M240 723h122l222 -723h-567zM480 67l-175 602h-11l-173 -602h359z" />
    <glyph glyph-name="uni03A9" unicode="&#x3a9;" horiz-adv-x="688" 
d="M45 64l165.001 -0.000976562c-30.667 18.667 -56.5 39 -77.5 61s-38 46.333 -51 73s-22.333 56 -28 88s-8.5 67.667 -8.5 107c0 52.667 8.16699 100.167 24.5 142.5s38.166 78 65.499 107s59.166 51.333 95.499 67s74.5 23.5 114.5 23.5
c44.667 0 85.334 -7.83301 122.001 -23.5s68 -38.167 94 -67.5s46.167 -65 60.5 -107s21.5 -89.333 21.5 -142c0 -39.333 -2.33301 -75 -7 -107s-13.167 -61.333 -25.5 -88s-29.166 -51 -50.499 -73s-48.333 -42.333 -81 -61h164v-64h-253v62
c57.333 34 100.5 76.5 129.5 127.5s43.5 116.833 43.5 197.5c0 86.667 -18.833 154.667 -56.5 204s-91.834 74 -162.501 74c-34 0 -64.667 -6.66699 -92 -20s-50.333 -32.166 -69 -56.499s-33 -53.5 -43 -87.5s-15 -72 -15 -114c0 -80.667 14.5 -146.5 43.5 -197.5
s72.167 -93.5 129.5 -127.5v-62h-253v64z" />
    <glyph glyph-name="uni03BC" unicode="&#x3bc;" horiz-adv-x="551" 
d="M115 231c-4.66699 -20.667 -7.00098 -42.999 -7.00098 -66.999c0 -35.333 9.16699 -62.666 27.5 -81.999s44.5 -29 78.5 -29c80.667 0 135.334 66.667 164.001 200l59 269h76l-79 -368c-7.33301 -32.667 -11 -54.667 -11 -66c0 -21.333 11.667 -32 35 -32h6
c2.66699 0 6.33398 0.333008 11.001 1l-13 -61c-8.66699 -2 -16.834 -3.33301 -24.501 -4s-14.5 -1 -20.5 -1c-23.333 0 -40.5 5.66699 -51.5 17s-17.5 29.666 -19.5 54.999c-13.333 -22.667 -32.166 -40.334 -56.499 -53.001s-52.5 -19 -84.5 -19
c-56.667 0 -99.334 22.333 -128.001 67l-55 -266h-76l154 730h77z" />
    <glyph glyph-name="pi" unicode="&#x3c0;" horiz-adv-x="552" 
d="M549 461h-74v-461h-72v461h-254v-461h-72v461h-73v62h545v-62z" />
    <glyph glyph-name="afii10023" unicode="&#x401;" horiz-adv-x="571" 
d="M97 723h427v-68h-347v-241h246v-68h-246v-277h364v-69h-444v723zM247 800h-82v90h82v-90zM441 800h-82v90h82v-90z" />
    <glyph glyph-name="afii10051" unicode="&#x402;" horiz-adv-x="758" 
d="M525 723l0.00390625 -69h-223v-248c24 7.33301 50.833 13 80.5 17s59.834 6 90.501 6c36 0 68.667 -5 98 -15s54.666 -24.5 75.999 -43.5s37.833 -42.333 49.5 -70s17.5 -59.167 17.5 -94.5c0 -31.333 -4.16699 -60.5 -12.5 -87.5s-21.5 -50.167 -39.5 -69.5
s-40.833 -34.5 -68.5 -45.5s-60.834 -16.5 -99.501 -16.5c-18 0 -35 1.5 -51 4.5s-31.667 6.83301 -47 11.5l19 70c11.333 -4.66699 23.166 -8.5 35.499 -11.5s23.5 -4.5 33.5 -4.5c51.333 0 88.833 10.667 112.5 32s35.5 58 35.5 110c0 26.667 -4.5 50.167 -13.5 70.5
s-21.5 37 -37.5 50s-34.833 22.833 -56.5 29.5s-45.5 10 -71.5 10c-30.667 0 -58.334 -2.5 -83.001 -7.5s-47.334 -12.167 -68.001 -21.5v-331h-80v655h-200v69h503z" />
    <glyph glyph-name="afii10052" unicode="&#x403;" horiz-adv-x="516" 
d="M97 722h405v-69h-323v-654h-82v723zM315 960h87l-137 -170h-52z" />
    <glyph glyph-name="afii10053" unicode="&#x404;" horiz-adv-x="610" 
d="M500 504c-13.333 56.667 -35.9961 97.501 -67.9961 122.501s-71 37.5 -117 37.5c-33.333 0 -61.833 -7.83301 -85.5 -23.5s-42.834 -35.667 -57.501 -60s-25.334 -51.666 -32.001 -81.999s-10 -59.833 -10 -88.5h261v-70h-263c0 -29.333 2.5 -60.5 7.5 -93.5
s14.5 -63.5 28.5 -91.5s33.333 -51.333 58 -70s57 -28 97 -28c24.667 0 47 4.16699 67 12.5s37.333 19.666 52 33.999s27 30.833 37 49.5s17.667 38 23 58l78 -18c-20 -66.667 -50.833 -117.667 -92.5 -153s-94.834 -53 -159.501 -53c-38 0 -71.167 5.5 -99.5 16.5
s-52.833 26.167 -73.5 45.5s-37.667 41.666 -51 66.999s-24 52.5 -32 81.5s-13.667 58.667 -17 89s-5 59.833 -5 88.5c0 50.667 5.33301 97.834 16 141.501s27 81.667 49 114s49.667 57.666 83 75.999s72.666 27.5 117.999 27.5c70 0 125.667 -17.5 167 -52.5
s73.333 -88.833 96 -161.5z" />
    <glyph glyph-name="afii10054" unicode="&#x405;" horiz-adv-x="560" 
d="M110 206c13.333 -46.667 35.6729 -83.166 67.0059 -109.499s67.666 -39.5 108.999 -39.5c46.667 0 83.5 11.5 110.5 34.5s40.5 53.5 40.5 91.5c0 44.667 -16.333 78 -49 100c-23.333 16 -49.333 29 -78 39l-90 33c-28 10.667 -52.333 22.167 -73 34.5
s-38 25.833 -52 40.5s-24.333 31.167 -31 49.5s-10 39.166 -10 62.499c0 28.667 5 55 15 79s24.167 44.333 42.5 61s40.666 29.667 66.999 39s55.5 14 87.5 14c56.667 0 104.167 -15 142.5 -45s66.166 -74 83.499 -132l-72 -21c-12 43.333 -31.833 76 -59.5 98
s-61.834 33 -102.501 33c-39.333 0 -70.333 -10.667 -93 -32s-34 -50 -34 -86c0 -33.333 15.667 -62.666 47 -87.999c15.333 -12 36.166 -22.667 62.499 -32l91.5 -34c30.667 -12 57.5 -24.333 80.5 -37s42 -27 57 -43s26.167 -34.333 33.5 -55s11 -45 11 -73
c0 -30 -5.16699 -57.167 -15.5 -81.5s-25.333 -45.333 -45 -63s-43.334 -31.334 -71.001 -41.001s-58.5 -14.5 -92.5 -14.5c-130.667 0 -216 64.333 -256 193z" />
    <glyph glyph-name="afii10055" unicode="&#x406;" horiz-adv-x="285" 
d="M102 723h81v-723h-81v723z" />
    <glyph glyph-name="afii10056" unicode="&#x407;" horiz-adv-x="285" 
d="M102 723h81v-723h-81v723zM88 800h-82v90h82v-90zM282 800h-82v90h82v-90z" />
    <glyph glyph-name="afii10057" unicode="&#x408;" horiz-adv-x="439" 
d="M66 126c15.333 -24.667 30.833 -42.502 46.5 -53.502s35.167 -16.5 58.5 -16.5c38 0 63.333 11.833 76 35.5s19 59.834 19 108.501v523h78v-531c0 -67.333 -14.667 -118.166 -44 -152.499s-72.333 -51.5 -129 -51.5c-37.333 0 -69.333 7.33301 -96 22
s-50.667 38.667 -72 72z" />
    <glyph glyph-name="afii10058" unicode="&#x409;" horiz-adv-x="1004" 
d="M562 723l0.00292969 -309.002h151c32 0 63 -2.83301 93 -8.5s56.5 -16.167 79.5 -31.5s41.5 -36.666 55.5 -63.999s21 -62.666 21 -105.999c0 -39.333 -6.16699 -72 -18.5 -98s-28.833 -46.833 -49.5 -62.5s-44.334 -26.834 -71.001 -33.501s-54 -10 -82 -10h-259v653
h-240c0 -110 -3.5 -202 -10.5 -276s-15.667 -134.5 -26 -181.5s-21.833 -82.833 -34.5 -107.5s-24.334 -42.334 -35.001 -53.001c-17.333 -17.333 -34.5 -28.166 -51.5 -32.499s-31.5 -6.5 -43.5 -6.5s-22.333 1.33301 -31 4v77
c3.33301 -0.666992 6.16602 -1.16699 8.49902 -1.5s5.16602 -0.5 8.49902 -0.5c18.667 0 34.334 5.33301 47.001 16s24 25 34 43c6 10.667 12.167 27 18.5 49s12.333 53.833 18 95.5s10.167 95.834 13.5 162.501s5 150 5 250v32h399zM562.003 69.998l166.999 -0.000976562
c20.667 0 40.334 1.83301 59.001 5.5s34.667 10.334 48 20.001s24 23 32 40s12 39.167 12 66.5c0 48 -13.5 83.667 -40.5 107s-66.167 35 -117.5 35h-160v-274z" />
    <glyph glyph-name="afii10059" unicode="&#x40a;" horiz-adv-x="1060" 
d="M618 723l0.000976562 -309.001h151c32 0 63 -2.83301 93 -8.5s56.5 -16.167 79.5 -31.5s41.5 -36.666 55.5 -63.999s21 -62.666 21 -105.999c0 -39.333 -6.16699 -72 -18.5 -98s-28.833 -46.833 -49.5 -62.5s-44.334 -26.834 -71.001 -33.501s-54 -10 -82 -10h-258v344
h-363v-344h-79v723h79v-309h363v309h79zM618.001 69.999l166.999 -0.000976562c20.667 0 40.334 1.83301 59.001 5.5s34.667 10.334 48 20.001s24 23 32 40s12 39.167 12 66.5c0 48 -13.5 83.667 -40.5 107s-66.167 35 -117.5 35h-160v-274z" />
    <glyph glyph-name="afii10060" unicode="&#x40b;" horiz-adv-x="756" 
d="M606 0l0.000976562 216.999c0 24.667 -2.83301 45 -8.5 61s-14.334 28.667 -26.001 38s-26.334 15.833 -44.001 19.5s-38.5 5.5 -62.5 5.5c-25.333 0 -51.166 -1.16699 -77.499 -3.5s-54.833 -6.16602 -85.5 -11.499v-326h-80v654h-200v69h503v-69h-223v-256l36 4.5
c13.333 1.66699 27 3.16699 41 4.5s27.5 2.33301 40.5 3s25.167 1 36.5 1c32 0 62 -2 90 -6s52.333 -12 73 -24s37 -29.5 49 -52.5s18 -53.5 18 -91.5v-237h-80z" />
    <glyph glyph-name="afii10061" unicode="&#x40c;" horiz-adv-x="624" 
d="M273 411c10 0 19.8311 0.668945 29.498 2.00195s19.334 4 29.001 8s18.667 9.66699 27 17s15.833 16.666 22.5 27.999c7.33301 12.667 13.333 27.334 18 44.001s8.83398 33.667 12.501 51l11 51c3.66699 16.667 8.5 31.667 14.5 45c6.66699 15.333 14.5 27.833 23.5 37.5
s18.167 17 27.5 22s18.666 8.33301 27.999 10s18 2.5 26 2.5c6.66699 0 13.167 -0.333008 19.5 -1s11.166 -1.66699 14.499 -3v-70c-7.33301 1.33301 -12.5 2 -15.5 2h-6.5c-12 0 -20.833 -2.16699 -26.5 -6.5s-10.167 -10.5 -13.5 -18.5
c-4 -8.66699 -7.66699 -19.5 -11 -32.5l-10.5 -41.5l-11 -45c-3.66699 -15.333 -7.83398 -29.666 -12.501 -42.999c-6.66699 -18 -16.334 -35.167 -29.001 -51.5s-31 -27.166 -55 -32.499v-3c16 -2 29.833 -6.33301 41.5 -13s21.667 -14.334 30 -23.001
s15 -17.334 20 -26.001s8.83301 -16.334 11.5 -23.001c5.33301 -12.667 9.83301 -25.5 13.5 -38.5s7.16699 -27 10.5 -42l11 -49.5c4 -18 9.66699 -39 17 -63c3.33301 -12 8.33301 -21.167 15 -27.5s16.667 -9.5 30 -9.5h9.5c3 0 6.16699 0.666992 9.5 2v-70
c-11.333 -6.66699 -25.666 -10 -42.999 -10s-32.666 3.83301 -45.999 11.5s-26.333 22.834 -39 45.501c-6.66699 12.667 -13 29.667 -19 51s-11.667 43.666 -17 66.999s-10.833 45.666 -16.5 66.999s-11.5 38 -17.5 50c-7.33301 14 -16.166 25 -26.499 33
s-21.666 14 -33.999 18s-24.833 6.33301 -37.5 7s-24.667 1 -36 1h-94v-341h-80v723h80v-312h95zM364.998 960.002h87l-137 -170h-52z" />
    <glyph glyph-name="afii10062" unicode="&#x40e;" horiz-adv-x="536" 
d="M96 723l199.002 -440.001h1l161 440h77l-202 -538c-10 -27.333 -21.5 -54 -34.5 -80s-30.167 -49 -51.5 -69c-16 -15.333 -33.833 -26.5 -53.5 -33.5s-38.834 -10.5 -57.501 -10.5c-10 0 -18.833 0.833008 -26.5 2.5s-14.167 3.5 -19.5 5.5v77
c6.66699 -3.33301 13.667 -5.5 21 -6.5s14.333 -1.5 21 -1.5c17.333 0 32.666 3 45.999 9s24 13 32 21c11.333 11.333 21 25.833 29 43.5s13.667 32.834 17 45.501l-245 535h86zM432.002 925.999c-5.33301 -42.667 -22.333 -74.167 -51 -94.5s-64 -30.5 -106 -30.5
s-77.333 10.167 -106 30.5s-45.667 51.833 -51 94.5h76c0.666992 -22 9 -38.333 25 -49s34.667 -16 56 -16s40 5.33301 56 16s24.333 27 25 49h76z" />
    <glyph glyph-name="afii10145" unicode="&#x40f;" horiz-adv-x="716" 
d="M178 723v-653h360v653h80v-723h-223v-158h-74v158h-223v723h80z" />
    <glyph glyph-name="afii10017" unicode="&#x410;" 
d="M240 723h122l222 -723h-84l-65 225h-269l-64 -225h-85zM413 292l-108 377h-11l-109 -377h228z" />
    <glyph glyph-name="afii10018" unicode="&#x411;" horiz-adv-x="640" 
d="M523 653l-343 -0.000976562v-237h163c31.333 0 62.166 -2.66699 92.499 -8s57.333 -15.5 81 -30.5s42.834 -35.667 57.501 -62s22 -60.166 22 -101.499c0 -40 -6 -73.5 -18 -100.5s-28.333 -49 -49 -66s-44.5 -29.167 -71.5 -36.5s-55.5 -11 -85.5 -11h-274v723h425v-70z
M180 69.999h182.001c50 0 87.833 10.667 113.5 32s38.5 58.333 38.5 111c0 26.667 -5 48.667 -15 66s-23 31 -39 41s-34.333 16.833 -55 20.5s-41.334 5.5 -62.001 5.5h-163v-276z" />
    <glyph glyph-name="afii10019" unicode="&#x412;" horiz-adv-x="641" 
d="M97 723l196 -0.000976562c94.667 0 165 -13.833 211 -41.5s69 -74.5 69 -140.5c0 -77.333 -39.333 -130.666 -118 -159.999c43.333 -16.667 77.333 -40.5 102 -71.5s37 -69.167 37 -114.5c0 -130 -92.333 -195 -277 -195h-220v723zM176 657.999l-0.000976562 -245.001
h154c52.667 0 92.834 11 120.501 33s41.5 53.667 41.5 95c0 40.667 -15 70.334 -45 89.001s-76.333 28 -139 28h-132zM175.999 345.998v-277h149c64.667 0 112 10.667 142 32s45 56 45 104c0 46 -15.667 81 -47 105s-78 36 -140 36h-149z" />
    <glyph glyph-name="afii10020" unicode="&#x413;" horiz-adv-x="516" 
d="M97 722h405v-69h-323v-654h-82v723z" />
    <glyph glyph-name="afii10021" unicode="&#x414;" horiz-adv-x="658" 
d="M558 723l0.000976562 -652.999h74v-228h-74v158h-472v-158h-74v228h43c20 40 37.167 78.167 51.5 114.5s26.333 73.166 36 110.499s17.167 76 22.5 116s9.66602 83.333 12.999 130c1.33301 20 2.33301 37.167 3 51.5s1.16699 27.333 1.5 39l1 33.5
c0.333008 10.667 0.833008 22.667 1.5 36l1 22h372zM255.001 606.001l-6.99902 -112.002c-2.66699 -41.333 -7.83398 -85.166 -15.501 -131.499s-18.667 -94.166 -33 -143.499s-33.833 -99 -58.5 -149h337v583h-220z" />
    <glyph glyph-name="afii10022" unicode="&#x415;" horiz-adv-x="571" 
d="M97 723h427v-68h-347v-241h246v-68h-246v-277h364v-69h-444v723z" />
    <glyph glyph-name="afii10024" unicode="&#x416;" horiz-adv-x="914" 
d="M497 723l-0.00292969 -311h49c41.333 0 72.5 10.833 93.5 32.5s35.167 49.167 42.5 82.5c5.33301 24 10.166 44.833 14.499 62.5s9.16602 33.5 14.499 47.5c8 20 16.833 36 26.5 48s19.667 21.167 30 27.5s20.5 10.333 30.5 12s19.333 2.5 28 2.5c6 0 11 -0.333008 15 -1
s9.33301 -1.66699 16 -3v-70c-3.33301 0.666992 -6 1 -8 1h-7c-21.333 0 -36.333 -6.5 -45 -19.5s-15 -27.167 -19 -42.5c-4 -13.333 -8.16699 -30.5 -12.5 -51.5s-11.166 -43.833 -20.499 -68.5c-8 -22 -18.167 -40.333 -30.5 -55s-29.833 -24.667 -52.5 -30v-3
c17.333 -2 32 -6.16699 44 -12.5s22.333 -13.5 31 -21.5s15.5 -16.333 20.5 -25s9.16699 -17 12.5 -25c5.33301 -12.667 11 -28.334 17 -47.001l17 -55l14.5 -49.5c4.33301 -15 7.5 -25.5 9.5 -31.5c3.33301 -10.667 7.83301 -20.834 13.5 -30.501
s16.834 -14.5 33.501 -14.5h9.5c3 0 6.16699 0.666992 9.5 2v-70c-7.33301 -2.66699 -13.166 -4.66699 -17.499 -6s-11.166 -2 -20.499 -2c-12.667 0 -26.834 2.66699 -42.501 8s-30.5 18 -44.5 38c-6 8.66699 -12 20.334 -18 35.001s-11.5 30 -16.5 46
s-9.5 31.167 -13.5 45.5s-7 25.5 -9 33.5c-5.33301 21.333 -10.833 40.666 -16.5 57.999s-13.667 32 -24 44s-23.833 21.333 -40.5 28s-38.334 10 -65.001 10h-69v-342h-80v342h-69c-27.333 0 -49.166 -3.5 -65.499 -10.5s-29.666 -16.667 -39.999 -29
s-18.333 -27.166 -24 -44.499s-11.167 -36 -16.5 -56c-2 -8 -5 -19.167 -9 -33.5s-8.5 -29.5 -13.5 -45.5s-10.5 -31.333 -16.5 -46s-12 -26.334 -18 -35.001c-14 -20 -28.833 -32.667 -44.5 -38s-29.834 -8 -42.501 -8c-9.33301 0 -16.166 0.666992 -20.499 2
s-10.166 3.33301 -17.499 6v70c3.33301 -1.33301 6.5 -2 9.5 -2h9.5c16.667 0 27.834 4.83301 33.501 14.5s10.167 19.834 13.5 30.501c2 6 5.16699 16.5 9.5 31.5l14.5 49.5l17 55c6 18.667 11.667 34.334 17 47.001c3.33301 8 7.5 16.333 12.5 25s11.667 17 20 25
s18.666 15.167 30.999 21.5s27.166 10.5 44.499 12.5v3c-22.667 5.33301 -40.167 15.333 -52.5 30s-22.5 33 -30.5 55c-9.33301 24.667 -16.166 47.5 -20.499 68.5s-8.5 38.167 -12.5 51.5c-4 15.333 -10.333 29.5 -19 42.5s-23.667 19.5 -45 19.5h-7
c-2 0 -4.66699 -0.333008 -8 -1v70c6.66699 1.33301 12 2.33301 16 3s9 1 15 1c8.66699 0 18 -0.833008 28 -2.5s20.167 -5.66699 30.5 -12s20.333 -15.5 30 -27.5s18.5 -28 26.5 -48c5.33301 -14 10 -30 14 -48s9 -38.667 15 -62c4 -16.667 9.5 -32 16.5 -46
s15.833 -26.167 26.5 -36.5s23.5 -18.333 38.5 -24s32.833 -8.5 53.5 -8.5h50v311h80z" />
    <glyph glyph-name="afii10025" unicode="&#x417;" horiz-adv-x="614" 
d="M215 411h86.999c18.667 0 37.667 2.16699 57 6.5s36.833 11.5 52.5 21.5s28.5 22.833 38.5 38.5s15 34.834 15 57.501s-4.16699 42.167 -12.5 58.5s-19.5 29.666 -33.5 39.999s-30.167 18 -48.5 23s-37.833 7.5 -58.5 7.5c-50.667 0 -91.334 -11.667 -122.001 -35
s-53.334 -59 -68.001 -107l-71 22c8 27.333 19 52.666 33 75.999s31.333 43.5 52 60.5s45.334 30.167 74.001 39.5s61.667 14 99 14c34.667 0 66.167 -4.66699 94.5 -14s52.666 -22.166 72.999 -38.499s36.166 -35.666 47.499 -57.999s17 -46.5 17 -72.5
c0 -19.333 -2.66699 -37.833 -8 -55.5s-13 -34 -23 -49s-22.333 -27.833 -37 -38.5s-31 -18 -49 -22v-2c42.667 -8.66699 77.334 -28 104.001 -58s40 -67.667 40 -113c0 -40 -7 -74.333 -21 -103s-32.667 -52.167 -56 -70.5s-50.5 -31.666 -81.5 -39.999
s-63.833 -12.5 -98.5 -12.5c-36 0 -68.667 3.66699 -98 11s-55.166 19 -77.499 35s-41.5 37 -57.5 63s-28.667 58 -38 96l77 19c6 -27.333 15.333 -50.666 28 -69.999s27.834 -35.333 45.501 -48s36.834 -21.834 57.501 -27.501s42 -8.5 64 -8.5s43.5 3 64.5 9
s39.5 15.167 55.5 27.5s29 27.833 39 46.5s15 40.667 15 66s-4.5 46.666 -13.5 63.999s-21.5 31.166 -37.5 41.499s-34.667 17.833 -56 22.5s-44.333 7 -69 7h-95v70z" />
    <glyph glyph-name="afii10026" unicode="&#x418;" horiz-adv-x="722" 
d="M177 723v-491c0 -3.33301 -0.166992 -8 -0.5 -14l-1 -18.5l-1 -18.5c-0.333008 -6 -0.5 -11 -0.5 -15c5.33301 10.667 9.83301 18.667 13.5 24l13.5 19l344 461v53h80v-723h-80v489c0 10 0.333008 22.333 1 37s1.33398 27.667 2.00098 39
c-4 -8 -8.83301 -16.167 -14.5 -24.5s-9.83398 -14.833 -12.501 -19.5l-344 -458v-63h-80v723h80z" />
    <glyph glyph-name="afii10027" unicode="&#x419;" horiz-adv-x="722" 
d="M177 723v-491c0 -3.33301 -0.166992 -8 -0.5 -14l-1 -18.5l-1 -18.5c-0.333008 -6 -0.5 -11 -0.5 -15c5.33301 10.667 9.83301 18.667 13.5 24l13.5 19l344 461v53h80v-723h-80v489c0 10 0.333008 22.333 1 37s1.33398 27.667 2.00098 39
c-4 -8 -8.83301 -16.167 -14.5 -24.5s-9.83398 -14.833 -12.501 -19.5l-344 -458v-63h-80v723h80zM522 926c-5.33301 -42.667 -22.333 -74.167 -51 -94.5s-64 -30.5 -106 -30.5s-77.333 10.167 -106 30.5s-45.667 51.833 -51 94.5h76c0.666992 -22 9 -38.333 25 -49
s34.667 -16 56 -16s40 5.33301 56 16s24.333 27 25 49h76z" />
    <glyph glyph-name="afii10028" unicode="&#x41a;" horiz-adv-x="624" 
d="M273 411c10 0 19.8311 0.668945 29.498 2.00195s19.334 4 29.001 8s18.667 9.66699 27 17s15.833 16.666 22.5 27.999c7.33301 12.667 13.333 27.334 18 44.001s8.83398 33.667 12.501 51l11 51c3.66699 16.667 8.5 31.667 14.5 45c6.66699 15.333 14.5 27.833 23.5 37.5
s18.167 17 27.5 22s18.666 8.33301 27.999 10s18 2.5 26 2.5c6.66699 0 13.167 -0.333008 19.5 -1s11.166 -1.66699 14.499 -3v-70c-7.33301 1.33301 -12.5 2 -15.5 2h-6.5c-12 0 -20.833 -2.16699 -26.5 -6.5s-10.167 -10.5 -13.5 -18.5
c-4 -8.66699 -7.66699 -19.5 -11 -32.5l-10.5 -41.5l-11 -45c-3.66699 -15.333 -7.83398 -29.666 -12.501 -42.999c-6.66699 -18 -16.334 -35.167 -29.001 -51.5s-31 -27.166 -55 -32.499v-3c16 -2 29.833 -6.33301 41.5 -13s21.667 -14.334 30 -23.001
s15 -17.334 20 -26.001s8.83301 -16.334 11.5 -23.001c5.33301 -12.667 9.83301 -25.5 13.5 -38.5s7.16699 -27 10.5 -42l11 -49.5c4 -18 9.66699 -39 17 -63c3.33301 -12 8.33301 -21.167 15 -27.5s16.667 -9.5 30 -9.5h9.5c3 0 6.16699 0.666992 9.5 2v-70
c-11.333 -6.66699 -25.666 -10 -42.999 -10s-32.666 3.83301 -45.999 11.5s-26.333 22.834 -39 45.501c-6.66699 12.667 -13 29.667 -19 51s-11.667 43.666 -17 66.999s-10.833 45.666 -16.5 66.999s-11.5 38 -17.5 50c-7.33301 14 -16.166 25 -26.499 33
s-21.666 14 -33.999 18s-24.833 6.33301 -37.5 7s-24.667 1 -36 1h-94v-341h-80v723h80v-312h95z" />
    <glyph glyph-name="afii10029" unicode="&#x41b;" horiz-adv-x="660" 
d="M562 723l0.00195312 -723.001h-80v653h-240c0 -110 -3.5 -202 -10.5 -276s-15.667 -134.5 -26 -181.5s-21.833 -82.833 -34.5 -107.5s-24.334 -42.334 -35.001 -53.001c-17.333 -17.333 -34.5 -28.166 -51.5 -32.499s-31.5 -6.5 -43.5 -6.5s-22.333 1.33301 -31 4v77
c3.33301 -0.666992 6.16602 -1.16699 8.49902 -1.5s5.16602 -0.5 8.49902 -0.5c18.667 0 34.334 5.33301 47.001 16s24 25 34 43c6 10.667 12.167 27 18.5 49s12.333 53.833 18 95.5s10.167 95.834 13.5 162.501s5 150 5 250v32h399z" />
    <glyph glyph-name="afii10030" unicode="&#x41c;" horiz-adv-x="838" 
d="M97 723h123l202 -611l203 611h116v-723h-77v637l-218 -637h-54l-218 637v-637h-77v723z" />
    <glyph glyph-name="afii10031" unicode="&#x41d;" horiz-adv-x="715" 
d="M97 723h79v-309h363v309h79v-723h-79v344h-363v-344h-79v723z" />
    <glyph glyph-name="afii10032" unicode="&#x41e;" horiz-adv-x="664" 
d="M46 362c0 58 6.83301 110.001 20.5 156.001s33 85 58 117s55.167 56.667 90.5 74s74.333 26 117 26s81.667 -8.5 117 -25.5s65.5 -41.667 90.5 -74s44.333 -71.5 58 -117.5s20.5 -98 20.5 -156s-6.83301 -110.167 -20.5 -156.5s-33 -85.5 -58 -117.5
s-55.167 -56.667 -90.5 -74s-74.333 -26 -117 -26s-81.667 8.66699 -117 26s-65.5 42.166 -90.5 74.499s-44.333 71.5 -58 117.5s-20.5 98 -20.5 156zM127 362.001c0 -98 18.333 -173.167 55 -225.5s86.667 -78.5 150 -78.5s113.333 26.167 150 78.5s55 127.5 55 225.5
s-18.333 173.167 -55 225.5s-86.667 78.5 -150 78.5s-113.333 -26.167 -150 -78.5s-55 -127.5 -55 -225.5z" />
    <glyph glyph-name="afii10033" unicode="&#x41f;" horiz-adv-x="715" 
d="M97 723h521v-723h-79v653h-363v-653h-79v723z" />
    <glyph glyph-name="afii10034" unicode="&#x420;" 
d="M97 723h210c86 0 149.667 -15.667 191 -47s62 -81.333 62 -150c0 -64.667 -20 -114.667 -60 -150s-96.667 -53 -170 -53h-155v-323h-78v723zM298 391c31.333 0 58.332 2.33203 80.999 6.99902s41.334 12.334 56.001 23.001s25.5 24.667 32.5 42s10.5 38.666 10.5 63.999
c0 48.667 -15 82.334 -45 101.001s-77 28 -141 28h-117v-265h123z" />
    <glyph glyph-name="afii10035" unicode="&#x421;" horiz-adv-x="604" 
d="M579 217c-34.667 -152.667 -119.664 -229 -254.997 -229c-88.667 0 -157.167 32 -205.5 96s-72.5 156.667 -72.5 278c0 59.333 6.5 112.166 19.5 158.499s31.333 85.333 55 117s52.167 55.834 85.5 72.501s70.666 25 111.999 25c134.667 0 217.667 -72 249 -216l-75 -19
c-11.333 54.667 -31.333 96.167 -60 124.5s-64.334 42.5 -107.001 42.5c-62.667 0 -111.334 -26 -146.001 -78s-52 -128.667 -52 -230c0 -98.667 17.667 -173.667 53 -225s84.333 -77 147 -77c47.333 0 86.5 15 117.5 45s51.5 73.667 61.5 131l73 -16v0z" />
    <glyph glyph-name="afii10036" unicode="&#x422;" horiz-adv-x="549" 
d="M233 654h-211v69h504v-69h-211v-654h-82v654z" />
    <glyph glyph-name="afii10037" unicode="&#x423;" horiz-adv-x="536" 
d="M96 723l199.002 -440.001h1l161 440h77l-202 -538c-10 -27.333 -21.5 -54 -34.5 -80s-30.167 -49 -51.5 -69c-16 -15.333 -33.833 -26.5 -53.5 -33.5s-38.834 -10.5 -57.501 -10.5c-10 0 -18.833 0.833008 -26.5 2.5s-14.167 3.5 -19.5 5.5v77
c6.66699 -3.33301 13.667 -5.5 21 -6.5s14.333 -1.5 21 -1.5c17.333 0 32.666 3 45.999 9s24 13 32 21c11.333 11.333 21 25.833 29 43.5s13.667 32.834 17 45.501l-245 535h86z" />
    <glyph glyph-name="afii10038" unicode="&#x424;" horiz-adv-x="784" 
d="M432 740l-0.00195312 -106h11c40.667 0 79.167 -5.33301 115.5 -16s67.833 -27 94.5 -49s47.834 -49.833 63.501 -83.5s23.5 -73.5 23.5 -119.5c0 -56 -10.333 -101.167 -31 -135.5s-46.5 -61 -77.5 -80s-64.5 -31.667 -100.5 -38s-69 -9.5 -99 -9.5v-113h-80v113
c-30 0 -63 3.16699 -99 9.5s-69.5 19 -100.5 38s-56.833 45.667 -77.5 80s-31 79.5 -31 135.5c0 46 7.83301 85.833 23.5 119.5s36.834 61.5 63.501 83.5s58 38.333 94 49s74.667 16 116 16h11v106h80zM351.998 564l-10.002 -0.000976562
c-30.667 0 -59.167 -3.83301 -85.5 -11.5s-49.333 -19.5 -69 -35.5s-35.167 -36.667 -46.5 -62s-17 -55.666 -17 -90.999c0 -34.667 5.83301 -64.167 17.5 -88.5s27.834 -44 48.501 -59s44.834 -26 72.501 -33s57.5 -10.5 89.5 -10.5v391zM431.996 172.999
c32 0 61.8311 3.50098 89.498 10.501s51.834 18 72.501 33s36.834 34.667 48.501 59s17.5 53.833 17.5 88.5c0 35.333 -5.66699 65.666 -17 90.999s-26.833 46 -46.5 62s-42.667 27.833 -69 35.5s-54.833 11.5 -85.5 11.5h-10v-391z" />
    <glyph glyph-name="afii10039" unicode="&#x425;" horiz-adv-x="548" 
d="M230 385l-200 338h92l153 -269l148 269h92l-195 -338l220 -385h-93l-172 314l-176 -314h-91z" />
    <glyph glyph-name="afii10040" unicode="&#x426;" horiz-adv-x="718" 
d="M178 723v-653h360v653h80v-653h80v-228h-74v158h-526v723h80z" />
    <glyph glyph-name="afii10041" unicode="&#x427;" horiz-adv-x="630" 
d="M149 723v-217c0 -25.333 3 -46 9 -62s14.833 -28.667 26.5 -38s26.334 -15.666 44.001 -18.999s38.167 -5 61.5 -5c25.333 0 51.166 1.16699 77.499 3.5s54.833 6.16602 85.5 11.499v326h80v-723h-80v325l-36.5 -4.5c-13 -1.66699 -26.5 -3.16699 -40.5 -4.5
s-27.667 -2.33301 -41 -3s-25.333 -1 -36 -1c-32 0 -62 2 -90 6s-52.333 12 -73 24s-37 29.5 -49 52.5s-18 53.5 -18 91.5v237h80z" />
    <glyph glyph-name="afii10042" unicode="&#x428;" horiz-adv-x="920" 
d="M177 723v-653h243v653h80v-653h243v653h80v-723h-726v723h80z" />
    <glyph glyph-name="afii10043" unicode="&#x429;" horiz-adv-x="918" 
d="M178 723v-653h243v653h80v-653h243v653h80v-653h74v-228h-74v158h-726v723h80z" />
    <glyph glyph-name="afii10044" unicode="&#x42a;" horiz-adv-x="748" 
d="M296 723l0.000976562 -309.001h161c32 0 63 -2.83301 93 -8.5s56.5 -16.167 79.5 -31.5s41.5 -36.666 55.5 -63.999s21 -62.666 21 -105.999c0 -39.333 -6.16699 -72 -18.5 -98s-28.833 -46.833 -49.5 -62.5s-44.334 -26.834 -71.001 -33.501s-54 -10 -82 -10h-269v654
h-201v69h281zM296.001 69.999l176.999 -0.000976562c20.667 0 40.334 1.83301 59.001 5.5s34.667 10.334 48 20.001s24 23 32 40s12 39.167 12 66.5c0 48 -13.5 83.667 -40.5 107s-66.167 35 -117.5 35h-170v-274z" />
    <glyph glyph-name="afii10045" unicode="&#x42b;" horiz-adv-x="828" 
d="M650 723h81v-723h-81v723zM177 723l0.000976562 -309.001h151c32 0 63 -2.83301 93 -8.5s56.5 -16.167 79.5 -31.5s41.5 -36.666 55.5 -63.999s21 -62.666 21 -105.999c0 -39.333 -6.16699 -72 -18.5 -98s-28.833 -46.833 -49.5 -62.5s-44.334 -26.834 -71.001 -33.501
s-54 -10 -82 -10h-259v723h80zM177.001 69.999l166.999 -0.000976562c20.667 0 40.334 1.83301 59.001 5.5s34.667 10.334 48 20.001s24 23 32 40s12 39.167 12 66.5c0 48 -13.5 83.667 -40.5 107s-66.167 35 -117.5 35h-160v-274z" />
    <glyph glyph-name="afii10046" unicode="&#x42c;" horiz-adv-x="629" 
d="M177 723l0.000976562 -309.001h161c32 0 63 -2.83301 93 -8.5s56.5 -16.167 79.5 -31.5s41.5 -36.666 55.5 -63.999s21 -62.666 21 -105.999c0 -39.333 -6.16699 -72 -18.5 -98s-28.833 -46.833 -49.5 -62.5s-44.334 -26.834 -71.001 -33.501s-54 -10 -82 -10h-269v723
h80zM177.001 69.999l176.999 -0.000976562c20.667 0 40.334 1.83301 59.001 5.5s34.667 10.334 48 20.001s24 23 32 40s12 39.167 12 66.5c0 48 -13.5 83.667 -40.5 107s-66.167 35 -117.5 35h-170v-274z" />
    <glyph glyph-name="afii10047" unicode="&#x42d;" horiz-adv-x="610" 
d="M35 520c22.667 72.667 54.6699 126.499 96.0029 161.499s97 52.5 167 52.5c45.333 0 84.666 -9.16699 117.999 -27.5s61 -43.666 83 -75.999s38.333 -70.333 49 -114s16 -90.834 16 -141.501c0 -28.667 -1.66699 -58.167 -5 -88.5s-9 -60 -17 -89
s-18.667 -56.167 -32 -81.5s-30.333 -47.666 -51 -66.999s-45.167 -34.5 -73.5 -45.5s-61.5 -16.5 -99.5 -16.5c-64.667 0 -117.834 17.667 -159.501 53s-72.5 86.333 -92.5 153l78 18c5.33301 -20 13 -39.333 23 -58s22.333 -35.167 37 -49.5
s31.834 -25.666 51.501 -33.999s42.167 -12.5 67.5 -12.5c40 0 72.333 9.33301 97 28s44 42 58 70s23.5 58.5 28.5 91.5s7.5 64.167 7.5 93.5h-263v70h261c0 28.667 -3.33301 58.167 -10 88.5s-17.334 57.666 -32.001 81.999s-33.834 44.333 -57.501 60
s-52.167 23.5 -85.5 23.5c-46 0 -85 -12.5 -117 -37.5s-54.667 -65.833 -68 -122.5z" />
    <glyph glyph-name="afii10048" unicode="&#x42e;" horiz-adv-x="910" 
d="M97 723l79 -0.00195312v-309h126c4 50 13.5 94.833 28.5 134.5s34.5 73.334 58.5 101.001s52.333 48.834 85 63.501s68.667 22 108 22c42.667 0 81.334 -8.5 116.001 -25.5s64.334 -41.667 89.001 -74s43.667 -71.5 57 -117.5s20 -98 20 -156
s-6.66699 -110.167 -20 -156.5s-32.333 -85.5 -57 -117.5s-54.334 -56.667 -89.001 -74s-73.334 -26 -116.001 -26c-42 0 -80 8.16699 -114 24.5s-63.167 39.833 -87.5 70.5s-43.5 68 -57.5 112s-21.667 93.667 -23 149h-124v-344h-79v723zM381 361.998
c0 -98 17.667 -173.167 53 -225.5s84.666 -78.5 147.999 -78.5s112.666 26.167 147.999 78.5s53 127.5 53 225.5s-17.667 173.167 -53 225.5s-84.666 78.5 -147.999 78.5s-112.666 -26.167 -147.999 -78.5s-53 -127.5 -53 -225.5z" />
    <glyph glyph-name="afii10049" unicode="&#x42f;" horiz-adv-x="646" 
d="M549 0l-80 0.000976562v316h-165l-173 -316h-96l186 321c-21.333 3.33301 -42 9.5 -62 18.5s-37.667 21.333 -53 37s-27.666 34.667 -36.999 57s-14 48.166 -14 77.499c0 39.333 7 72.5 21 99.5s32 48.833 54 65.5s46.667 28.667 74 36s54.666 11 81.999 11h263v-723z
M299 653.001c-23.333 0 -44.999 -2.00098 -64.999 -6.00098s-37.167 -11.167 -51.5 -21.5s-25.5 -24.666 -33.5 -42.999s-12 -41.5 -12 -69.5c0 -24 4.5 -44 13.5 -60s21 -29 36 -39s31.667 -17.167 50 -21.5s37.166 -6.5 56.499 -6.5h176v267h-170z" />
    <glyph glyph-name="afii10065" unicode="&#x430;" horiz-adv-x="505" 
d="M352 71c-48.667 -52.667 -103.999 -79.001 -165.999 -79.001c-42.667 0 -77.334 13.333 -104.001 40s-40 61.334 -40 104.001c0 28.667 6.33301 54 19 76s31.834 41.5 57.501 58.5s58.167 31.833 97.5 44.5s85.666 24 138.999 34v38c0 23.333 -9.5 42.833 -28.5 58.5
s-44.5 23.5 -76.5 23.5c-28 0 -53 -6.83301 -75 -20.5s-39.667 -34.167 -53 -61.5l-63 34c38.667 74 103.667 111 195 111c55.333 0 98.333 -13.333 129 -40s46 -65 46 -115v-292c0 -27.333 3.66699 -53 11 -77v-8h-80l-8 71v0zM355.001 280.999
c-82 -16.667 -142.666 -35.834 -181.999 -57.501s-59 -51.167 -59 -88.5c0 -23.333 7.5 -42.166 22.5 -56.499s35.833 -21.5 62.5 -21.5c23.333 0 47.666 6.66699 72.999 20s53 33.333 83 60v144z" />
    <glyph glyph-name="afii10066" unicode="&#x431;" horiz-adv-x="504" 
d="M455 659c-12 -6.66699 -23.6719 -12.168 -35.0049 -16.501s-23.5 -8.16602 -36.5 -11.499s-27.667 -6.33301 -44 -9s-35.5 -6 -57.5 -10c-35.333 -6 -65 -14.833 -89 -26.5s-44.667 -31.834 -62 -60.501c-9.33301 -15.333 -17 -34.333 -23 -57s-10.667 -45.667 -14 -69h2
c10 24.667 22.167 44.834 36.5 60.501s29.5 27.834 45.5 36.501s32.333 14.667 49 18s32.334 5 47.001 5c69.333 0 119.333 -22 150 -66s46 -107.667 46 -191c0 -36 -4 -70.333 -12 -103s-20.667 -61.5 -38 -86.5s-39.666 -45 -66.999 -60s-60.666 -22.5 -99.999 -22.5
c-42 0 -77 7.66699 -105 23s-50.5 37 -67.5 65s-29 61.333 -36 100s-10.5 81 -10.5 127c0 42.667 2.5 80.167 7.5 112.5s11.333 60 19 83s15.834 42 24.501 57s17 27.167 25 36.5c12.667 15.333 26.5 28.166 41.5 38.499s30 18.833 45 25.5s29.833 12 44.5 16
s28.334 7.33301 41.001 10c26 4.66699 47.5 8.66699 64.5 12s31.667 6.33301 44 9s23.333 5.5 33 8.5s20.167 7.16699 31.5 12.5v-67zM255.995 459.999c-26 0 -48.3311 -4.99902 -66.998 -14.999s-34.167 -23.833 -46.5 -41.5s-21.333 -39 -27 -64s-8.5 -52.5 -8.5 -82.5
c0 -23.333 2.16699 -47 6.5 -71s12.166 -46 23.499 -66s26.5 -36.333 45.5 -49s43.5 -19 73.5 -19c28.667 0 52 7 70 21s32.167 31.333 42.5 52s17.333 43.167 21 67.5s5.5 47.166 5.5 68.499c0 26 -2 51 -6 75s-11.333 45.167 -22 63.5s-24.834 33 -42.501 44
s-40.5 16.5 -68.5 16.5z" />
    <glyph glyph-name="afii10067" unicode="&#x432;" horiz-adv-x="504" 
d="M80 523l213.001 0.00390625c13.333 0 28.333 -1.33301 45 -4s32.167 -8.33398 46.5 -17.001s26.5 -21.167 36.5 -37.5s15 -37.833 15 -64.5c0 -31.333 -7.33301 -57.333 -22 -78s-37.667 -35.334 -69 -44.001v-2c14 -1.33301 28.167 -4.83301 42.5 -10.5
s27.166 -13.834 38.499 -24.501s20.5 -23.834 27.5 -39.501s10.5 -33.834 10.5 -54.501c0 -29.333 -4.66699 -53.333 -14 -72s-21.5 -33.667 -36.5 -45s-32 -19.166 -51 -23.499s-37.833 -6.5 -56.5 -6.5h-226v523zM152.001 303.004h123c26 0 47.667 6.33301 65 19
s26 35.667 26 69c0 14 -2.33301 25.5 -7 34.5s-10.667 16 -18 21s-15.333 8.5 -24 10.5s-17 3 -25 3h-140v-157zM152.001 63.0039h140c31.333 0 55.5 7.33301 72.5 22s25.5 37 25.5 67c0 17.333 -3.33301 31.666 -10 42.999s-15 20.333 -25 27s-21.167 11.334 -33.5 14.001
s-24.5 4 -36.5 4h-133v-177z" />
    <glyph glyph-name="afii10068" unicode="&#x433;" horiz-adv-x="380" 
d="M380 523v-62h-228v-461h-72v523h300z" />
    <glyph glyph-name="afii10069" unicode="&#x434;" horiz-adv-x="512" 
d="M431 523v-460.999h58v-202h-66v140h-357v-140h-66v202h45c8 13.333 16 27.666 24 42.999s15.333 32.333 22 51c18 48 29 98.333 33 151s6.66699 109 8 169l1 47h298zM194 433.001c-0.666992 -19.333 -1.83398 -41.332 -3.50098 -65.999s-4 -50.334 -7 -77.001
s-7 -53.334 -12 -80.001s-11.5 -51 -19.5 -73c-4.66699 -13.333 -10.167 -27.666 -16.5 -42.999s-11.166 -26 -14.499 -32h238v399h-164z" />
    <glyph glyph-name="afii10070" unicode="&#x435;" horiz-adv-x="481" 
d="M457 114c-20.667 -42 -48.1689 -73.001 -82.502 -93.001s-76.5 -30 -126.5 -30c-68 0 -120 22.833 -156 68.5s-54 113.167 -54 202.5c0 86.667 18.333 153.334 55 200.001s86.334 70 149.001 70c64 0 114 -22.5 150 -67.5s54 -110.167 54 -195.5v-22h-333v-17
c0 -56 13.167 -99.5 39.5 -130.5s60.5 -46.5 102.5 -46.5c32.667 0 61.834 8 87.501 24s46.167 39.333 61.5 70zM368.998 308.999c-1.33301 52 -13.332 91.833 -35.999 119.5s-52.667 41.5 -90 41.5c-38.667 0 -69.334 -13.833 -92.001 -41.5s-35 -67.5 -37 -119.5h255z" />
    <glyph glyph-name="afii10072" unicode="&#x436;" horiz-adv-x="696" 
d="M383 523v-216.997h38c24 0 43.833 4.5 59.5 13.5s27.5 26.5 35.5 52.5c8.66699 26.667 14.5 48.334 17.5 65.001s8.5 32.667 16.5 48s17.667 26 29 32s26.333 9 45 9c4 0 8.83301 -0.166992 14.5 -0.5s10.834 -1.16602 15.501 -2.49902v-62
c-3.33301 1.33301 -8.33301 2 -15 2c-14 0 -24 -4.33301 -30 -13s-10.667 -21.334 -14 -38.001c-3.33301 -14 -6.66602 -29 -9.99902 -45s-8.66602 -31.333 -15.999 -46c-4.66699 -9.33301 -11.167 -18.5 -19.5 -27.5s-20.166 -14.5 -35.499 -16.5v-2
c12.667 -1.33301 23.5 -5 32.5 -11s16.667 -13.333 23 -22s11.666 -18.167 15.999 -28.5s8.16602 -20.833 11.499 -31.5c6 -20.667 10.833 -39.334 14.5 -56.001s8.16699 -30.667 13.5 -42c3.33301 -9.33301 7.33301 -15.666 12 -18.999s11.667 -5 21 -5h9
c2.66699 0 5.66699 0.666992 9 2v-62c-11.333 -2 -22 -3 -32 -3c-27.333 0 -47.166 5 -59.499 15s-22.5 25.667 -30.5 47c-9.33301 23.333 -16.166 46.666 -20.499 69.999s-11.833 46.666 -22.5 69.999c-5.33301 10.667 -11.166 19 -17.499 25s-13.166 10.5 -20.499 13.5
s-14.833 4.83301 -22.5 5.5s-15.5 1 -23.5 1h-44v-244h-70v244h-43c-8 0 -15.833 -0.333008 -23.5 -1s-15.334 -2.5 -23.001 -5.5s-14.834 -7.5 -21.501 -13.5s-12.334 -14.333 -17.001 -25c-10.667 -22.667 -18.167 -45.834 -22.5 -69.501s-10.833 -47.167 -19.5 -70.5
c-8 -21.333 -18.333 -37 -31 -47s-32.667 -15 -60 -15c-10.667 0 -21.334 1 -32.001 3v62c3.33301 -1.33301 6.5 -2 9.5 -2h9.5c8.66699 0 15.334 1.66699 20.001 5s9 9.66602 13 18.999c5.33301 11.333 9.66602 25.333 12.999 42s8.33301 35.334 15 56.001
c3.33301 10.667 7.16602 21.167 11.499 31.5s9.66602 19.833 15.999 28.5s13.833 16 22.5 22s19.334 9.66699 32.001 11v2c-15.333 2 -27 7.5 -35 16.5s-14.667 18.167 -20 27.5c-7.33301 14.667 -12.5 30 -15.5 46s-6.16699 31 -9.5 45
c-3.33301 16.667 -8 29.334 -14 38.001s-16.333 13 -31 13c-6.66699 0 -11.334 -0.666992 -14.001 -2v62c4 1.33301 8.83301 2.16602 14.5 2.49902s10.834 0.5 15.501 0.5c18.667 0 33.667 -3 45 -9s20.666 -16.667 27.999 -32c8.66699 -15.333 14.5 -31.333 17.5 -48
s8.5 -38.334 16.5 -65.001c8 -26 20 -43.5 36 -52.5s36 -13.5 60 -13.5h37v217h70z" />
    <glyph glyph-name="afii10073" unicode="&#x437;" horiz-adv-x="481" 
d="M45 388c5.33301 25.333 14.498 47.167 27.498 65.5s28.333 33.333 46 45s37.334 20.334 59.001 26.001s44.167 8.5 67.5 8.5c22 0 43.333 -2.83301 64 -8.5s39.167 -14.334 55.5 -26.001s29.333 -26.5 39 -44.5s14.5 -39 14.5 -63c0 -32 -9 -58.5 -27 -79.5
s-41 -33.167 -69 -36.5v-2c32.667 -3.33301 59 -16.333 79 -39s30 -52 30 -88c0 -50 -16.833 -88.333 -50.5 -115s-80.834 -40 -141.501 -40c-23.333 0 -45.333 1.83301 -66 5.5s-39.834 10.5 -57.501 20.5s-33.334 24 -47.001 42s-25.167 41.667 -34.5 71l69 25
c6 -28.667 19.5 -52.667 40.5 -72s51.5 -29 91.5 -29c14.667 0 29.167 1.33301 43.5 4s27.333 7.5 39 14.5s21.167 16.333 28.5 28s11 26.5 11 44.5c0 18.667 -3.16699 34.167 -9.5 46.5s-15 22 -26 29s-23.5 11.833 -37.5 14.5s-28.667 4 -44 4h-54v63h54
c14.667 0 28.5 1.5 41.5 4.5s24.5 7.83301 34.5 14.5s17.833 15.5 23.5 26.5s8.5 24.833 8.5 41.5c0 14.667 -3.16699 27.167 -9.5 37.5s-14.666 18.833 -24.999 25.5s-22.166 11.334 -35.499 14.001s-26.666 4 -39.999 4c-28 0 -53.167 -7.33301 -75.5 -22
s-39.166 -41.334 -50.499 -80.001z" />
    <glyph glyph-name="afii10074" unicode="&#x438;" horiz-adv-x="545" 
d="M152 523l-0.000976562 -315.002v-20.5c0 -5 -0.166992 -9.66699 -0.5 -14s-0.666016 -9.16602 -0.999023 -14.499s-0.833008 -12.666 -1.5 -21.999c8 18 15.833 33 23.5 45s15.5 23.667 23.5 35l197 261v45h72v-523h-72v310c0 9.33301 0.333008 21 1 35s1.66699 27 3 39
c-2.66699 -4.66699 -6.5 -12 -11.5 -22s-16.167 -26.667 -33.5 -50l-200 -262v-50h-72v523h72z" />
    <glyph glyph-name="afii10075" unicode="&#x439;" horiz-adv-x="545" 
d="M152 523l-0.000976562 -315.002v-20.5c0 -5 -0.166992 -9.66699 -0.5 -14s-0.666016 -9.16602 -0.999023 -14.499s-0.833008 -12.666 -1.5 -21.999c8 18 15.833 33 23.5 45s15.5 23.667 23.5 35l197 261v45h72v-523h-72v310c0 9.33301 0.333008 21 1 35s1.66699 27 3 39
c-2.66699 -4.66699 -6.5 -12 -11.5 -22s-16.167 -26.667 -33.5 -50l-200 -262v-50h-72v523h72zM185.999 737.998c4 -25.333 11.832 -43.5 23.499 -54.5s31.834 -16.5 60.501 -16.5s48.834 5.5 60.501 16.5s19.5 29.167 23.5 54.5h68c-3.33301 -46 -18.333 -79.667 -45 -101
s-62.334 -32 -107.001 -32c-44 0 -79.5 10.667 -106.5 32s-42.167 55 -45.5 101h68z" />
    <glyph glyph-name="afii10076" unicode="&#x43a;" horiz-adv-x="499" 
d="M218 306c16 0 30.333 1.16699 43 3.5s23.834 7.5 33.501 15.5s18 19.167 25 33.5s13.167 33.5 18.5 57.5l10 43c3.33301 14.667 9.66602 27.667 18.999 39c10.667 13.333 22.667 21.166 36 23.499s24 3.5 32 3.5c3.33301 0 7.33301 -0.166992 12 -0.5
s9 -0.833008 13 -1.5v-62c-2.66699 0.666992 -5.33398 1 -8.00098 1h-8c-8.66699 0 -15.667 -1.66699 -21 -5s-9.66602 -7.66602 -12.999 -12.999s-5.83301 -11.666 -7.5 -18.999l-5.5 -24l-8 -37c-5.33301 -28.667 -15 -49.834 -29 -63.501s-29.333 -21.834 -46 -24.501v-2
c24 -2 41.5 -10.5 52.5 -25.5s19.5 -30.833 25.5 -47.5c9.33301 -27.333 16.166 -49.5 20.499 -66.5s8.83301 -31.167 13.5 -42.5c5.33301 -12.667 10.5 -21.167 15.5 -25.5s13.5 -6.5 25.5 -6.5h8c2.66699 0 5.66699 0.333008 9 1v-62
c-5.33301 -1.33301 -10.666 -2 -15.999 -2h-16c-20 0 -36 2.16699 -48 6.5s-21.667 10.833 -29 19.5s-13 19.167 -17 31.5l-13 41.5l-12 40.5l-8.5 28c-2.33301 7.66699 -4.5 13.834 -6.5 18.501s-4 9 -6 13c-9.33301 18 -21.333 30.5 -36 37.5s-32 10.5 -52 10.5h-72v-244
h-72v523h72v-217h66z" />
    <glyph glyph-name="afii10077" unicode="&#x43b;" horiz-adv-x="502" 
d="M422 523l-0.000976562 -522.999h-72v461h-171c-2 -58 -4 -106.833 -6 -146.5s-4.16699 -72.834 -6.5 -99.501s-5 -48.167 -8 -64.5s-6.5 -30.166 -10.5 -41.499c-8.66699 -26 -19.334 -46.167 -32.001 -60.5s-26 -25.166 -40 -32.499s-27.667 -11.833 -41 -13.5
s-24.666 -2.5 -33.999 -2.5v67c15.333 0 30.333 4.16699 45 12.5s27 22.166 37 41.499c4 6.66699 7.5 16.167 10.5 28.5s5.83301 31 8.5 56s4.83398 58.167 6.50098 99.5s3.16699 94.666 4.5 159.999l1 58h308z" />
    <glyph glyph-name="afii10078" unicode="&#x43c;" horiz-adv-x="678" 
d="M186 523l159.003 -403l151 403h102v-523h-72v363c0 8.66699 0.166992 15.667 0.5 21s0.666016 10.333 0.999023 15s0.666016 10.167 0.999023 16.5l1.5 27.5c-2 -3.33301 -6.33301 -12 -13 -26s-15.334 -35 -26.001 -63l-132 -354h-39l-141 354l-11 28l-11.5 28.5
l-13.5 32.5c0 -14.667 0.5 -28.167 1.5 -40.5s1.5 -24.5 1.5 -36.5v-366h-66v523h106z" />
    <glyph glyph-name="afii10079" unicode="&#x43d;" horiz-adv-x="542" 
d="M152 523v-218h238v218h72v-523h-72v243h-238v-243h-72v523h72z" />
    <glyph glyph-name="afii10080" unicode="&#x43e;" horiz-adv-x="503" 
d="M34 262c0 87.333 19.167 154.166 57.5 200.499s91.833 69.5 160.5 69.5s122.167 -23.167 160.5 -69.5s57.5 -113.166 57.5 -200.499s-19.167 -154.333 -57.5 -201s-91.833 -70 -160.5 -70s-122.167 23.333 -160.5 70s-57.5 113.667 -57.5 201zM108 262
c0 -69.333 12.5 -121.667 37.5 -157s60.5 -53 106.5 -53s81.333 17.667 106 53s37 87.333 37 156c0 69.333 -12.333 121.5 -37 156.5s-60 52.5 -106 52.5s-81.5 -17.5 -106.5 -52.5s-37.5 -86.833 -37.5 -155.5z" />
    <glyph glyph-name="afii10081" unicode="&#x43f;" horiz-adv-x="542" 
d="M462 523v-523h-72v461h-238v-461h-72v523h382z" />
    <glyph glyph-name="afii10082" unicode="&#x440;" horiz-adv-x="541" 
d="M82 523l56 0.000976562l12 -64c18.667 23.333 38.667 41.333 60 54s48 19 80 19c68.667 0 122 -23.333 160 -70s57 -114.334 57 -203.001c0 -87.333 -18.667 -153.833 -56 -199.5s-91.333 -68.5 -162 -68.5c-57.333 0 -102.333 21.667 -135 65v-246h-72v713zM154 131.001
c19.333 -28 40.168 -48.333 62.501 -61s48.166 -19 77.499 -19c44 0 78 17.5 102 52.5s36 86.5 36 154.5c0 141.333 -48.667 212 -146 212c-26.667 0 -51.167 -6.5 -73.5 -19.5s-41.833 -32.5 -58.5 -58.5v-261v0z" />
    </font>
</defs>
</svg>
